<svg width="86" height="86" viewBox="0 0 86 86" fill="none" xmlns="http://www.w3.org/2000/svg">
<rect x="1" y="1" width="84" height="84" rx="42" fill="white"/>
<rect x="1" y="1" width="84" height="84" rx="42" stroke="#54BAEB" stroke-width="2"/>
<ellipse cx="43.1071" cy="42.904" rx="1.09596" ry="1.10714" transform="rotate(-90 43.1071 42.904)" fill="#D9E4FC"/>
<ellipse cx="43.1071" cy="39.303" rx="1.09596" ry="1.10714" transform="rotate(-90 43.1071 39.303)" fill="#D9E4FC"/>
<ellipse cx="43.1071" cy="35.702" rx="1.09596" ry="1.10714" transform="rotate(-90 43.1071 35.702)" fill="#D9E4FC"/>
<ellipse cx="43.1071" cy="32.101" rx="1.09596" ry="1.10714" transform="rotate(-90 43.1071 32.101)" fill="#D9E4FC"/>
<ellipse cx="43.1071" cy="28.5" rx="1.09596" ry="1.10714" transform="rotate(-90 43.1071 28.5)" fill="#D9E4FC"/>
<ellipse cx="43.1071" cy="24.899" rx="1.09596" ry="1.10714" transform="rotate(-90 43.1071 24.899)" fill="#D9E4FC"/>
<ellipse cx="43.1071" cy="21.298" rx="1.09596" ry="1.10714" transform="rotate(-90 43.1071 21.298)" fill="#D9E4FC"/>
<ellipse cx="43.1071" cy="17.6969" rx="1.09596" ry="1.10714" transform="rotate(-90 43.1071 17.6969)" fill="#D9E4FC"/>
<ellipse cx="43.1071" cy="14.0961" rx="1.09596" ry="1.10714" transform="rotate(-90 43.1071 14.0961)" fill="#D9E4FC"/>
<ellipse cx="46.7306" cy="42.904" rx="1.09596" ry="1.10714" transform="rotate(-90 46.7306 42.904)" fill="#D9E4FC"/>
<ellipse cx="46.7306" cy="39.303" rx="1.09596" ry="1.10714" transform="rotate(-90 46.7306 39.303)" fill="#D9E4FC"/>
<ellipse cx="46.7306" cy="35.702" rx="1.09596" ry="1.10714" transform="rotate(-90 46.7306 35.702)" fill="#D9E4FC"/>
<ellipse cx="46.7306" cy="32.101" rx="1.09596" ry="1.10714" transform="rotate(-90 46.7306 32.101)" fill="#D9E4FC"/>
<ellipse cx="46.7306" cy="28.5" rx="1.09596" ry="1.10714" transform="rotate(-90 46.7306 28.5)" fill="#D9E4FC"/>
<ellipse cx="46.7306" cy="24.899" rx="1.09596" ry="1.10714" transform="rotate(-90 46.7306 24.899)" fill="#D9E4FC"/>
<ellipse cx="46.7306" cy="21.298" rx="1.09596" ry="1.10714" transform="rotate(-90 46.7306 21.298)" fill="#D9E4FC"/>
<ellipse cx="46.7306" cy="17.6969" rx="1.09596" ry="1.10714" transform="rotate(-90 46.7306 17.6969)" fill="#D9E4FC"/>
<ellipse cx="46.7306" cy="14.0961" rx="1.09596" ry="1.10714" transform="rotate(-90 46.7306 14.0961)" fill="#D9E4FC"/>
<ellipse cx="50.3538" cy="42.904" rx="1.09596" ry="1.10714" transform="rotate(-90 50.3538 42.904)" fill="#D9E4FC"/>
<ellipse cx="50.3538" cy="39.303" rx="1.09596" ry="1.10714" transform="rotate(-90 50.3538 39.303)" fill="#D9E4FC"/>
<ellipse cx="50.3538" cy="35.702" rx="1.09596" ry="1.10714" transform="rotate(-90 50.3538 35.702)" fill="#D9E4FC"/>
<ellipse cx="50.3538" cy="32.101" rx="1.09596" ry="1.10714" transform="rotate(-90 50.3538 32.101)" fill="#D9E4FC"/>
<ellipse cx="50.3538" cy="28.5" rx="1.09596" ry="1.10714" transform="rotate(-90 50.3538 28.5)" fill="#D9E4FC"/>
<ellipse cx="50.3538" cy="24.899" rx="1.09596" ry="1.10714" transform="rotate(-90 50.3538 24.899)" fill="#D9E4FC"/>
<ellipse cx="50.3538" cy="21.298" rx="1.09596" ry="1.10714" transform="rotate(-90 50.3538 21.298)" fill="#D9E4FC"/>
<ellipse cx="50.3538" cy="17.6969" rx="1.09596" ry="1.10714" transform="rotate(-90 50.3538 17.6969)" fill="#D9E4FC"/>
<ellipse cx="50.3538" cy="14.0961" rx="1.09596" ry="1.10714" transform="rotate(-90 50.3538 14.0961)" fill="#D9E4FC"/>
<ellipse cx="53.9773" cy="42.904" rx="1.09596" ry="1.10714" transform="rotate(-90 53.9773 42.904)" fill="#D9E4FC"/>
<ellipse cx="53.9773" cy="39.303" rx="1.09596" ry="1.10714" transform="rotate(-90 53.9773 39.303)" fill="#D9E4FC"/>
<ellipse cx="53.9773" cy="35.702" rx="1.09596" ry="1.10714" transform="rotate(-90 53.9773 35.702)" fill="#D9E4FC"/>
<ellipse cx="53.9773" cy="32.101" rx="1.09596" ry="1.10714" transform="rotate(-90 53.9773 32.101)" fill="#D9E4FC"/>
<ellipse cx="53.9773" cy="28.5" rx="1.09596" ry="1.10714" transform="rotate(-90 53.9773 28.5)" fill="#D9E4FC"/>
<ellipse cx="53.9773" cy="24.899" rx="1.09596" ry="1.10714" transform="rotate(-90 53.9773 24.899)" fill="#D9E4FC"/>
<ellipse cx="53.9773" cy="21.298" rx="1.09596" ry="1.10714" transform="rotate(-90 53.9773 21.298)" fill="#D9E4FC"/>
<ellipse cx="53.9773" cy="17.6969" rx="1.09596" ry="1.10714" transform="rotate(-90 53.9773 17.6969)" fill="#D9E4FC"/>
<ellipse cx="53.9773" cy="14.0961" rx="1.09596" ry="1.10714" transform="rotate(-90 53.9773 14.0961)" fill="#D9E4FC"/>
<ellipse cx="57.6007" cy="42.904" rx="1.09596" ry="1.10714" transform="rotate(-90 57.6007 42.904)" fill="#D9E4FC"/>
<ellipse cx="57.6007" cy="39.303" rx="1.09596" ry="1.10714" transform="rotate(-90 57.6007 39.303)" fill="#D9E4FC"/>
<ellipse cx="57.6007" cy="35.702" rx="1.09596" ry="1.10714" transform="rotate(-90 57.6007 35.702)" fill="#D9E4FC"/>
<ellipse cx="57.6007" cy="32.101" rx="1.09596" ry="1.10714" transform="rotate(-90 57.6007 32.101)" fill="#D9E4FC"/>
<ellipse cx="57.6007" cy="28.5" rx="1.09596" ry="1.10714" transform="rotate(-90 57.6007 28.5)" fill="#D9E4FC"/>
<ellipse cx="57.6007" cy="24.899" rx="1.09596" ry="1.10714" transform="rotate(-90 57.6007 24.899)" fill="#D9E4FC"/>
<ellipse cx="57.6007" cy="21.298" rx="1.09596" ry="1.10714" transform="rotate(-90 57.6007 21.298)" fill="#D9E4FC"/>
<ellipse cx="57.6007" cy="17.6969" rx="1.09596" ry="1.10714" transform="rotate(-90 57.6007 17.6969)" fill="#D9E4FC"/>
<ellipse cx="57.6007" cy="14.0961" rx="1.09596" ry="1.10714" transform="rotate(-90 57.6007 14.0961)" fill="#D9E4FC"/>
<ellipse cx="61.2241" cy="42.904" rx="1.09596" ry="1.10714" transform="rotate(-90 61.2241 42.904)" fill="#D9E4FC"/>
<ellipse cx="61.2241" cy="39.303" rx="1.09596" ry="1.10714" transform="rotate(-90 61.2241 39.303)" fill="#D9E4FC"/>
<ellipse cx="61.2241" cy="35.702" rx="1.09596" ry="1.10714" transform="rotate(-90 61.2241 35.702)" fill="#D9E4FC"/>
<ellipse cx="61.2241" cy="32.101" rx="1.09596" ry="1.10714" transform="rotate(-90 61.2241 32.101)" fill="#D9E4FC"/>
<ellipse cx="61.2241" cy="28.5" rx="1.09596" ry="1.10714" transform="rotate(-90 61.2241 28.5)" fill="#D9E4FC"/>
<ellipse cx="61.2241" cy="24.899" rx="1.09596" ry="1.10714" transform="rotate(-90 61.2241 24.899)" fill="#D9E4FC"/>
<ellipse cx="61.2241" cy="21.298" rx="1.09596" ry="1.10714" transform="rotate(-90 61.2241 21.298)" fill="#D9E4FC"/>
<ellipse cx="61.2241" cy="17.6969" rx="1.09596" ry="1.10714" transform="rotate(-90 61.2241 17.6969)" fill="#D9E4FC"/>
<ellipse cx="61.2241" cy="14.0961" rx="1.09596" ry="1.10714" transform="rotate(-90 61.2241 14.0961)" fill="#D9E4FC"/>
<ellipse cx="64.8474" cy="42.904" rx="1.09596" ry="1.10714" transform="rotate(-90 64.8474 42.904)" fill="#D9E4FC"/>
<ellipse cx="64.8474" cy="39.303" rx="1.09596" ry="1.10714" transform="rotate(-90 64.8474 39.303)" fill="#D9E4FC"/>
<ellipse cx="64.8474" cy="35.702" rx="1.09596" ry="1.10714" transform="rotate(-90 64.8474 35.702)" fill="#D9E4FC"/>
<ellipse cx="64.8474" cy="32.101" rx="1.09596" ry="1.10714" transform="rotate(-90 64.8474 32.101)" fill="#D9E4FC"/>
<ellipse cx="64.8474" cy="28.5" rx="1.09596" ry="1.10714" transform="rotate(-90 64.8474 28.5)" fill="#D9E4FC"/>
<ellipse cx="64.8474" cy="24.899" rx="1.09596" ry="1.10714" transform="rotate(-90 64.8474 24.899)" fill="#D9E4FC"/>
<ellipse cx="64.8474" cy="21.298" rx="1.09596" ry="1.10714" transform="rotate(-90 64.8474 21.298)" fill="#D9E4FC"/>
<ellipse cx="64.8474" cy="17.6969" rx="1.09596" ry="1.10714" transform="rotate(-90 64.8474 17.6969)" fill="#D9E4FC"/>
<ellipse cx="64.8474" cy="14.0961" rx="1.09596" ry="1.10714" transform="rotate(-90 64.8474 14.0961)" fill="#D9E4FC"/>
<rect x="18.25" y="35.25" width="39.5" height="28.5" stroke="#16215D" stroke-width="0.5"/>
<path d="M61.3333 28H25.5556C24.8778 28 24.2278 28.2692 23.7485 28.7485C23.2692 29.2278 23 29.8778 23 30.5556V56.1111C23 56.7889 23.2692 57.4389 23.7485 57.9182C24.2278 58.3974 24.8778 58.6667 25.5556 58.6667H61.3333C62.0111 58.6667 62.6611 58.3974 63.1404 57.9182C63.6196 57.4389 63.8889 56.7889 63.8889 56.1111V30.5556C63.8889 29.8778 63.6196 29.2278 63.1404 28.7485C62.6611 28.2692 62.0111 28 61.3333 28ZM59.3656 56.1111H27.6767L36.6211 46.86L34.7811 45.0839L25.5556 54.6289V32.4978L41.4383 48.3039C41.9171 48.7799 42.5649 49.047 43.24 49.047C43.9151 49.047 44.5628 48.7799 45.0417 48.3039L61.3333 32.1017V54.4628L51.9289 45.0583L50.1272 46.86L59.3656 56.1111ZM27.2294 30.5556H59.2633L43.24 46.4894L27.2294 30.5556Z" fill="#3362CC"/>
</svg>
