<svg width="48" height="53" viewBox="0 0 48 53" fill="none" xmlns="http://www.w3.org/2000/svg">
<ellipse cx="25.1071" cy="29.904" rx="1.09596" ry="1.10714" transform="rotate(-90 25.1071 29.904)" fill="#D9E4FC"/>
<ellipse cx="25.1071" cy="26.303" rx="1.09596" ry="1.10714" transform="rotate(-90 25.1071 26.303)" fill="#D9E4FC"/>
<ellipse cx="25.1071" cy="22.702" rx="1.09596" ry="1.10714" transform="rotate(-90 25.1071 22.702)" fill="#D9E4FC"/>
<ellipse cx="25.1071" cy="19.101" rx="1.09596" ry="1.10714" transform="rotate(-90 25.1071 19.101)" fill="#D9E4FC"/>
<ellipse cx="25.1071" cy="15.5" rx="1.09596" ry="1.10714" transform="rotate(-90 25.1071 15.5)" fill="#D9E4FC"/>
<ellipse cx="25.1071" cy="11.899" rx="1.09596" ry="1.10714" transform="rotate(-90 25.1071 11.899)" fill="#D9E4FC"/>
<ellipse cx="25.1071" cy="8.29799" rx="1.09596" ry="1.10714" transform="rotate(-90 25.1071 8.29799)" fill="#D9E4FC"/>
<ellipse cx="25.1071" cy="4.69692" rx="1.09596" ry="1.10714" transform="rotate(-90 25.1071 4.69692)" fill="#D9E4FC"/>
<ellipse cx="25.1071" cy="1.09606" rx="1.09596" ry="1.10714" transform="rotate(-90 25.1071 1.09606)" fill="#D9E4FC"/>
<ellipse cx="28.7306" cy="29.904" rx="1.09596" ry="1.10714" transform="rotate(-90 28.7306 29.904)" fill="#D9E4FC"/>
<ellipse cx="28.7306" cy="26.303" rx="1.09596" ry="1.10714" transform="rotate(-90 28.7306 26.303)" fill="#D9E4FC"/>
<ellipse cx="28.7306" cy="22.702" rx="1.09596" ry="1.10714" transform="rotate(-90 28.7306 22.702)" fill="#D9E4FC"/>
<ellipse cx="28.7306" cy="19.101" rx="1.09596" ry="1.10714" transform="rotate(-90 28.7306 19.101)" fill="#D9E4FC"/>
<ellipse cx="28.7306" cy="15.5" rx="1.09596" ry="1.10714" transform="rotate(-90 28.7306 15.5)" fill="#D9E4FC"/>
<ellipse cx="28.7306" cy="11.899" rx="1.09596" ry="1.10714" transform="rotate(-90 28.7306 11.899)" fill="#D9E4FC"/>
<ellipse cx="28.7306" cy="8.29799" rx="1.09596" ry="1.10714" transform="rotate(-90 28.7306 8.29799)" fill="#D9E4FC"/>
<ellipse cx="28.7306" cy="4.69692" rx="1.09596" ry="1.10714" transform="rotate(-90 28.7306 4.69692)" fill="#D9E4FC"/>
<ellipse cx="28.7306" cy="1.09606" rx="1.09596" ry="1.10714" transform="rotate(-90 28.7306 1.09606)" fill="#D9E4FC"/>
<ellipse cx="32.3538" cy="29.904" rx="1.09596" ry="1.10714" transform="rotate(-90 32.3538 29.904)" fill="#D9E4FC"/>
<ellipse cx="32.3538" cy="26.303" rx="1.09596" ry="1.10714" transform="rotate(-90 32.3538 26.303)" fill="#D9E4FC"/>
<ellipse cx="32.3538" cy="22.702" rx="1.09596" ry="1.10714" transform="rotate(-90 32.3538 22.702)" fill="#D9E4FC"/>
<ellipse cx="32.3538" cy="19.101" rx="1.09596" ry="1.10714" transform="rotate(-90 32.3538 19.101)" fill="#D9E4FC"/>
<ellipse cx="32.3538" cy="15.5" rx="1.09596" ry="1.10714" transform="rotate(-90 32.3538 15.5)" fill="#D9E4FC"/>
<ellipse cx="32.3538" cy="11.899" rx="1.09596" ry="1.10714" transform="rotate(-90 32.3538 11.899)" fill="#D9E4FC"/>
<ellipse cx="32.3538" cy="8.29799" rx="1.09596" ry="1.10714" transform="rotate(-90 32.3538 8.29799)" fill="#D9E4FC"/>
<ellipse cx="32.3538" cy="4.69692" rx="1.09596" ry="1.10714" transform="rotate(-90 32.3538 4.69692)" fill="#D9E4FC"/>
<ellipse cx="32.3538" cy="1.09606" rx="1.09596" ry="1.10714" transform="rotate(-90 32.3538 1.09606)" fill="#D9E4FC"/>
<ellipse cx="35.9773" cy="29.904" rx="1.09596" ry="1.10714" transform="rotate(-90 35.9773 29.904)" fill="#D9E4FC"/>
<ellipse cx="35.9773" cy="26.303" rx="1.09596" ry="1.10714" transform="rotate(-90 35.9773 26.303)" fill="#D9E4FC"/>
<ellipse cx="35.9773" cy="22.702" rx="1.09596" ry="1.10714" transform="rotate(-90 35.9773 22.702)" fill="#D9E4FC"/>
<ellipse cx="35.9773" cy="19.101" rx="1.09596" ry="1.10714" transform="rotate(-90 35.9773 19.101)" fill="#D9E4FC"/>
<ellipse cx="35.9773" cy="15.5" rx="1.09596" ry="1.10714" transform="rotate(-90 35.9773 15.5)" fill="#D9E4FC"/>
<ellipse cx="35.9773" cy="11.899" rx="1.09596" ry="1.10714" transform="rotate(-90 35.9773 11.899)" fill="#D9E4FC"/>
<ellipse cx="35.9773" cy="8.29799" rx="1.09596" ry="1.10714" transform="rotate(-90 35.9773 8.29799)" fill="#D9E4FC"/>
<ellipse cx="35.9773" cy="4.69692" rx="1.09596" ry="1.10714" transform="rotate(-90 35.9773 4.69692)" fill="#D9E4FC"/>
<ellipse cx="35.9773" cy="1.09606" rx="1.09596" ry="1.10714" transform="rotate(-90 35.9773 1.09606)" fill="#D9E4FC"/>
<ellipse cx="39.6007" cy="29.904" rx="1.09596" ry="1.10714" transform="rotate(-90 39.6007 29.904)" fill="#D9E4FC"/>
<ellipse cx="39.6007" cy="26.303" rx="1.09596" ry="1.10714" transform="rotate(-90 39.6007 26.303)" fill="#D9E4FC"/>
<ellipse cx="39.6007" cy="22.702" rx="1.09596" ry="1.10714" transform="rotate(-90 39.6007 22.702)" fill="#D9E4FC"/>
<ellipse cx="39.6007" cy="19.101" rx="1.09596" ry="1.10714" transform="rotate(-90 39.6007 19.101)" fill="#D9E4FC"/>
<ellipse cx="39.6007" cy="15.5" rx="1.09596" ry="1.10714" transform="rotate(-90 39.6007 15.5)" fill="#D9E4FC"/>
<ellipse cx="39.6007" cy="11.899" rx="1.09596" ry="1.10714" transform="rotate(-90 39.6007 11.899)" fill="#D9E4FC"/>
<ellipse cx="39.6007" cy="8.29799" rx="1.09596" ry="1.10714" transform="rotate(-90 39.6007 8.29799)" fill="#D9E4FC"/>
<ellipse cx="39.6007" cy="4.69692" rx="1.09596" ry="1.10714" transform="rotate(-90 39.6007 4.69692)" fill="#D9E4FC"/>
<ellipse cx="39.6007" cy="1.09606" rx="1.09596" ry="1.10714" transform="rotate(-90 39.6007 1.09606)" fill="#D9E4FC"/>
<ellipse cx="43.2241" cy="29.904" rx="1.09596" ry="1.10714" transform="rotate(-90 43.2241 29.904)" fill="#D9E4FC"/>
<ellipse cx="43.2241" cy="26.303" rx="1.09596" ry="1.10714" transform="rotate(-90 43.2241 26.303)" fill="#D9E4FC"/>
<ellipse cx="43.2241" cy="22.702" rx="1.09596" ry="1.10714" transform="rotate(-90 43.2241 22.702)" fill="#D9E4FC"/>
<ellipse cx="43.2241" cy="19.101" rx="1.09596" ry="1.10714" transform="rotate(-90 43.2241 19.101)" fill="#D9E4FC"/>
<ellipse cx="43.2241" cy="15.5" rx="1.09596" ry="1.10714" transform="rotate(-90 43.2241 15.5)" fill="#D9E4FC"/>
<ellipse cx="43.2241" cy="11.899" rx="1.09596" ry="1.10714" transform="rotate(-90 43.2241 11.899)" fill="#D9E4FC"/>
<ellipse cx="43.2241" cy="8.29799" rx="1.09596" ry="1.10714" transform="rotate(-90 43.2241 8.29799)" fill="#D9E4FC"/>
<ellipse cx="43.2241" cy="4.69692" rx="1.09596" ry="1.10714" transform="rotate(-90 43.2241 4.69692)" fill="#D9E4FC"/>
<ellipse cx="43.2241" cy="1.09606" rx="1.09596" ry="1.10714" transform="rotate(-90 43.2241 1.09606)" fill="#D9E4FC"/>
<ellipse cx="46.8474" cy="29.904" rx="1.09596" ry="1.10714" transform="rotate(-90 46.8474 29.904)" fill="#D9E4FC"/>
<ellipse cx="46.8474" cy="26.303" rx="1.09596" ry="1.10714" transform="rotate(-90 46.8474 26.303)" fill="#D9E4FC"/>
<ellipse cx="46.8474" cy="22.702" rx="1.09596" ry="1.10714" transform="rotate(-90 46.8474 22.702)" fill="#D9E4FC"/>
<ellipse cx="46.8474" cy="19.101" rx="1.09596" ry="1.10714" transform="rotate(-90 46.8474 19.101)" fill="#D9E4FC"/>
<ellipse cx="46.8474" cy="15.5" rx="1.09596" ry="1.10714" transform="rotate(-90 46.8474 15.5)" fill="#D9E4FC"/>
<ellipse cx="46.8474" cy="11.899" rx="1.09596" ry="1.10714" transform="rotate(-90 46.8474 11.899)" fill="#D9E4FC"/>
<ellipse cx="46.8474" cy="8.29799" rx="1.09596" ry="1.10714" transform="rotate(-90 46.8474 8.29799)" fill="#D9E4FC"/>
<ellipse cx="46.8474" cy="4.69692" rx="1.09596" ry="1.10714" transform="rotate(-90 46.8474 4.69692)" fill="#D9E4FC"/>
<ellipse cx="46.8474" cy="1.09606" rx="1.09596" ry="1.10714" transform="rotate(-90 46.8474 1.09606)" fill="#D9E4FC"/>
<rect x="0.25" y="22.25" width="39.5" height="28.5" stroke="#16215D" stroke-width="0.5"/>
<path d="M43.3333 15H7.55556C6.87778 15 6.22776 15.2692 5.7485 15.7485C5.26925 16.2278 5 16.8778 5 17.5556V43.1111C5 43.7889 5.26925 44.4389 5.7485 44.9182C6.22776 45.3974 6.87778 45.6667 7.55556 45.6667H43.3333C44.0111 45.6667 44.6611 45.3974 45.1404 44.9182C45.6196 44.4389 45.8889 43.7889 45.8889 43.1111V17.5556C45.8889 16.8778 45.6196 16.2278 45.1404 15.7485C44.6611 15.2692 44.0111 15 43.3333 15ZM41.3656 43.1111H9.67667L18.6211 33.86L16.7811 32.0839L7.55556 41.6289V19.4978L23.4383 35.3039C23.9171 35.7799 24.5649 36.047 25.24 36.047C25.9151 36.047 26.5628 35.7799 27.0417 35.3039L43.3333 19.1017V41.4628L33.9289 32.0583L32.1272 33.86L41.3656 43.1111ZM9.22944 17.5556H41.2633L25.24 33.4894L9.22944 17.5556Z" fill="#3362CC"/>
</svg>
