<svg width="86" height="86" viewBox="0 0 86 86" fill="none" xmlns="http://www.w3.org/2000/svg">
<rect x="1" y="1" width="84" height="84" rx="42" fill="white"/>
<rect x="1" y="1" width="84" height="84" rx="42" stroke="#54BAEB" stroke-width="2"/>
<rect opacity="0.5" x="16.25" y="43.25" width="34.5" height="24.5" stroke="#16215D" stroke-width="0.5"/>
<ellipse cx="34.096" cy="26.1071" rx="1.09596" ry="1.10714" fill="#D9E4FC"/>
<ellipse cx="37.6969" cy="26.1071" rx="1.09596" ry="1.10714" fill="#D9E4FC"/>
<ellipse cx="41.298" cy="26.1071" rx="1.09596" ry="1.10714" fill="#D9E4FC"/>
<ellipse cx="44.8989" cy="26.1071" rx="1.09596" ry="1.10714" fill="#D9E4FC"/>
<ellipse cx="48.5" cy="26.1071" rx="1.09596" ry="1.10714" fill="#D9E4FC"/>
<ellipse cx="52.101" cy="26.1071" rx="1.09596" ry="1.10714" fill="#D9E4FC"/>
<ellipse cx="55.702" cy="26.1071" rx="1.09596" ry="1.10714" fill="#D9E4FC"/>
<ellipse cx="59.3031" cy="26.1071" rx="1.09596" ry="1.10714" fill="#D9E4FC"/>
<ellipse cx="62.9041" cy="26.1071" rx="1.09596" ry="1.10714" fill="#D9E4FC"/>
<ellipse cx="34.096" cy="29.7305" rx="1.09596" ry="1.10714" fill="#D9E4FC"/>
<ellipse cx="37.6969" cy="29.7305" rx="1.09596" ry="1.10714" fill="#D9E4FC"/>
<ellipse cx="41.298" cy="29.7305" rx="1.09596" ry="1.10714" fill="#D9E4FC"/>
<ellipse cx="44.8989" cy="29.7305" rx="1.09596" ry="1.10714" fill="#D9E4FC"/>
<ellipse cx="48.5" cy="29.7305" rx="1.09596" ry="1.10714" fill="#D9E4FC"/>
<ellipse cx="52.101" cy="29.7305" rx="1.09596" ry="1.10714" fill="#D9E4FC"/>
<ellipse cx="55.702" cy="29.7305" rx="1.09596" ry="1.10714" fill="#D9E4FC"/>
<ellipse cx="59.3031" cy="29.7305" rx="1.09596" ry="1.10714" fill="#D9E4FC"/>
<ellipse cx="62.9041" cy="29.7305" rx="1.09596" ry="1.10714" fill="#D9E4FC"/>
<ellipse cx="34.096" cy="33.3539" rx="1.09596" ry="1.10714" fill="#D9E4FC"/>
<ellipse cx="37.6969" cy="33.3539" rx="1.09596" ry="1.10714" fill="#D9E4FC"/>
<ellipse cx="41.298" cy="33.3539" rx="1.09596" ry="1.10714" fill="#D9E4FC"/>
<ellipse cx="44.8989" cy="33.3539" rx="1.09596" ry="1.10714" fill="#D9E4FC"/>
<ellipse cx="48.5" cy="33.3539" rx="1.09596" ry="1.10714" fill="#D9E4FC"/>
<ellipse cx="52.101" cy="33.3539" rx="1.09596" ry="1.10714" fill="#D9E4FC"/>
<ellipse cx="55.702" cy="33.3539" rx="1.09596" ry="1.10714" fill="#D9E4FC"/>
<ellipse cx="59.3031" cy="33.3539" rx="1.09596" ry="1.10714" fill="#D9E4FC"/>
<ellipse cx="62.9041" cy="33.3539" rx="1.09596" ry="1.10714" fill="#D9E4FC"/>
<ellipse cx="34.096" cy="36.9772" rx="1.09596" ry="1.10714" fill="#D9E4FC"/>
<ellipse cx="37.6969" cy="36.9772" rx="1.09596" ry="1.10714" fill="#D9E4FC"/>
<ellipse cx="41.298" cy="36.9772" rx="1.09596" ry="1.10714" fill="#D9E4FC"/>
<ellipse cx="44.8989" cy="36.9772" rx="1.09596" ry="1.10714" fill="#D9E4FC"/>
<ellipse cx="48.5" cy="36.9772" rx="1.09596" ry="1.10714" fill="#D9E4FC"/>
<ellipse cx="52.101" cy="36.9772" rx="1.09596" ry="1.10714" fill="#D9E4FC"/>
<ellipse cx="55.702" cy="36.9772" rx="1.09596" ry="1.10714" fill="#D9E4FC"/>
<ellipse cx="59.3031" cy="36.9772" rx="1.09596" ry="1.10714" fill="#D9E4FC"/>
<ellipse cx="62.9041" cy="36.9772" rx="1.09596" ry="1.10714" fill="#D9E4FC"/>
<ellipse cx="34.096" cy="40.6006" rx="1.09596" ry="1.10714" fill="#D9E4FC"/>
<ellipse cx="37.6969" cy="40.6006" rx="1.09596" ry="1.10714" fill="#D9E4FC"/>
<ellipse cx="41.298" cy="40.6006" rx="1.09596" ry="1.10714" fill="#D9E4FC"/>
<ellipse cx="44.8989" cy="40.6006" rx="1.09596" ry="1.10714" fill="#D9E4FC"/>
<ellipse cx="48.5" cy="40.6006" rx="1.09596" ry="1.10714" fill="#D9E4FC"/>
<ellipse cx="52.101" cy="40.6006" rx="1.09596" ry="1.10714" fill="#D9E4FC"/>
<ellipse cx="55.702" cy="40.6006" rx="1.09596" ry="1.10714" fill="#D9E4FC"/>
<ellipse cx="59.3031" cy="40.6006" rx="1.09596" ry="1.10714" fill="#D9E4FC"/>
<ellipse cx="62.9041" cy="40.6006" rx="1.09596" ry="1.10714" fill="#D9E4FC"/>
<ellipse cx="34.096" cy="44.224" rx="1.09596" ry="1.10714" fill="#D9E4FC"/>
<ellipse cx="37.6969" cy="44.224" rx="1.09596" ry="1.10714" fill="#D9E4FC"/>
<ellipse cx="41.298" cy="44.224" rx="1.09596" ry="1.10714" fill="#D9E4FC"/>
<ellipse cx="44.8989" cy="44.224" rx="1.09596" ry="1.10714" fill="#D9E4FC"/>
<ellipse cx="48.5" cy="44.224" rx="1.09596" ry="1.10714" fill="#D9E4FC"/>
<ellipse cx="52.101" cy="44.224" rx="1.09596" ry="1.10714" fill="#D9E4FC"/>
<ellipse cx="55.702" cy="44.224" rx="1.09596" ry="1.10714" fill="#D9E4FC"/>
<ellipse cx="59.3031" cy="44.224" rx="1.09596" ry="1.10714" fill="#D9E4FC"/>
<ellipse cx="62.9041" cy="44.224" rx="1.09596" ry="1.10714" fill="#D9E4FC"/>
<ellipse cx="34.096" cy="47.8474" rx="1.09596" ry="1.10714" fill="#D9E4FC"/>
<ellipse cx="37.6969" cy="47.8474" rx="1.09596" ry="1.10714" fill="#D9E4FC"/>
<ellipse cx="41.298" cy="47.8474" rx="1.09596" ry="1.10714" fill="#D9E4FC"/>
<ellipse cx="44.8989" cy="47.8474" rx="1.09596" ry="1.10714" fill="#D9E4FC"/>
<ellipse cx="48.5" cy="47.8474" rx="1.09596" ry="1.10714" fill="#D9E4FC"/>
<ellipse cx="52.101" cy="47.8474" rx="1.09596" ry="1.10714" fill="#D9E4FC"/>
<ellipse cx="55.702" cy="47.8474" rx="1.09596" ry="1.10714" fill="#D9E4FC"/>
<ellipse cx="59.3031" cy="47.8474" rx="1.09596" ry="1.10714" fill="#D9E4FC"/>
<ellipse cx="62.9041" cy="47.8474" rx="1.09596" ry="1.10714" fill="#D9E4FC"/>
<path d="M55.1389 64.1721C54.7092 64.1709 54.2808 64.1238 53.8611 64.0316C45.8707 62.3787 38.5094 58.5031 32.6244 52.851C26.8651 47.1865 22.8706 39.9743 21.1244 32.0871C20.9185 31.1042 20.9691 30.0847 21.2712 29.1269C21.5733 28.1691 22.1168 27.3052 22.8494 26.6183L27.9605 21.6988C28.2216 21.4519 28.5318 21.2629 28.8709 21.144C29.2099 21.0251 29.5702 20.979 29.9283 21.0088C30.2996 21.0475 30.6579 21.1671 30.978 21.3592C31.2981 21.5513 31.5722 21.8111 31.7811 22.1205L38.17 31.5633C38.4096 31.9296 38.5252 32.3633 38.4999 32.8003C38.4746 33.2374 38.3097 33.6547 38.0294 33.991L34.8222 37.8244C36.0995 40.6514 37.9085 43.2065 40.1505 45.3505C42.3781 47.5723 45.011 49.3463 47.9067 50.5766L51.8805 47.4205C52.2143 47.1567 52.6204 47.0008 53.045 46.9734C53.4695 46.946 53.8923 47.0484 54.2572 47.2671L63.9044 53.5027C64.2355 53.7004 64.5175 53.9704 64.7294 54.2925C64.9413 54.6147 65.0776 54.9806 65.128 55.3629C65.1784 55.7452 65.1416 56.1339 65.0204 56.4999C64.8993 56.866 64.6968 57.1999 64.4283 57.4766L59.445 62.4088C58.8789 62.9721 58.2071 63.4179 57.468 63.7205C56.729 64.0231 55.9374 64.1766 55.1389 64.1721ZM29.7239 23.5388L24.6128 28.4583C24.2006 28.8423 23.8955 29.327 23.7275 29.8647C23.5595 30.4024 23.5343 30.9745 23.6544 31.5249C25.2781 38.926 29.0105 45.6984 34.4005 51.0238C39.9387 56.3413 46.8661 59.9866 54.385 61.5399C54.9541 61.6589 55.5439 61.6348 56.1014 61.4698C56.6589 61.3048 57.1668 61.004 57.5794 60.5944L62.5628 55.6621L53.2478 49.6438L48.98 53.0427C48.8166 53.172 48.6241 53.2594 48.4192 53.2973C48.2143 53.3351 48.0032 53.3223 47.8044 53.2599C44.2608 51.9543 41.0494 49.8817 38.4 47.1905C35.6596 44.6314 33.5324 41.4865 32.1772 37.9905C32.1199 37.7788 32.118 37.556 32.1717 37.3434C32.2254 37.1308 32.3329 36.9356 32.4839 36.7766L35.9339 32.6494L29.7239 23.5388Z" fill="#3362CC"/>
</svg>
