<svg width="702" height="523" viewBox="0 0 702 523" fill="none" xmlns="http://www.w3.org/2000/svg">
<path d="M198.638 144.76C90.6856 207.763 84.2281 420.48 237.776 416.409C306.436 414.585 326.496 342.584 388.46 317.315C446.633 293.577 496.791 341.18 555.512 287.274C624.706 223.822 634.644 68.6318 531.802 58.2577C487.021 53.7375 469.754 98.4485 430.63 108.345C351.315 128.42 278.851 97.9712 198.638 144.76Z" fill="#407BFF"/>
<path opacity="0.9" d="M198.638 144.76C90.6856 207.763 84.2281 420.48 237.776 416.409C306.436 414.585 326.496 342.584 388.46 317.315C446.633 293.577 496.791 341.18 555.512 287.274C624.706 223.822 634.644 68.6318 531.802 58.2577C487.021 53.7375 469.754 98.4485 430.63 108.345C351.315 128.42 278.851 97.9712 198.638 144.76Z" fill="white"/>
<path d="M701.9 459.604H0V459.955H701.9V459.604Z" fill="#E0E0E0"/>
<path d="M530.159 474.471H481.869V474.822H530.159V474.471Z" fill="#E0E0E0"/>
<path d="M155.878 474.639H128.701V474.99H155.878V474.639Z" fill="#E0E0E0"/>
<path d="M352.354 473.825H297.269V474.176H352.354V473.825Z" fill="#E0E0E0"/>
<path d="M295.865 468.827H271.242V469.178H295.865V468.827Z" fill="#E0E0E0"/>
<path d="M595.998 469.01H521.61V469.361H595.998V469.01Z" fill="#E0E0E0"/>
<path d="M332.701 396.995H61.6408C59.5174 396.991 57.4821 396.145 55.9819 394.642C54.4817 393.139 53.6392 391.103 53.6392 388.979V7.94551C53.6576 5.83423 54.5084 3.8155 56.0066 2.32781C57.5048 0.840116 59.5295 0.00361674 61.6408 0H332.701C334.827 0 336.866 0.844509 338.369 2.34775C339.872 3.85098 340.716 5.8898 340.716 8.0157V388.979C340.716 391.105 339.872 393.144 338.369 394.647C336.866 396.15 334.827 396.995 332.701 396.995ZM61.6408 0.280761C59.6104 0.28448 57.6645 1.09365 56.2301 2.53067C54.7957 3.96769 53.9901 5.91512 53.9901 7.94551V388.979C53.9901 391.01 54.7957 392.957 56.2301 394.394C57.6645 395.831 59.6104 396.64 61.6408 396.644H332.701C334.732 396.64 336.68 395.831 338.116 394.395C339.553 392.958 340.362 391.011 340.366 388.979V7.94551C340.362 5.91383 339.553 3.96643 338.116 2.52981C336.68 1.0932 334.732 0.284472 332.701 0.280761H61.6408Z" fill="#E0E0E0"/>
<path d="M636.357 396.995H365.283C363.158 396.991 361.121 396.145 359.619 394.643C358.117 393.141 357.271 391.104 357.267 388.979V7.94551C357.289 5.83295 358.143 3.81423 359.644 2.32693C361.144 0.839625 363.17 0.00357729 365.283 0H636.357C638.466 0.00730608 640.487 0.845438 641.982 2.33274C643.477 3.82003 644.326 5.83666 644.344 7.94551V388.979C644.344 391.1 643.504 393.135 642.007 394.637C640.509 396.14 638.478 396.987 636.357 396.995ZM365.283 0.280761C363.251 0.284472 361.304 1.0932 359.867 2.52981C358.43 3.96643 357.622 5.91383 357.618 7.94551V388.979C357.622 391.011 358.43 392.958 359.867 394.395C361.304 395.831 363.251 396.64 365.283 396.644H636.357C638.388 396.64 640.336 395.831 641.772 394.395C643.209 392.958 644.018 391.011 644.021 388.979V7.94551C644.018 5.91383 643.209 3.96643 641.772 2.52981C640.336 1.0932 638.388 0.284472 636.357 0.280761H365.283Z" fill="#E0E0E0"/>
<path d="M616.704 283.891C599.437 257.598 615.202 229.339 612.577 200.084C609.952 170.829 582.157 164.455 587.421 139.72C593.513 110.97 577.271 83.3858 558.867 83.3858C540.464 83.3858 524.236 110.9 530.328 139.678C535.592 164.455 507.867 170.843 505.172 200.042C502.477 229.241 518.312 257.598 501.031 283.849C483.75 310.1 488.298 344.956 498.027 362.237C500.615 366.822 503.734 371.086 507.32 374.941C513.913 382.019 521.893 387.664 530.763 391.523C539.632 395.382 549.202 397.374 558.874 397.374C568.547 397.374 578.117 395.382 586.986 391.523C595.856 387.664 603.836 382.019 610.429 374.941C614.006 371.082 617.12 366.819 619.708 362.237C629.451 344.998 633.985 310.24 616.704 283.891Z" fill="#E0E0E0"/>
<path d="M558.867 303.839C560.014 303.839 561.149 304.065 562.209 304.503C563.268 304.942 564.231 305.585 565.041 306.396C565.852 307.207 566.495 308.17 566.934 309.229C567.373 310.288 567.599 311.424 567.599 312.57V459.604H550.136V312.57C550.136 311.424 550.361 310.288 550.8 309.229C551.239 308.17 551.882 307.207 552.693 306.396C553.504 305.585 554.466 304.942 555.526 304.503C556.585 304.065 557.721 303.839 558.867 303.839Z" fill="#F0F0F0"/>
<path d="M449.09 459.604H425.352V312.584C425.359 309.433 426.614 306.413 428.842 304.185C431.071 301.957 434.091 300.702 437.242 300.694C440.393 300.702 443.413 301.957 445.641 304.185C447.869 306.413 449.125 309.433 449.132 312.584L449.09 459.604Z" fill="#E0E0E0"/>
<path d="M437.2 419.947C477.647 419.947 510.436 387.158 510.436 346.711C510.436 306.263 477.647 273.474 437.2 273.474C396.752 273.474 363.963 306.263 363.963 346.711C363.963 387.158 396.752 419.947 437.2 419.947Z" fill="#F0F0F0"/>
<path d="M523.258 324.735C527.101 309.265 517.675 293.608 502.205 289.766C486.735 285.923 471.079 295.349 467.236 310.819C463.393 326.289 472.819 341.945 488.289 345.788C503.759 349.63 519.415 340.205 523.258 324.735Z" fill="#F0F0F0"/>
<path d="M394.821 303.431C396.337 294.118 390.017 285.339 380.705 283.822C371.392 282.306 362.613 288.626 361.096 297.938C359.58 307.251 365.9 316.03 375.212 317.547C384.525 319.063 393.304 312.743 394.821 303.431Z" fill="#F0F0F0"/>
<path d="M396.546 303.839C403.167 303.839 408.534 298.471 408.534 291.85C408.534 285.229 403.167 279.862 396.546 279.862C389.925 279.862 384.557 285.229 384.557 291.85C384.557 298.471 389.925 303.839 396.546 303.839Z" fill="#F0F0F0"/>
<path d="M286.375 371.853C274.987 373.549 264.104 377.702 254.481 384.024C254.397 372.906 252.361 362.363 247.139 353.842C239.194 361.577 232.75 371.6 227.486 382.381C225.563 362.181 220.242 342.527 208.464 330.076C190.819 341.18 181.722 359.682 177.398 379.279C170.255 366.065 159.887 354.872 147.259 346.739C136.463 358.11 133.01 373.832 133.305 389.948C121.036 375.657 107.419 364.511 94.1388 363.205C90.868 385.793 97.8308 407.102 106.689 423.948C112.44 434.756 121.031 443.79 131.537 450.076C142.043 456.361 154.065 459.661 166.308 459.618H223.99C248.571 459.618 271.621 446.507 283.147 424.79C290.432 411.033 293.914 393.331 286.375 371.853Z" fill="#E0E0E0"/>
<path d="M269.895 80.2132C277.012 59.3387 271.299 44.4725 253.934 44.4725C243.012 44.4725 229.465 50.3263 216.27 59.8441C214.782 54.4114 210.584 51.1686 203.832 51.1686C191.942 51.1686 175.559 61.2198 162.715 75.3982C159.098 71.9623 154.311 70.0302 149.322 69.9936C137.938 69.3478 124.166 75.1315 112.192 84.5229C111.592 83.6831 110.8 82.999 109.881 82.5277C108.963 82.0564 107.946 81.8116 106.914 81.8136C100.358 81.4486 91.4718 87.2884 87.0779 94.8409C86.8112 95.3041 86.5725 95.7674 86.3198 96.2447H273.348C273.91 89.6468 272.745 84.1439 269.895 80.2132Z" fill="#F0F0F0"/>
<path d="M270.47 206.962C273.952 196.771 271.186 189.513 262.679 189.513C257.331 189.513 250.719 192.321 244.275 197.023C243.928 195.713 243.126 194.57 242.012 193.798C240.898 193.026 239.545 192.677 238.197 192.812C232.399 192.812 224.397 197.725 218.108 204.66C216.345 202.976 214.004 202.032 211.567 202.021C205.951 201.698 199.283 204.52 193.429 209.11C193.146 208.704 192.77 208.371 192.334 208.137C191.897 207.903 191.412 207.774 190.917 207.763C187.716 207.58 183.378 210.43 181.23 214.122L180.851 214.796H272.211C272.593 212.06 271.975 209.279 270.47 206.962Z" fill="#F0F0F0"/>
<path d="M481.181 129.838C480.46 129.736 479.733 129.685 479.005 129.683C479.679 119.506 475.791 112.992 467.466 112.992C461.472 112.992 454.102 116.389 446.606 122.131C448.753 102.365 441.875 89.5205 426.293 89.5205C413.743 89.5205 397.837 97.9433 382.129 111.504C380.725 103.755 376.121 99.0944 368.344 99.0944C354.685 99.0944 335.27 113.469 319.702 133.74C317.928 131.403 315.653 129.492 313.044 128.149C310.435 126.806 307.558 126.064 304.625 125.977C291.626 125.065 275.468 133.319 261.107 146.768C260.585 145.633 259.753 144.67 258.708 143.987C257.662 143.304 256.446 142.93 255.197 142.907C248.08 142.402 238.352 149.828 232.582 159.753H492.622C498.729 144.704 493.871 131.536 481.181 129.838Z" fill="#F0F0F0"/>
<path d="M350.95 523C501.273 523 623.133 515.885 623.133 507.109C623.133 498.333 501.273 491.218 350.95 491.218C200.628 491.218 78.7671 498.333 78.7671 507.109C78.7671 515.885 200.628 523 350.95 523Z" fill="#F5F5F5"/>
<path d="M68.5898 134.147L388.614 180.22L431.557 223.555L68.5898 134.147Z" fill="#407BFF"/>
<path opacity="0.6" d="M68.5898 134.147L388.614 180.22L431.557 223.555L68.5898 134.147Z" fill="white"/>
<path d="M68.5898 134.147L388.614 180.22L373.762 242.885L68.5898 134.147Z" fill="#407BFF"/>
<path opacity="0.2" d="M68.5898 134.147L388.614 180.22L373.762 242.885L68.5898 134.147Z" fill="black"/>
<path d="M367.192 61.5987L385.764 148.634C386.248 150.907 385.81 153.279 384.546 155.229C383.283 157.179 381.298 158.548 379.026 159.037L213.265 194.412C210.993 194.892 208.623 194.452 206.674 193.189C204.725 191.927 203.355 189.944 202.863 187.674L184.277 100.638C183.798 98.3641 184.24 95.9926 185.505 94.0431C186.771 92.0935 188.757 90.7247 191.029 90.2363L356.79 54.8605C359.064 54.3816 361.436 54.8232 363.385 56.0887C365.335 57.3542 366.704 59.3404 367.192 61.6127V61.5987Z" fill="#407BFF"/>
<path opacity="0.2" d="M367.192 61.5987L385.764 148.634C386.248 150.907 385.81 153.279 384.546 155.229C383.283 157.179 381.298 158.548 379.026 159.037L213.265 194.412C210.993 194.892 208.623 194.452 206.674 193.189C204.725 191.927 203.355 189.944 202.863 187.674L184.277 100.638C183.798 98.3641 184.24 95.9926 185.505 94.0431C186.771 92.0935 188.757 90.7247 191.029 90.2363L356.79 54.8605C359.064 54.3816 361.436 54.8232 363.385 56.0887C365.335 57.3542 366.704 59.3404 367.192 61.6127V61.5987Z" fill="white"/>
<path d="M363.108 55.8993L307.728 123.885C302.592 130.189 295.458 134.55 287.506 136.247C279.554 137.945 271.261 136.877 263.999 133.221L185.681 93.7738C186.948 91.9537 188.86 90.6839 191.03 90.2222L356.79 54.8464C358.954 54.386 361.211 54.7622 363.108 55.8993Z" fill="#407BFF"/>
<path d="M68.5898 134.147L332.547 196.883L373.762 242.885L68.5898 134.147Z" fill="#407BFF"/>
<path opacity="0.6" d="M68.5898 134.147L332.547 196.883L373.762 242.885L68.5898 134.147Z" fill="white"/>
<path d="M164.875 194.616L164.166 195.827L193.539 213.033L194.249 211.822L164.875 194.616Z" fill="#407BFF"/>
<path d="M207.218 219.408L206.508 220.619L217.071 226.806L217.78 225.595L207.218 219.408Z" fill="#407BFF"/>
<path d="M68.5898 134.147L332.547 196.883L281.238 258.72L68.5898 134.147Z" fill="#407BFF"/>
<path d="M421.646 281.125C421.29 281.126 420.938 281.059 420.607 280.929L377.623 263.915C376.935 263.638 376.385 263.1 376.092 262.418C375.8 261.737 375.788 260.968 376.061 260.278C376.333 259.589 376.867 259.035 377.547 258.738C378.226 258.441 378.995 258.424 379.686 258.692L422.685 275.706C423.293 275.947 423.798 276.392 424.113 276.965C424.428 277.539 424.533 278.204 424.41 278.846C424.287 279.489 423.944 280.068 423.439 280.484C422.934 280.9 422.3 281.127 421.646 281.125Z" fill="#407BFF"/>
<path opacity="0.3" d="M421.646 281.125C421.29 281.126 420.938 281.059 420.607 280.929L377.623 263.915C376.935 263.638 376.385 263.1 376.092 262.418C375.8 261.737 375.788 260.968 376.061 260.278C376.333 259.589 376.867 259.035 377.547 258.738C378.226 258.441 378.995 258.424 379.686 258.692L422.685 275.706C423.293 275.947 423.798 276.392 424.113 276.965C424.428 277.539 424.533 278.204 424.41 278.846C424.287 279.489 423.944 280.068 423.439 280.484C422.934 280.9 422.3 281.127 421.646 281.125Z" fill="black"/>
<path d="M419.105 256.474C418.753 256.472 418.404 256.401 418.08 256.264L394.987 247.069C394.642 246.935 394.327 246.734 394.059 246.478C393.792 246.222 393.578 245.915 393.43 245.576C393.281 245.237 393.201 244.872 393.195 244.502C393.188 244.131 393.255 243.763 393.391 243.419C393.527 243.075 393.73 242.761 393.988 242.495C394.246 242.229 394.554 242.017 394.894 241.871C395.234 241.725 395.6 241.648 395.97 241.643C396.34 241.639 396.708 241.708 397.051 241.847L420.144 250.999C420.836 251.272 421.391 251.808 421.689 252.489C421.986 253.171 422.001 253.943 421.73 254.635C421.532 255.173 421.175 255.637 420.705 255.966C420.236 256.295 419.678 256.472 419.105 256.474Z" fill="#407BFF"/>
<path opacity="0.5" d="M419.105 256.474C418.753 256.472 418.404 256.401 418.08 256.264L394.987 247.069C394.642 246.935 394.327 246.734 394.059 246.478C393.792 246.222 393.578 245.915 393.43 245.576C393.281 245.237 393.201 244.872 393.195 244.502C393.188 244.131 393.255 243.763 393.391 243.419C393.527 243.075 393.73 242.761 393.988 242.495C394.246 242.229 394.554 242.017 394.894 241.871C395.234 241.725 395.6 241.648 395.97 241.643C396.34 241.639 396.708 241.708 397.051 241.847L420.144 250.999C420.836 251.272 421.391 251.808 421.689 252.489C421.986 253.171 422.001 253.943 421.73 254.635C421.532 255.173 421.175 255.637 420.705 255.966C420.236 256.295 419.678 256.472 419.105 256.474Z" fill="white"/>
<path d="M370.828 280.76C370.478 280.756 370.131 280.689 369.804 280.563L327.872 263.914C327.527 263.78 327.212 263.58 326.944 263.324C326.677 263.067 326.463 262.761 326.314 262.422C326.166 262.082 326.086 261.717 326.08 261.347C326.073 260.977 326.14 260.609 326.276 260.265C326.412 259.92 326.614 259.606 326.872 259.341C327.13 259.075 327.438 258.863 327.778 258.717C328.119 258.571 328.484 258.493 328.855 258.489C329.225 258.485 329.592 258.554 329.936 258.692L371.867 275.285C372.476 275.525 372.981 275.971 373.296 276.544C373.611 277.117 373.716 277.782 373.593 278.425C373.47 279.067 373.126 279.646 372.621 280.062C372.117 280.479 371.483 280.705 370.828 280.704V280.76Z" fill="#407BFF"/>
<path opacity="0.3" d="M370.828 280.76C370.478 280.756 370.131 280.689 369.804 280.563L327.872 263.914C327.527 263.78 327.212 263.58 326.944 263.324C326.677 263.067 326.463 262.761 326.314 262.422C326.166 262.082 326.086 261.717 326.08 261.347C326.073 260.977 326.14 260.609 326.276 260.265C326.412 259.92 326.614 259.606 326.872 259.341C327.13 259.075 327.438 258.863 327.778 258.717C328.119 258.571 328.484 258.493 328.855 258.489C329.225 258.485 329.592 258.554 329.936 258.692L371.867 275.285C372.476 275.525 372.981 275.971 373.296 276.544C373.611 277.117 373.716 277.782 373.593 278.425C373.47 279.067 373.126 279.646 372.621 280.062C372.117 280.479 371.483 280.705 370.828 280.704V280.76Z" fill="black"/>
<path d="M522.635 154.165C526.355 161.423 529.766 168.695 533.009 176.135C536.252 183.575 539.27 191.113 541.909 199.017L542.864 202.007C543.032 202.54 543.271 203.411 543.411 204.028C543.552 204.646 543.678 205.348 543.748 205.937C544.07 208.202 544.234 210.487 544.24 212.774C544.261 216.993 544.064 221.21 543.65 225.408C542.866 233.536 541.591 241.608 539.832 249.582L532.125 248.725C532.027 240.822 531.956 232.834 531.676 225.043C531.549 221.169 531.325 217.28 530.932 213.63C530.754 211.916 530.472 210.215 530.089 208.535C530.019 208.141 529.907 207.847 529.823 207.524C529.738 207.201 529.654 207.089 529.514 206.667L528.447 204.014C525.513 196.911 522.214 189.752 518.845 182.62L508.653 161.226L522.635 154.165Z" fill="#E4897B"/>
<path d="M532.237 246.255L528.643 252.979L540.126 256.18C540.126 256.18 542.316 250.775 539.705 246.507L532.237 246.255Z" fill="#E4897B"/>
<path d="M524.249 262.665L534.806 263.507L540.126 256.179L528.643 252.979L524.249 262.665Z" fill="#E4897B"/>
<path d="M474.302 105.65C474.148 106.478 473.572 107.054 473.039 106.941C472.505 106.829 472.21 106.085 472.379 105.271C472.547 104.457 473.109 103.867 473.642 103.979C474.176 104.092 474.485 104.836 474.302 105.65Z" fill="#263238"/>
<path d="M473.656 107.054C472.174 109.35 470.384 111.433 468.336 113.245C468.814 113.753 469.397 114.152 470.044 114.414C470.691 114.675 471.387 114.794 472.084 114.761L473.656 107.054Z" fill="#DE5753"/>
<path d="M478.204 101.734C478.072 101.73 477.946 101.675 477.853 101.579C477.45 101.118 476.944 100.758 476.376 100.529C475.807 100.299 475.193 100.207 474.583 100.26C474.466 100.261 474.353 100.221 474.264 100.146C474.174 100.072 474.114 99.9682 474.094 99.8536C474.074 99.7391 474.095 99.6211 474.153 99.5206C474.212 99.4201 474.304 99.3437 474.414 99.305C475.195 99.206 475.988 99.3017 476.722 99.5833C477.457 99.865 478.111 100.324 478.625 100.919C478.716 101.011 478.766 101.135 478.766 101.263C478.766 101.392 478.716 101.515 478.625 101.607C478.569 101.659 478.502 101.697 478.429 101.719C478.356 101.74 478.279 101.746 478.204 101.734Z" fill="#263238"/>
<path d="M497.521 117.119C496.047 124.671 494.573 138.485 499.851 143.524C499.851 143.524 497.788 151.175 483.764 151.175C468.322 151.175 476.408 143.524 476.408 143.524C484.831 141.517 484.592 135.27 483.132 129.416L497.521 117.119Z" fill="#E4897B"/>
<path d="M501.971 148.283C503.08 144.591 504.301 140.366 501.775 139.032C498.967 137.628 483.708 136.084 478.443 138.822C473.179 141.559 474.681 149.069 474.681 149.069L501.971 148.283Z" fill="#263238"/>
<path d="M534.343 498.349C533.907 498.407 533.464 498.378 533.039 498.262C532.615 498.146 532.218 497.947 531.872 497.675C531.75 497.506 531.684 497.302 531.684 497.093C531.684 496.884 531.75 496.68 531.872 496.51C531.952 496.365 532.063 496.238 532.196 496.139C532.329 496.04 532.482 495.97 532.644 495.935C534.16 495.598 536.996 497.535 537.122 497.619C537.159 497.65 537.187 497.689 537.204 497.733C537.221 497.777 537.227 497.825 537.22 497.872C537.213 497.917 537.191 497.959 537.158 497.992C537.125 498.025 537.083 498.046 537.038 498.054C536.152 498.246 535.249 498.344 534.343 498.349ZM533.051 496.384H532.756C532.661 496.404 532.572 496.444 532.494 496.502C532.416 496.56 532.353 496.635 532.307 496.721C532.083 497.114 532.223 497.282 532.307 497.338C532.742 497.928 534.848 497.928 536.392 497.675C535.386 497.011 534.245 496.58 533.051 496.412V496.384Z" fill="#407BFF"/>
<path d="M536.982 498.097H536.869C535.803 497.507 533.739 495.289 533.949 494.11C533.985 493.928 534.083 493.764 534.227 493.646C534.37 493.528 534.55 493.464 534.736 493.464C534.921 493.444 535.108 493.461 535.286 493.514C535.464 493.567 535.63 493.655 535.774 493.773C536.968 494.756 537.178 497.732 537.178 497.858C537.184 497.902 537.176 497.947 537.156 497.987C537.136 498.027 537.105 498.061 537.066 498.083C537.039 498.093 537.01 498.098 536.982 498.097ZM534.904 493.885H534.848C534.525 493.885 534.497 494.082 534.483 494.138C534.357 494.826 535.676 496.524 536.729 497.324C536.658 496.152 536.238 495.027 535.522 494.096C535.427 494.022 535.319 493.968 535.203 493.936C535.088 493.905 534.967 493.897 534.848 493.913L534.904 493.885Z" fill="#407BFF"/>
<path d="M472.421 498.349C471.101 498.349 469.824 498.167 469.389 497.577C469.279 497.421 469.22 497.235 469.22 497.044C469.22 496.853 469.279 496.667 469.389 496.51C469.474 496.366 469.587 496.241 469.723 496.142C469.858 496.043 470.012 495.972 470.175 495.935C471.873 495.472 475.495 497.521 475.65 497.605C475.691 497.632 475.723 497.67 475.743 497.715C475.763 497.76 475.77 497.81 475.762 497.858C475.754 497.907 475.73 497.953 475.695 497.988C475.66 498.023 475.615 498.046 475.565 498.055C474.529 498.25 473.476 498.348 472.421 498.349ZM470.778 496.356C470.625 496.334 470.469 496.334 470.315 496.356C470.216 496.375 470.123 496.415 470.041 496.474C469.958 496.532 469.889 496.606 469.838 496.693C469.655 497.002 469.726 497.142 469.838 497.226C470.301 497.872 472.912 497.914 474.849 497.647C473.587 496.966 472.205 496.537 470.778 496.384V496.356Z" fill="#407BFF"/>
<path d="M475.538 498.097H475.439C474.19 497.549 471.733 495.289 471.916 494.152C471.916 493.871 472.154 493.534 472.828 493.464C473.079 493.426 473.335 493.444 473.577 493.517C473.82 493.59 474.044 493.716 474.232 493.885C475.552 494.952 475.818 497.732 475.832 497.858C475.838 497.901 475.832 497.944 475.814 497.984C475.797 498.023 475.769 498.058 475.734 498.083C475.704 498.099 475.671 498.108 475.637 498.111C475.603 498.113 475.569 498.108 475.538 498.097ZM473.025 493.885H472.87C472.435 493.885 472.407 494.11 472.393 494.166C472.281 494.868 473.965 496.623 475.201 497.381C475.079 496.202 474.588 495.091 473.797 494.208C473.597 494.035 473.345 493.931 473.081 493.913L473.025 493.885Z" fill="#407BFF"/>
<path d="M486.88 497.844H476.562L475.538 473.965H485.855L486.88 497.844Z" fill="#E4897B"/>
<path d="M548.802 497.844H538.484L533.304 473.965H543.608L548.802 497.844Z" fill="#E4897B"/>
<path d="M537.754 496.651H549.335C549.542 496.652 549.742 496.724 549.903 496.854C550.063 496.984 550.175 497.165 550.22 497.367L552.255 506.533C552.302 506.757 552.297 506.988 552.242 507.209C552.187 507.43 552.083 507.636 551.937 507.812C551.791 507.987 551.608 508.127 551.401 508.222C551.193 508.317 550.967 508.363 550.739 508.358C546.696 508.288 544.731 508.05 539.635 508.05C536.505 508.05 530.047 508.387 525.709 508.387C521.372 508.387 520.824 504.175 522.593 503.712C530.538 501.971 533.528 499.571 536.069 497.297C536.531 496.879 537.132 496.649 537.754 496.651Z" fill="#263238"/>
<path d="M476.632 496.651H487.863C488.069 496.652 488.27 496.724 488.43 496.854C488.591 496.984 488.703 497.165 488.747 497.367L490.783 506.533C490.831 506.755 490.829 506.984 490.777 507.204C490.725 507.425 490.623 507.63 490.48 507.806C490.337 507.981 490.156 508.122 489.951 508.218C489.745 508.314 489.521 508.362 489.295 508.358C485.238 508.288 479.37 508.05 474.26 508.05C468.294 508.05 463.128 508.387 456.123 508.387C451.911 508.387 450.718 504.175 452.487 503.712C460.559 501.943 467.143 501.761 474.119 497.465C474.862 496.96 475.734 496.677 476.632 496.651Z" fill="#263238"/>
<path d="M471.677 161.634C463.053 160.965 454.473 159.827 445.973 158.222C441.762 157.408 437.466 156.496 433.199 155.345C428.825 154.225 424.529 152.818 420.34 151.133C419.259 150.684 418.164 150.193 417.083 149.729C415.866 149.13 414.694 148.445 413.574 147.68C411.552 146.346 409.812 144.956 408.085 143.581C404.646 140.773 401.459 137.966 398.258 135.088C391.983 129.276 386.031 123.268 380.29 116.951L385.456 111.181L405.825 125.823C409.18 128.237 412.577 130.61 415.918 132.842C417.575 133.951 419.273 134.989 420.831 135.874C421.483 136.245 422.158 136.574 422.853 136.857C423.681 137.179 424.523 137.502 425.408 137.811C432.995 140.147 440.754 141.884 448.613 143.005C456.628 144.269 464.911 145.307 472.912 146.15L471.677 161.634Z" fill="#E4897B"/>
<path d="M518.311 145.855C527.983 148.073 537.754 176.331 537.754 176.331L517.862 190.608C517.862 190.608 512.247 177.44 506.828 165.929C501.157 153.87 508.428 143.595 518.311 145.855Z" fill="#407BFF"/>
<path opacity="0.4" d="M518.311 145.855C527.983 148.073 537.754 176.331 537.754 176.331L517.862 190.608C517.862 190.608 512.247 177.44 506.828 165.929C501.157 153.87 508.428 143.595 518.311 145.855Z" fill="black"/>
<path d="M512.738 161.297L508.793 170.127C512.878 178.942 516.613 187.674 517.609 190.004C517.469 179.574 515.49 166.631 512.738 161.297Z" fill="#407BFF"/>
<path opacity="0.6" d="M512.738 161.297L508.793 170.127C512.878 178.942 516.613 187.674 517.609 190.004C517.469 179.574 515.49 166.631 512.738 161.297Z" fill="black"/>
<path d="M460.545 146.388C460.545 146.388 449.567 158.784 459.927 235.53H515.083C515.476 227.107 510.155 185.751 518.311 145.855C512.215 144.681 506.048 143.903 499.851 143.525C492.043 143.075 484.216 143.075 476.408 143.525C471.054 144.064 465.75 145.022 460.545 146.388Z" fill="#407BFF"/>
<path opacity="0.4" d="M460.545 146.388C460.545 146.388 449.567 158.784 459.927 235.53H515.083C515.476 227.107 510.155 185.751 518.311 145.855C512.215 144.681 506.048 143.903 499.851 143.525C492.043 143.075 484.216 143.075 476.408 143.525C471.054 144.064 465.75 145.022 460.545 146.388Z" fill="black"/>
<path d="M456.46 161.297C456.095 164.202 455.814 167.642 455.631 171.699C461.078 170.064 466.254 167.632 470.989 164.483L456.46 161.297Z" fill="#407BFF"/>
<path opacity="0.6" d="M456.46 161.297C456.095 164.202 455.814 167.642 455.631 171.699C461.078 170.064 466.254 167.632 470.989 164.483L456.46 161.297Z" fill="black"/>
<path d="M480.1 162.841C472.716 169.383 444.527 168.723 444.527 168.723L443.601 141.433C453.12 142.789 462.722 143.483 472.337 143.51C488.045 143.188 488.158 155.625 480.1 162.841Z" fill="#407BFF"/>
<path opacity="0.4" d="M480.1 162.841C472.716 169.383 444.527 168.723 444.527 168.723L443.601 141.433C453.12 142.789 462.722 143.483 472.337 143.51C488.045 143.188 488.158 155.625 480.1 162.841Z" fill="black"/>
<path d="M385.722 111.237L378.703 102.969L371.137 111.391C371.137 111.391 375.797 119.225 383.195 117.989L385.722 111.237Z" fill="#E4897B"/>
<path d="M368.652 93.3245L365.929 104.12L371.081 111.335L378.647 102.969L368.652 93.3245Z" fill="#E4897B"/>
<path d="M475.538 473.979L476.071 486.277H486.389L485.855 473.979H475.538Z" fill="#CE6F64"/>
<path d="M543.622 473.979H533.304L535.971 486.277H546.289L543.622 473.979Z" fill="#CE6F64"/>
<path d="M481.742 95.4584C472.491 91.247 469.571 72.5343 496.187 77.209C496.187 77.209 492.172 81.645 500.314 84.4526C508.456 87.2602 501.648 104.597 481.742 95.4584Z" fill="#263238"/>
<path d="M501.844 109.496C499.191 119.323 498.152 125.303 492.018 129.416C482.837 135.593 471.424 128.504 471.059 118.017C470.736 108.598 475.13 94.0124 485.729 92.019C488.068 91.5603 490.486 91.7087 492.752 92.4499C495.018 93.191 497.056 94.5004 498.672 96.253C500.288 98.0056 501.428 100.143 501.983 102.461C502.539 104.78 502.491 107.202 501.844 109.496Z" fill="#E4897B"/>
<path d="M495.822 82.1223C502.125 85.6318 510.66 87.7375 509.86 92.735C508.807 98.8415 515.012 95.0232 513.566 104.106C512.626 110.044 501.676 128.041 493.913 127.17C482.318 125.766 483.792 108.135 483.75 98.8416C483.722 93.3527 483.469 75.2015 495.822 82.1223Z" fill="#263238"/>
<path d="M482.36 89.9976C479.552 90.6573 475.832 106.843 486.712 108.331C499.219 110.03 482.36 89.9976 482.36 89.9976Z" fill="#263238"/>
<path d="M482.64 95.7393C479.201 96.0481 471.41 91.9069 472.365 85.674C472.365 85.6319 477.292 92.9597 482.64 95.7393Z" fill="#263238"/>
<path d="M487.751 109.623C486.695 111.937 484.904 113.838 482.655 115.027C479.693 116.571 478.023 114.325 478.696 111.349C479.3 108.682 481.574 104.653 484.62 104.33C487.667 104.007 488.972 106.815 487.751 109.623Z" fill="#E4897B"/>
<path d="M503.192 98.2659C505.29 97.3555 507.13 95.939 508.546 94.1432C509.962 92.3474 510.91 90.2285 511.306 87.9761C511.306 87.9761 515.939 100.849 503.192 98.2659Z" fill="#263238"/>
<path d="M514.9 98.0555C513.923 97.3994 512.799 96.9957 511.628 96.8806C510.457 96.7654 509.276 96.9424 508.19 97.3957C508.19 97.3957 512.514 91.7945 514.9 98.0555Z" fill="#263238"/>
<path d="M479.496 235.53C479.496 235.53 491.204 314.339 497.619 343.861C504.638 376.148 531.17 483.904 531.17 483.904H550.051C550.051 483.904 532.574 378.801 528.559 346.739C524.207 311.995 515.082 235.473 515.082 235.473L479.496 235.53Z" fill="#407BFF"/>
<path opacity="0.5" d="M479.496 235.53C479.496 235.53 491.204 314.339 497.619 343.861C504.638 376.148 531.17 483.904 531.17 483.904H550.051C550.051 483.904 532.574 378.801 528.559 346.739C524.207 311.995 515.082 235.473 515.082 235.473L479.496 235.53Z" fill="white"/>
<path d="M528.152 476.941C528.068 476.941 530.103 484.199 530.103 484.199H551.357L550.964 477.727L528.152 476.941Z" fill="#407BFF"/>
<path opacity="0.1" d="M528.152 476.941C528.068 476.941 530.103 484.199 530.103 484.199H551.357L550.964 477.727L528.152 476.941Z" fill="black"/>
<path d="M486.894 263.606C500.426 266.259 498.995 316.725 497.366 342.682C493.464 324.334 487.75 289.028 483.848 263.971C484.792 263.505 485.866 263.377 486.894 263.606Z" fill="#407BFF"/>
<path opacity="0.4" d="M486.894 263.606C500.426 266.259 498.995 316.725 497.366 342.682C493.464 324.334 487.75 289.028 483.848 263.971C484.792 263.505 485.866 263.377 486.894 263.606Z" fill="white"/>
<path d="M459.927 235.53C459.927 235.53 458.524 312.626 459.633 344.085C460.798 376.794 472.267 483.904 472.267 483.904H489.73C489.73 483.904 490.376 378.703 491.134 346.584C491.99 311.559 496.216 235.53 496.216 235.53H459.927Z" fill="#407BFF"/>
<path opacity="0.5" d="M459.927 235.53C459.927 235.53 458.524 312.626 459.633 344.085C460.798 376.794 472.267 483.904 472.267 483.904H489.73C489.73 483.904 490.376 378.703 491.134 346.584C491.99 311.559 496.216 235.53 496.216 235.53H459.927Z" fill="white"/>
<path d="M475.889 471.354C475.846 471.354 475.806 471.338 475.774 471.31C475.743 471.281 475.724 471.242 475.72 471.2C472.632 441.551 465.374 369.817 464.49 344.085C463.549 317.82 464.406 258.889 464.686 241.454C464.686 241.409 464.704 241.366 464.736 241.334C464.767 241.303 464.81 241.285 464.855 241.285C464.901 241.285 464.945 241.302 464.979 241.334C465.013 241.365 465.034 241.408 465.037 241.454C464.757 258.889 463.9 317.82 464.841 344.071C465.753 369.803 473.011 441.509 476.071 471.158C476.072 471.205 476.055 471.251 476.024 471.287C475.993 471.324 475.95 471.347 475.903 471.354H475.889Z" fill="#407BFF"/>
<path opacity="0.4" d="M475.889 471.354C475.846 471.354 475.806 471.338 475.774 471.31C475.743 471.281 475.724 471.242 475.72 471.2C472.632 441.551 465.374 369.817 464.49 344.085C463.549 317.82 464.406 258.889 464.686 241.454C464.686 241.409 464.704 241.366 464.736 241.334C464.767 241.303 464.81 241.285 464.855 241.285C464.901 241.285 464.945 241.302 464.979 241.334C465.013 241.365 465.034 241.408 465.037 241.454C464.757 258.889 463.9 317.82 464.841 344.071C465.753 369.803 473.011 441.509 476.071 471.158C476.072 471.205 476.055 471.251 476.024 471.287C475.993 471.324 475.95 471.347 475.903 471.354H475.889Z" fill="white"/>
<path d="M468.87 476.941C468.799 476.941 469.866 484.199 469.866 484.199H491.106L491.681 477.727L468.87 476.941Z" fill="#407BFF"/>
<path opacity="0.1" d="M468.87 476.941C468.799 476.941 469.866 484.199 469.866 484.199H491.106L491.681 477.727L468.87 476.941Z" fill="black"/>
</svg>
