<svg width="86" height="86" viewBox="0 0 86 86" fill="none" xmlns="http://www.w3.org/2000/svg">
<rect x="1" y="1" width="84" height="84" rx="42" fill="white"/>
<rect x="1" y="1" width="84" height="84" rx="42" stroke="#54BAEB" stroke-width="2"/>
<ellipse cx="41.096" cy="25.1071" rx="1.09596" ry="1.10714" fill="#D9E4FC"/>
<ellipse cx="44.6969" cy="25.1071" rx="1.09596" ry="1.10714" fill="#D9E4FC"/>
<ellipse cx="48.298" cy="25.1071" rx="1.09596" ry="1.10714" fill="#D9E4FC"/>
<ellipse cx="51.8989" cy="25.1071" rx="1.09596" ry="1.10714" fill="#D9E4FC"/>
<ellipse cx="55.4999" cy="25.1071" rx="1.09596" ry="1.10714" fill="#D9E4FC"/>
<ellipse cx="59.101" cy="25.1071" rx="1.09596" ry="1.10714" fill="#D9E4FC"/>
<ellipse cx="62.702" cy="25.1071" rx="1.09596" ry="1.10714" fill="#D9E4FC"/>
<ellipse cx="66.3031" cy="25.1071" rx="1.09596" ry="1.10714" fill="#D9E4FC"/>
<ellipse cx="69.9039" cy="25.1071" rx="1.09596" ry="1.10714" fill="#D9E4FC"/>
<ellipse cx="41.096" cy="28.7305" rx="1.09596" ry="1.10714" fill="#D9E4FC"/>
<ellipse cx="44.6969" cy="28.7305" rx="1.09596" ry="1.10714" fill="#D9E4FC"/>
<ellipse cx="48.298" cy="28.7305" rx="1.09596" ry="1.10714" fill="#D9E4FC"/>
<ellipse cx="51.8989" cy="28.7305" rx="1.09596" ry="1.10714" fill="#D9E4FC"/>
<ellipse cx="55.4999" cy="28.7305" rx="1.09596" ry="1.10714" fill="#D9E4FC"/>
<ellipse cx="59.101" cy="28.7305" rx="1.09596" ry="1.10714" fill="#D9E4FC"/>
<ellipse cx="62.702" cy="28.7305" rx="1.09596" ry="1.10714" fill="#D9E4FC"/>
<ellipse cx="66.3031" cy="28.7305" rx="1.09596" ry="1.10714" fill="#D9E4FC"/>
<ellipse cx="69.9039" cy="28.7305" rx="1.09596" ry="1.10714" fill="#D9E4FC"/>
<ellipse cx="41.096" cy="32.3539" rx="1.09596" ry="1.10714" fill="#D9E4FC"/>
<ellipse cx="44.6969" cy="32.3539" rx="1.09596" ry="1.10714" fill="#D9E4FC"/>
<ellipse cx="48.298" cy="32.3539" rx="1.09596" ry="1.10714" fill="#D9E4FC"/>
<ellipse cx="51.8989" cy="32.3539" rx="1.09596" ry="1.10714" fill="#D9E4FC"/>
<ellipse cx="55.4999" cy="32.3539" rx="1.09596" ry="1.10714" fill="#D9E4FC"/>
<ellipse cx="59.101" cy="32.3539" rx="1.09596" ry="1.10714" fill="#D9E4FC"/>
<ellipse cx="62.702" cy="32.3539" rx="1.09596" ry="1.10714" fill="#D9E4FC"/>
<ellipse cx="66.3031" cy="32.3539" rx="1.09596" ry="1.10714" fill="#D9E4FC"/>
<ellipse cx="69.9039" cy="32.3539" rx="1.09596" ry="1.10714" fill="#D9E4FC"/>
<ellipse cx="41.096" cy="35.9773" rx="1.09596" ry="1.10714" fill="#D9E4FC"/>
<ellipse cx="44.6969" cy="35.9773" rx="1.09596" ry="1.10714" fill="#D9E4FC"/>
<ellipse cx="48.298" cy="35.9773" rx="1.09596" ry="1.10714" fill="#D9E4FC"/>
<ellipse cx="51.8989" cy="35.9773" rx="1.09596" ry="1.10714" fill="#D9E4FC"/>
<ellipse cx="55.4999" cy="35.9773" rx="1.09596" ry="1.10714" fill="#D9E4FC"/>
<ellipse cx="59.101" cy="35.9773" rx="1.09596" ry="1.10714" fill="#D9E4FC"/>
<ellipse cx="62.702" cy="35.9773" rx="1.09596" ry="1.10714" fill="#D9E4FC"/>
<ellipse cx="66.3031" cy="35.9773" rx="1.09596" ry="1.10714" fill="#D9E4FC"/>
<ellipse cx="69.9039" cy="35.9773" rx="1.09596" ry="1.10714" fill="#D9E4FC"/>
<ellipse cx="41.096" cy="39.6007" rx="1.09596" ry="1.10714" fill="#D9E4FC"/>
<ellipse cx="44.6969" cy="39.6007" rx="1.09596" ry="1.10714" fill="#D9E4FC"/>
<ellipse cx="48.298" cy="39.6007" rx="1.09596" ry="1.10714" fill="#D9E4FC"/>
<ellipse cx="51.8989" cy="39.6007" rx="1.09596" ry="1.10714" fill="#D9E4FC"/>
<ellipse cx="55.4999" cy="39.6007" rx="1.09596" ry="1.10714" fill="#D9E4FC"/>
<ellipse cx="59.101" cy="39.6007" rx="1.09596" ry="1.10714" fill="#D9E4FC"/>
<ellipse cx="62.702" cy="39.6007" rx="1.09596" ry="1.10714" fill="#D9E4FC"/>
<ellipse cx="66.3031" cy="39.6007" rx="1.09596" ry="1.10714" fill="#D9E4FC"/>
<ellipse cx="69.9039" cy="39.6007" rx="1.09596" ry="1.10714" fill="#D9E4FC"/>
<ellipse cx="41.096" cy="43.224" rx="1.09596" ry="1.10714" fill="#D9E4FC"/>
<ellipse cx="44.6969" cy="43.224" rx="1.09596" ry="1.10714" fill="#D9E4FC"/>
<ellipse cx="48.298" cy="43.224" rx="1.09596" ry="1.10714" fill="#D9E4FC"/>
<ellipse cx="51.8989" cy="43.224" rx="1.09596" ry="1.10714" fill="#D9E4FC"/>
<ellipse cx="55.4999" cy="43.224" rx="1.09596" ry="1.10714" fill="#D9E4FC"/>
<ellipse cx="59.101" cy="43.224" rx="1.09596" ry="1.10714" fill="#D9E4FC"/>
<ellipse cx="62.702" cy="43.224" rx="1.09596" ry="1.10714" fill="#D9E4FC"/>
<ellipse cx="66.3031" cy="43.224" rx="1.09596" ry="1.10714" fill="#D9E4FC"/>
<ellipse cx="69.9039" cy="43.224" rx="1.09596" ry="1.10714" fill="#D9E4FC"/>
<ellipse cx="41.096" cy="46.8474" rx="1.09596" ry="1.10714" fill="#D9E4FC"/>
<ellipse cx="44.6969" cy="46.8474" rx="1.09596" ry="1.10714" fill="#D9E4FC"/>
<ellipse cx="48.298" cy="46.8474" rx="1.09596" ry="1.10714" fill="#D9E4FC"/>
<ellipse cx="51.8989" cy="46.8474" rx="1.09596" ry="1.10714" fill="#D9E4FC"/>
<ellipse cx="55.4999" cy="46.8474" rx="1.09596" ry="1.10714" fill="#D9E4FC"/>
<ellipse cx="59.101" cy="46.8474" rx="1.09596" ry="1.10714" fill="#D9E4FC"/>
<ellipse cx="62.702" cy="46.8474" rx="1.09596" ry="1.10714" fill="#D9E4FC"/>
<ellipse cx="66.3031" cy="46.8474" rx="1.09596" ry="1.10714" fill="#D9E4FC"/>
<ellipse cx="69.9039" cy="46.8474" rx="1.09596" ry="1.10714" fill="#D9E4FC"/>
<rect opacity="0.5" x="22.25" y="41.25" width="22.5" height="27.5" stroke="#16215D" stroke-width="0.5"/>
<path d="M43.0521 28.0311C41.604 28.0311 40.1885 28.4605 38.9844 29.2651C37.7804 30.0696 36.842 31.2131 36.2878 32.5509C35.7336 33.8888 35.5886 35.3609 35.8712 36.7812C36.1537 38.2014 36.851 39.506 37.8749 40.53C38.8989 41.5539 40.2035 42.2513 41.6238 42.5338C43.044 42.8163 44.5162 42.6713 45.854 42.1171C47.1919 41.563 48.3354 40.6245 49.1399 39.4205C49.9444 38.2165 50.3738 36.8009 50.3738 35.3528C50.3738 33.411 49.6024 31.5487 48.2293 30.1756C46.8563 28.8025 44.994 28.0311 43.0521 28.0311ZM43.0521 40.1189C42.1095 40.1189 41.188 39.8394 40.4042 39.3157C39.6204 38.792 39.0096 38.0476 38.6488 37.1767C38.2881 36.3058 38.1937 35.3475 38.3776 34.423C38.5615 33.4984 39.0154 32.6492 39.682 31.9826C40.3485 31.3161 41.1978 30.8622 42.1223 30.6783C43.0469 30.4944 44.0052 30.5887 44.8761 30.9495C45.7469 31.3102 46.4913 31.9211 47.015 32.7049C47.5387 33.4887 47.8182 34.4101 47.8182 35.3528C47.8149 36.6146 47.3112 37.8236 46.4178 38.7147C45.5243 39.6057 44.314 40.1061 43.0521 40.1061V40.1189Z" fill="#3362CC"/>
<path d="M43.0522 22C39.0722 22.0033 35.2552 23.5815 32.4349 26.3898C29.6146 29.1981 28.0203 33.0084 28 36.9883C28 42.9556 31.3478 47.9517 33.8011 51.5933L34.2483 52.2578C36.6892 55.7955 39.3078 59.2072 42.0939 62.48L43.065 63.6172L44.0361 62.48C46.8219 59.207 49.4404 55.7952 51.8817 52.2578L52.3289 51.5806C54.7694 47.9389 58.1172 42.9556 58.1172 36.9883C58.097 33.0061 56.5008 29.194 53.6778 26.3853C50.8547 23.5766 47.0345 21.9999 43.0522 22ZM50.195 50.1111L49.735 50.7883C47.5372 54.085 44.6239 57.7778 43.0522 59.605C41.5444 57.7778 38.5672 54.085 36.3694 50.7883L35.9222 50.1111C33.6606 46.7378 30.5556 42.125 30.5556 36.9372C30.5556 35.2961 30.8788 33.6711 31.5068 32.155C32.1348 30.6388 33.0553 29.2612 34.2157 28.1007C35.3762 26.9403 36.7538 26.0198 38.27 25.3918C39.7861 24.7638 41.4111 24.4406 43.0522 24.4406C44.6933 24.4406 46.3183 24.7638 47.8345 25.3918C49.3507 26.0198 50.7283 26.9403 51.8887 28.1007C53.0491 29.2612 53.9696 30.6388 54.5976 32.155C55.2256 33.6711 55.5489 35.2961 55.5489 36.9372C55.5489 42.1761 52.4567 46.7889 50.195 50.1111Z" fill="#3362CC"/>
</svg>
