<svg width="51" height="49" viewBox="0 0 51 49" fill="none" xmlns="http://www.w3.org/2000/svg">
<ellipse cx="21.096" cy="5.10714" rx="1.09596" ry="1.10714" fill="#D9E4FC"/>
<ellipse cx="24.6969" cy="5.10714" rx="1.09596" ry="1.10714" fill="#D9E4FC"/>
<ellipse cx="28.298" cy="5.10714" rx="1.09596" ry="1.10714" fill="#D9E4FC"/>
<ellipse cx="31.8989" cy="5.10714" rx="1.09596" ry="1.10714" fill="#D9E4FC"/>
<ellipse cx="35.4999" cy="5.10714" rx="1.09596" ry="1.10714" fill="#D9E4FC"/>
<ellipse cx="39.101" cy="5.10714" rx="1.09596" ry="1.10714" fill="#D9E4FC"/>
<ellipse cx="42.702" cy="5.10714" rx="1.09596" ry="1.10714" fill="#D9E4FC"/>
<ellipse cx="46.3031" cy="5.10714" rx="1.09596" ry="1.10714" fill="#D9E4FC"/>
<ellipse cx="49.9039" cy="5.10714" rx="1.09596" ry="1.10714" fill="#D9E4FC"/>
<ellipse cx="21.096" cy="8.73049" rx="1.09596" ry="1.10714" fill="#D9E4FC"/>
<ellipse cx="24.6969" cy="8.73049" rx="1.09596" ry="1.10714" fill="#D9E4FC"/>
<ellipse cx="28.298" cy="8.73049" rx="1.09596" ry="1.10714" fill="#D9E4FC"/>
<ellipse cx="31.8989" cy="8.73049" rx="1.09596" ry="1.10714" fill="#D9E4FC"/>
<ellipse cx="35.4999" cy="8.73049" rx="1.09596" ry="1.10714" fill="#D9E4FC"/>
<ellipse cx="39.101" cy="8.73049" rx="1.09596" ry="1.10714" fill="#D9E4FC"/>
<ellipse cx="42.702" cy="8.73049" rx="1.09596" ry="1.10714" fill="#D9E4FC"/>
<ellipse cx="46.3031" cy="8.73049" rx="1.09596" ry="1.10714" fill="#D9E4FC"/>
<ellipse cx="49.9039" cy="8.73049" rx="1.09596" ry="1.10714" fill="#D9E4FC"/>
<ellipse cx="21.096" cy="12.3539" rx="1.09596" ry="1.10714" fill="#D9E4FC"/>
<ellipse cx="24.6969" cy="12.3539" rx="1.09596" ry="1.10714" fill="#D9E4FC"/>
<ellipse cx="28.298" cy="12.3539" rx="1.09596" ry="1.10714" fill="#D9E4FC"/>
<ellipse cx="31.8989" cy="12.3539" rx="1.09596" ry="1.10714" fill="#D9E4FC"/>
<ellipse cx="35.4999" cy="12.3539" rx="1.09596" ry="1.10714" fill="#D9E4FC"/>
<ellipse cx="39.101" cy="12.3539" rx="1.09596" ry="1.10714" fill="#D9E4FC"/>
<ellipse cx="42.702" cy="12.3539" rx="1.09596" ry="1.10714" fill="#D9E4FC"/>
<ellipse cx="46.3031" cy="12.3539" rx="1.09596" ry="1.10714" fill="#D9E4FC"/>
<ellipse cx="49.9039" cy="12.3539" rx="1.09596" ry="1.10714" fill="#D9E4FC"/>
<ellipse cx="21.096" cy="15.9773" rx="1.09596" ry="1.10714" fill="#D9E4FC"/>
<ellipse cx="24.6969" cy="15.9773" rx="1.09596" ry="1.10714" fill="#D9E4FC"/>
<ellipse cx="28.298" cy="15.9773" rx="1.09596" ry="1.10714" fill="#D9E4FC"/>
<ellipse cx="31.8989" cy="15.9773" rx="1.09596" ry="1.10714" fill="#D9E4FC"/>
<ellipse cx="35.4999" cy="15.9773" rx="1.09596" ry="1.10714" fill="#D9E4FC"/>
<ellipse cx="39.101" cy="15.9773" rx="1.09596" ry="1.10714" fill="#D9E4FC"/>
<ellipse cx="42.702" cy="15.9773" rx="1.09596" ry="1.10714" fill="#D9E4FC"/>
<ellipse cx="46.3031" cy="15.9773" rx="1.09596" ry="1.10714" fill="#D9E4FC"/>
<ellipse cx="49.9039" cy="15.9773" rx="1.09596" ry="1.10714" fill="#D9E4FC"/>
<ellipse cx="21.096" cy="19.6007" rx="1.09596" ry="1.10714" fill="#D9E4FC"/>
<ellipse cx="24.6969" cy="19.6007" rx="1.09596" ry="1.10714" fill="#D9E4FC"/>
<ellipse cx="28.298" cy="19.6007" rx="1.09596" ry="1.10714" fill="#D9E4FC"/>
<ellipse cx="31.8989" cy="19.6007" rx="1.09596" ry="1.10714" fill="#D9E4FC"/>
<ellipse cx="35.4999" cy="19.6007" rx="1.09596" ry="1.10714" fill="#D9E4FC"/>
<ellipse cx="39.101" cy="19.6007" rx="1.09596" ry="1.10714" fill="#D9E4FC"/>
<ellipse cx="42.702" cy="19.6007" rx="1.09596" ry="1.10714" fill="#D9E4FC"/>
<ellipse cx="46.3031" cy="19.6007" rx="1.09596" ry="1.10714" fill="#D9E4FC"/>
<ellipse cx="49.9039" cy="19.6007" rx="1.09596" ry="1.10714" fill="#D9E4FC"/>
<ellipse cx="21.096" cy="23.224" rx="1.09596" ry="1.10714" fill="#D9E4FC"/>
<ellipse cx="24.6969" cy="23.224" rx="1.09596" ry="1.10714" fill="#D9E4FC"/>
<ellipse cx="28.298" cy="23.224" rx="1.09596" ry="1.10714" fill="#D9E4FC"/>
<ellipse cx="31.8989" cy="23.224" rx="1.09596" ry="1.10714" fill="#D9E4FC"/>
<ellipse cx="35.4999" cy="23.224" rx="1.09596" ry="1.10714" fill="#D9E4FC"/>
<ellipse cx="39.101" cy="23.224" rx="1.09596" ry="1.10714" fill="#D9E4FC"/>
<ellipse cx="42.702" cy="23.224" rx="1.09596" ry="1.10714" fill="#D9E4FC"/>
<ellipse cx="46.3031" cy="23.224" rx="1.09596" ry="1.10714" fill="#D9E4FC"/>
<ellipse cx="49.9039" cy="23.224" rx="1.09596" ry="1.10714" fill="#D9E4FC"/>
<ellipse cx="21.096" cy="26.8474" rx="1.09596" ry="1.10714" fill="#D9E4FC"/>
<ellipse cx="24.6969" cy="26.8474" rx="1.09596" ry="1.10714" fill="#D9E4FC"/>
<ellipse cx="28.298" cy="26.8474" rx="1.09596" ry="1.10714" fill="#D9E4FC"/>
<ellipse cx="31.8989" cy="26.8474" rx="1.09596" ry="1.10714" fill="#D9E4FC"/>
<ellipse cx="35.4999" cy="26.8474" rx="1.09596" ry="1.10714" fill="#D9E4FC"/>
<ellipse cx="39.101" cy="26.8474" rx="1.09596" ry="1.10714" fill="#D9E4FC"/>
<ellipse cx="42.702" cy="26.8474" rx="1.09596" ry="1.10714" fill="#D9E4FC"/>
<ellipse cx="46.3031" cy="26.8474" rx="1.09596" ry="1.10714" fill="#D9E4FC"/>
<ellipse cx="49.9039" cy="26.8474" rx="1.09596" ry="1.10714" fill="#D9E4FC"/>
<rect opacity="0.5" x="2.25" y="21.25" width="22.5" height="27.5" stroke="#16215D" stroke-width="0.5"/>
<path d="M23.0521 8.03113C21.604 8.03113 20.1885 8.46054 18.9844 9.26505C17.7804 10.0696 16.842 11.2131 16.2878 12.5509C15.7336 13.8888 15.5886 15.3609 15.8712 16.7812C16.1537 18.2014 16.851 19.506 17.8749 20.53C18.8989 21.5539 20.2035 22.2513 21.6238 22.5338C23.044 22.8163 24.5162 22.6713 25.854 22.1171C27.1919 21.563 28.3354 20.6245 29.1399 19.4205C29.9444 18.2165 30.3738 16.8009 30.3738 15.3528C30.3738 13.411 29.6024 11.5487 28.2293 10.1756C26.8563 8.80252 24.994 8.03113 23.0521 8.03113ZM23.0521 20.1189C22.1095 20.1189 21.188 19.8394 20.4042 19.3157C19.6204 18.792 19.0096 18.0476 18.6488 17.1767C18.2881 16.3058 18.1937 15.3475 18.3776 14.423C18.5615 13.4984 19.0154 12.6492 19.682 11.9826C20.3485 11.3161 21.1978 10.8622 22.1223 10.6783C23.0469 10.4944 24.0052 10.5887 24.8761 10.9495C25.7469 11.3102 26.4913 11.9211 27.015 12.7049C27.5387 13.4887 27.8182 14.4101 27.8182 15.3528C27.8149 16.6146 27.3112 17.8236 26.4178 18.7147C25.5243 19.6057 24.314 20.1061 23.0521 20.1061V20.1189Z" fill="#3362CC"/>
<path d="M23.0522 2C19.0722 2.00332 15.2552 3.58149 12.4349 6.3898C9.61464 9.19811 8.02025 13.0084 8 16.9883C8 22.9556 11.3478 27.9517 13.8011 31.5933L14.2483 32.2578C16.6892 35.7955 19.3078 39.2072 22.0939 42.48L23.065 43.6172L24.0361 42.48C26.8219 39.207 29.4404 35.7952 31.8817 32.2578L32.3289 31.5806C34.7694 27.9389 38.1172 22.9556 38.1172 16.9883C38.097 13.0061 36.5008 9.19397 33.6778 6.3853C30.8547 3.57662 27.0345 1.99995 23.0522 2ZM30.195 30.1111L29.735 30.7883C27.5372 34.085 24.6239 37.7778 23.0522 39.605C21.5444 37.7778 18.5672 34.085 16.3694 30.7883L15.9222 30.1111C13.6606 26.7378 10.5556 22.125 10.5556 16.9372C10.5556 15.2961 10.8788 13.6711 11.5068 12.155C12.1348 10.6388 13.0553 9.26117 14.2157 8.10074C15.3762 6.94032 16.7538 6.01982 18.27 5.39181C19.7861 4.76379 21.4111 4.44056 23.0522 4.44056C24.6933 4.44056 26.3183 4.76379 27.8345 5.39181C29.3507 6.01982 30.7283 6.94032 31.8887 8.10074C33.0491 9.26117 33.9696 10.6388 34.5976 12.155C35.2256 13.6711 35.5489 15.2961 35.5489 16.9372C35.5489 22.1761 32.4567 26.7889 30.195 30.1111Z" fill="#3362CC"/>
</svg>
