<svg width="50" height="48" viewBox="0 0 50 48" fill="none" xmlns="http://www.w3.org/2000/svg">
<rect opacity="0.5" x="0.25" y="23.25" width="34.5" height="24.5" stroke="#16215D" stroke-width="0.5"/>
<ellipse cx="18.096" cy="6.10714" rx="1.09596" ry="1.10714" fill="#D9E4FC"/>
<ellipse cx="21.6969" cy="6.10714" rx="1.09596" ry="1.10714" fill="#D9E4FC"/>
<ellipse cx="25.298" cy="6.10714" rx="1.09596" ry="1.10714" fill="#D9E4FC"/>
<ellipse cx="28.8989" cy="6.10714" rx="1.09596" ry="1.10714" fill="#D9E4FC"/>
<ellipse cx="32.5" cy="6.10714" rx="1.09596" ry="1.10714" fill="#D9E4FC"/>
<ellipse cx="36.101" cy="6.10714" rx="1.09596" ry="1.10714" fill="#D9E4FC"/>
<ellipse cx="39.702" cy="6.10714" rx="1.09596" ry="1.10714" fill="#D9E4FC"/>
<ellipse cx="43.3031" cy="6.10711" rx="1.09596" ry="1.10714" fill="#D9E4FC"/>
<ellipse cx="46.9041" cy="6.10714" rx="1.09596" ry="1.10714" fill="#D9E4FC"/>
<ellipse cx="18.096" cy="9.73054" rx="1.09596" ry="1.10714" fill="#D9E4FC"/>
<ellipse cx="21.6969" cy="9.73054" rx="1.09596" ry="1.10714" fill="#D9E4FC"/>
<ellipse cx="25.298" cy="9.73054" rx="1.09596" ry="1.10714" fill="#D9E4FC"/>
<ellipse cx="28.8989" cy="9.73054" rx="1.09596" ry="1.10714" fill="#D9E4FC"/>
<ellipse cx="32.5" cy="9.73054" rx="1.09596" ry="1.10714" fill="#D9E4FC"/>
<ellipse cx="36.101" cy="9.73054" rx="1.09596" ry="1.10714" fill="#D9E4FC"/>
<ellipse cx="39.702" cy="9.73054" rx="1.09596" ry="1.10714" fill="#D9E4FC"/>
<ellipse cx="43.3031" cy="9.73053" rx="1.09596" ry="1.10714" fill="#D9E4FC"/>
<ellipse cx="46.9041" cy="9.73054" rx="1.09596" ry="1.10714" fill="#D9E4FC"/>
<ellipse cx="18.096" cy="13.3539" rx="1.09596" ry="1.10714" fill="#D9E4FC"/>
<ellipse cx="21.6969" cy="13.3539" rx="1.09596" ry="1.10714" fill="#D9E4FC"/>
<ellipse cx="25.298" cy="13.3539" rx="1.09596" ry="1.10714" fill="#D9E4FC"/>
<ellipse cx="28.8989" cy="13.3539" rx="1.09596" ry="1.10714" fill="#D9E4FC"/>
<ellipse cx="32.5" cy="13.3539" rx="1.09596" ry="1.10714" fill="#D9E4FC"/>
<ellipse cx="36.101" cy="13.3539" rx="1.09596" ry="1.10714" fill="#D9E4FC"/>
<ellipse cx="39.702" cy="13.3539" rx="1.09596" ry="1.10714" fill="#D9E4FC"/>
<ellipse cx="43.3031" cy="13.3539" rx="1.09596" ry="1.10714" fill="#D9E4FC"/>
<ellipse cx="46.9041" cy="13.3539" rx="1.09596" ry="1.10714" fill="#D9E4FC"/>
<ellipse cx="18.096" cy="16.9772" rx="1.09596" ry="1.10714" fill="#D9E4FC"/>
<ellipse cx="21.6969" cy="16.9772" rx="1.09596" ry="1.10714" fill="#D9E4FC"/>
<ellipse cx="25.298" cy="16.9772" rx="1.09596" ry="1.10714" fill="#D9E4FC"/>
<ellipse cx="28.8989" cy="16.9772" rx="1.09596" ry="1.10714" fill="#D9E4FC"/>
<ellipse cx="32.5" cy="16.9772" rx="1.09596" ry="1.10714" fill="#D9E4FC"/>
<ellipse cx="36.101" cy="16.9772" rx="1.09596" ry="1.10714" fill="#D9E4FC"/>
<ellipse cx="39.702" cy="16.9772" rx="1.09596" ry="1.10714" fill="#D9E4FC"/>
<ellipse cx="43.3031" cy="16.9772" rx="1.09596" ry="1.10714" fill="#D9E4FC"/>
<ellipse cx="46.9041" cy="16.9772" rx="1.09596" ry="1.10714" fill="#D9E4FC"/>
<ellipse cx="18.096" cy="20.6006" rx="1.09596" ry="1.10714" fill="#D9E4FC"/>
<ellipse cx="21.6969" cy="20.6006" rx="1.09596" ry="1.10714" fill="#D9E4FC"/>
<ellipse cx="25.298" cy="20.6006" rx="1.09596" ry="1.10714" fill="#D9E4FC"/>
<ellipse cx="28.8989" cy="20.6006" rx="1.09596" ry="1.10714" fill="#D9E4FC"/>
<ellipse cx="32.5" cy="20.6006" rx="1.09596" ry="1.10714" fill="#D9E4FC"/>
<ellipse cx="36.101" cy="20.6006" rx="1.09596" ry="1.10714" fill="#D9E4FC"/>
<ellipse cx="39.702" cy="20.6006" rx="1.09596" ry="1.10714" fill="#D9E4FC"/>
<ellipse cx="43.3031" cy="20.6006" rx="1.09596" ry="1.10714" fill="#D9E4FC"/>
<ellipse cx="46.9041" cy="20.6006" rx="1.09596" ry="1.10714" fill="#D9E4FC"/>
<ellipse cx="18.096" cy="24.224" rx="1.09596" ry="1.10714" fill="#D9E4FC"/>
<ellipse cx="21.6969" cy="24.224" rx="1.09596" ry="1.10714" fill="#D9E4FC"/>
<ellipse cx="25.298" cy="24.224" rx="1.09596" ry="1.10714" fill="#D9E4FC"/>
<ellipse cx="28.8989" cy="24.224" rx="1.09596" ry="1.10714" fill="#D9E4FC"/>
<ellipse cx="32.5" cy="24.224" rx="1.09596" ry="1.10714" fill="#D9E4FC"/>
<ellipse cx="36.101" cy="24.224" rx="1.09596" ry="1.10714" fill="#D9E4FC"/>
<ellipse cx="39.702" cy="24.224" rx="1.09596" ry="1.10714" fill="#D9E4FC"/>
<ellipse cx="43.3031" cy="24.224" rx="1.09596" ry="1.10714" fill="#D9E4FC"/>
<ellipse cx="46.9041" cy="24.224" rx="1.09596" ry="1.10714" fill="#D9E4FC"/>
<ellipse cx="18.096" cy="27.8474" rx="1.09596" ry="1.10714" fill="#D9E4FC"/>
<ellipse cx="21.6969" cy="27.8474" rx="1.09596" ry="1.10714" fill="#D9E4FC"/>
<ellipse cx="25.298" cy="27.8474" rx="1.09596" ry="1.10714" fill="#D9E4FC"/>
<ellipse cx="28.8989" cy="27.8474" rx="1.09596" ry="1.10714" fill="#D9E4FC"/>
<ellipse cx="32.5" cy="27.8474" rx="1.09596" ry="1.10714" fill="#D9E4FC"/>
<ellipse cx="36.101" cy="27.8474" rx="1.09596" ry="1.10714" fill="#D9E4FC"/>
<ellipse cx="39.702" cy="27.8474" rx="1.09596" ry="1.10714" fill="#D9E4FC"/>
<ellipse cx="43.3031" cy="27.8474" rx="1.09596" ry="1.10714" fill="#D9E4FC"/>
<ellipse cx="46.9041" cy="27.8474" rx="1.09596" ry="1.10714" fill="#D9E4FC"/>
<path d="M39.1389 44.1721C38.7092 44.1709 38.2808 44.1238 37.8611 44.0316C29.8707 42.3787 22.5094 38.5031 16.6244 32.851C10.8651 27.1865 6.87063 19.9743 5.12443 12.0871C4.91853 11.1042 4.96907 10.0847 5.27118 9.12694C5.57329 8.16914 6.1168 7.30521 6.84943 6.61826L11.9605 1.69881C12.2216 1.45193 12.5318 1.26287 12.8709 1.14398C13.2099 1.02508 13.5702 0.979026 13.9283 1.00881C14.2996 1.04754 14.6579 1.16714 14.978 1.3592C15.2981 1.55126 15.5722 1.81111 15.7811 2.12048L22.17 11.5633C22.4096 11.9296 22.5252 12.3633 22.4999 12.8003C22.4746 13.2374 22.3097 13.6547 22.0294 13.991L18.8222 17.8244C20.0995 20.6514 21.9085 23.2065 24.1505 25.3505C26.3781 27.5723 29.011 29.3463 31.9067 30.5766L35.8805 27.4205C36.2143 27.1567 36.6204 27.0008 37.045 26.9734C37.4695 26.946 37.8923 27.0484 38.2572 27.2671L47.9044 33.5027C48.2355 33.7004 48.5175 33.9704 48.7294 34.2925C48.9413 34.6147 49.0776 34.9806 49.128 35.3629C49.1784 35.7452 49.1416 36.1339 49.0204 36.4999C48.8993 36.866 48.6968 37.1999 48.4283 37.4766L43.445 42.4088C42.8789 42.9721 42.2071 43.4179 41.468 43.7205C40.729 44.0231 39.9374 44.1766 39.1389 44.1721ZM13.7239 3.53881L8.61276 8.45826C8.20062 8.84229 7.89553 9.32699 7.7275 9.86468C7.55947 10.4024 7.53429 10.9745 7.65443 11.5249C9.27813 18.926 13.0105 25.6984 18.4005 31.0238C23.9387 36.3413 30.8661 39.9866 38.385 41.5399C38.9541 41.6589 39.5439 41.6348 40.1014 41.4698C40.6589 41.3048 41.1668 41.004 41.5794 40.5944L46.5628 35.6621L37.2478 29.6438L32.98 33.0427C32.8166 33.172 32.6241 33.2594 32.4192 33.2973C32.2143 33.3351 32.0032 33.3223 31.8044 33.2599C28.2608 31.9543 25.0494 29.8817 22.4 27.1905C19.6596 24.6314 17.5324 21.4865 16.1772 17.9905C16.1199 17.7788 16.118 17.556 16.1717 17.3434C16.2254 17.1308 16.3329 16.9356 16.4839 16.7766L19.9339 12.6494L13.7239 3.53881Z" fill="#3362CC"/>
</svg>
