<svg width="81" height="80" viewBox="0 0 81 80" fill="none" xmlns="http://www.w3.org/2000/svg">
<ellipse cx="38.5556" cy="17.5714" rx="1.55556" ry="1.57143" fill="#D9E4FC"/>
<ellipse cx="43.6669" cy="17.5714" rx="1.55556" ry="1.57143" fill="#D9E4FC"/>
<ellipse cx="48.7777" cy="17.5714" rx="1.55556" ry="1.57143" fill="#D9E4FC"/>
<ellipse cx="53.8891" cy="17.5714" rx="1.55556" ry="1.57143" fill="#D9E4FC"/>
<ellipse cx="58.9999" cy="17.5714" rx="1.55556" ry="1.57143" fill="#D9E4FC"/>
<ellipse cx="64.1112" cy="17.5714" rx="1.55556" ry="1.57143" fill="#D9E4FC"/>
<ellipse cx="69.2221" cy="17.5714" rx="1.55556" ry="1.57143" fill="#D9E4FC"/>
<ellipse cx="74.3334" cy="17.5714" rx="1.55556" ry="1.57143" fill="#D9E4FC"/>
<ellipse cx="79.4442" cy="17.5714" rx="1.55556" ry="1.57143" fill="#D9E4FC"/>
<ellipse cx="38.5556" cy="22.7143" rx="1.55556" ry="1.57143" fill="#D9E4FC"/>
<ellipse cx="43.6669" cy="22.7143" rx="1.55556" ry="1.57143" fill="#D9E4FC"/>
<ellipse cx="48.7777" cy="22.7143" rx="1.55556" ry="1.57143" fill="#D9E4FC"/>
<ellipse cx="53.8891" cy="22.7143" rx="1.55556" ry="1.57143" fill="#D9E4FC"/>
<ellipse cx="58.9999" cy="22.7143" rx="1.55556" ry="1.57143" fill="#D9E4FC"/>
<ellipse cx="64.1112" cy="22.7143" rx="1.55556" ry="1.57143" fill="#D9E4FC"/>
<ellipse cx="69.2221" cy="22.7143" rx="1.55556" ry="1.57143" fill="#D9E4FC"/>
<ellipse cx="74.3334" cy="22.7143" rx="1.55556" ry="1.57143" fill="#D9E4FC"/>
<ellipse cx="79.4442" cy="22.7143" rx="1.55556" ry="1.57143" fill="#D9E4FC"/>
<ellipse cx="38.5556" cy="27.8571" rx="1.55556" ry="1.57143" fill="#D9E4FC"/>
<ellipse cx="43.6669" cy="27.8571" rx="1.55556" ry="1.57143" fill="#D9E4FC"/>
<ellipse cx="48.7777" cy="27.8571" rx="1.55556" ry="1.57143" fill="#D9E4FC"/>
<ellipse cx="53.8891" cy="27.8571" rx="1.55556" ry="1.57143" fill="#D9E4FC"/>
<ellipse cx="58.9999" cy="27.8571" rx="1.55556" ry="1.57143" fill="#D9E4FC"/>
<ellipse cx="64.1112" cy="27.8571" rx="1.55556" ry="1.57143" fill="#D9E4FC"/>
<ellipse cx="69.2221" cy="27.8571" rx="1.55556" ry="1.57143" fill="#D9E4FC"/>
<ellipse cx="74.3334" cy="27.8571" rx="1.55556" ry="1.57143" fill="#D9E4FC"/>
<ellipse cx="79.4442" cy="27.8571" rx="1.55556" ry="1.57143" fill="#D9E4FC"/>
<ellipse cx="38.5556" cy="33" rx="1.55556" ry="1.57143" fill="#D9E4FC"/>
<ellipse cx="43.6669" cy="33" rx="1.55556" ry="1.57143" fill="#D9E4FC"/>
<ellipse cx="48.7777" cy="33" rx="1.55556" ry="1.57143" fill="#D9E4FC"/>
<ellipse cx="53.8891" cy="33" rx="1.55556" ry="1.57143" fill="#D9E4FC"/>
<ellipse cx="58.9999" cy="33" rx="1.55556" ry="1.57143" fill="#D9E4FC"/>
<ellipse cx="64.1112" cy="33" rx="1.55556" ry="1.57143" fill="#D9E4FC"/>
<ellipse cx="69.2221" cy="33" rx="1.55556" ry="1.57143" fill="#D9E4FC"/>
<ellipse cx="74.3334" cy="33" rx="1.55556" ry="1.57143" fill="#D9E4FC"/>
<ellipse cx="79.4442" cy="33" rx="1.55556" ry="1.57143" fill="#D9E4FC"/>
<ellipse cx="38.5556" cy="38.1429" rx="1.55556" ry="1.57143" fill="#D9E4FC"/>
<ellipse cx="43.6669" cy="38.1429" rx="1.55556" ry="1.57143" fill="#D9E4FC"/>
<ellipse cx="48.7777" cy="38.1429" rx="1.55556" ry="1.57143" fill="#D9E4FC"/>
<ellipse cx="53.8891" cy="38.1429" rx="1.55556" ry="1.57143" fill="#D9E4FC"/>
<ellipse cx="58.9999" cy="38.1429" rx="1.55556" ry="1.57143" fill="#D9E4FC"/>
<ellipse cx="64.1112" cy="38.1429" rx="1.55556" ry="1.57143" fill="#D9E4FC"/>
<ellipse cx="69.2221" cy="38.1429" rx="1.55556" ry="1.57143" fill="#D9E4FC"/>
<ellipse cx="74.3334" cy="38.1429" rx="1.55556" ry="1.57143" fill="#D9E4FC"/>
<ellipse cx="79.4442" cy="38.1429" rx="1.55556" ry="1.57143" fill="#D9E4FC"/>
<ellipse cx="38.5556" cy="43.2857" rx="1.55556" ry="1.57143" fill="#D9E4FC"/>
<ellipse cx="43.6669" cy="43.2857" rx="1.55556" ry="1.57143" fill="#D9E4FC"/>
<ellipse cx="48.7777" cy="43.2857" rx="1.55556" ry="1.57143" fill="#D9E4FC"/>
<ellipse cx="53.8891" cy="43.2857" rx="1.55556" ry="1.57143" fill="#D9E4FC"/>
<ellipse cx="58.9999" cy="43.2857" rx="1.55556" ry="1.57143" fill="#D9E4FC"/>
<ellipse cx="64.1112" cy="43.2857" rx="1.55556" ry="1.57143" fill="#D9E4FC"/>
<ellipse cx="69.2221" cy="43.2857" rx="1.55556" ry="1.57143" fill="#D9E4FC"/>
<ellipse cx="74.3334" cy="43.2857" rx="1.55556" ry="1.57143" fill="#D9E4FC"/>
<ellipse cx="79.4442" cy="43.2857" rx="1.55556" ry="1.57143" fill="#D9E4FC"/>
<ellipse cx="38.5556" cy="48.4286" rx="1.55556" ry="1.57143" fill="#D9E4FC"/>
<ellipse cx="43.6669" cy="48.4286" rx="1.55556" ry="1.57143" fill="#D9E4FC"/>
<ellipse cx="48.7777" cy="48.4286" rx="1.55556" ry="1.57143" fill="#D9E4FC"/>
<ellipse cx="53.8891" cy="48.4286" rx="1.55556" ry="1.57143" fill="#D9E4FC"/>
<ellipse cx="58.9999" cy="48.4286" rx="1.55556" ry="1.57143" fill="#D9E4FC"/>
<ellipse cx="64.1112" cy="48.4286" rx="1.55556" ry="1.57143" fill="#D9E4FC"/>
<ellipse cx="69.2221" cy="48.4286" rx="1.55556" ry="1.57143" fill="#D9E4FC"/>
<ellipse cx="74.3334" cy="48.4286" rx="1.55556" ry="1.57143" fill="#D9E4FC"/>
<ellipse cx="79.4442" cy="48.4286" rx="1.55556" ry="1.57143" fill="#D9E4FC"/>
<rect x="32.25" y="34.25" width="31.5" height="33.5" stroke="#16215D" stroke-width="0.5"/>
<path d="M25 55C25 53.6739 25.5268 52.4021 26.4645 51.4645C27.4021 50.5268 28.6739 50 30 50H57" stroke="#3362CC" stroke-width="3" stroke-linecap="round" stroke-linejoin="round"/>
<path d="M30 20H57V60H30C28.6739 60 27.4021 59.4732 26.4645 58.5355C25.5268 57.5979 25 56.3261 25 55V25C25 23.6739 25.5268 22.4021 26.4645 21.4645C27.4021 20.5268 28.6739 20 30 20V20Z" stroke="#3362CC" stroke-width="3" stroke-linecap="round" stroke-linejoin="round"/>
</svg>
