<svg width="80" height="80" viewBox="0 0 80 80" fill="none" xmlns="http://www.w3.org/2000/svg">
<ellipse cx="73.4286" cy="49.4375" rx="1.57143" ry="1.5625" transform="rotate(180 73.4286 49.4375)" fill="#D9E4FC"/>
<ellipse cx="68.2855" cy="49.4375" rx="1.57143" ry="1.5625" transform="rotate(180 68.2855 49.4375)" fill="#D9E4FC"/>
<ellipse cx="63.1429" cy="49.4375" rx="1.57143" ry="1.5625" transform="rotate(180 63.1429 49.4375)" fill="#D9E4FC"/>
<ellipse cx="57.9999" cy="49.4375" rx="1.57143" ry="1.5625" transform="rotate(180 57.9999 49.4375)" fill="#D9E4FC"/>
<ellipse cx="52.8573" cy="49.4375" rx="1.57143" ry="1.5625" transform="rotate(180 52.8573 49.4375)" fill="#D9E4FC"/>
<ellipse cx="47.7142" cy="49.4375" rx="1.57143" ry="1.5625" transform="rotate(180 47.7142 49.4375)" fill="#D9E4FC"/>
<ellipse cx="42.5716" cy="49.4375" rx="1.57143" ry="1.5625" transform="rotate(180 42.5716 49.4375)" fill="#D9E4FC"/>
<ellipse cx="73.4286" cy="44.3125" rx="1.57143" ry="1.5625" transform="rotate(180 73.4286 44.3125)" fill="#D9E4FC"/>
<ellipse cx="68.2855" cy="44.3125" rx="1.57143" ry="1.5625" transform="rotate(180 68.2855 44.3125)" fill="#D9E4FC"/>
<ellipse cx="63.1429" cy="44.3125" rx="1.57143" ry="1.5625" transform="rotate(180 63.1429 44.3125)" fill="#D9E4FC"/>
<ellipse cx="57.9999" cy="44.3125" rx="1.57143" ry="1.5625" transform="rotate(180 57.9999 44.3125)" fill="#D9E4FC"/>
<ellipse cx="52.8573" cy="44.3125" rx="1.57143" ry="1.5625" transform="rotate(180 52.8573 44.3125)" fill="#D9E4FC"/>
<ellipse cx="47.7142" cy="44.3125" rx="1.57143" ry="1.5625" transform="rotate(180 47.7142 44.3125)" fill="#D9E4FC"/>
<ellipse cx="42.5716" cy="44.3125" rx="1.57143" ry="1.5625" transform="rotate(180 42.5716 44.3125)" fill="#D9E4FC"/>
<ellipse cx="73.4286" cy="39.1875" rx="1.57143" ry="1.5625" transform="rotate(180 73.4286 39.1875)" fill="#D9E4FC"/>
<ellipse cx="68.2855" cy="39.1875" rx="1.57143" ry="1.5625" transform="rotate(180 68.2855 39.1875)" fill="#D9E4FC"/>
<ellipse cx="63.1429" cy="39.1875" rx="1.57143" ry="1.5625" transform="rotate(180 63.1429 39.1875)" fill="#D9E4FC"/>
<ellipse cx="57.9999" cy="39.1875" rx="1.57143" ry="1.5625" transform="rotate(180 57.9999 39.1875)" fill="#D9E4FC"/>
<ellipse cx="52.8573" cy="39.1875" rx="1.57143" ry="1.5625" transform="rotate(180 52.8573 39.1875)" fill="#D9E4FC"/>
<ellipse cx="47.7142" cy="39.1875" rx="1.57143" ry="1.5625" transform="rotate(180 47.7142 39.1875)" fill="#D9E4FC"/>
<ellipse cx="42.5716" cy="39.1875" rx="1.57143" ry="1.5625" transform="rotate(180 42.5716 39.1875)" fill="#D9E4FC"/>
<ellipse cx="73.4286" cy="34.0625" rx="1.57143" ry="1.5625" transform="rotate(180 73.4286 34.0625)" fill="#D9E4FC"/>
<ellipse cx="68.2855" cy="34.0625" rx="1.57143" ry="1.5625" transform="rotate(180 68.2855 34.0625)" fill="#D9E4FC"/>
<ellipse cx="63.1429" cy="34.0625" rx="1.57143" ry="1.5625" transform="rotate(180 63.1429 34.0625)" fill="#D9E4FC"/>
<ellipse cx="57.9999" cy="34.0625" rx="1.57143" ry="1.5625" transform="rotate(180 57.9999 34.0625)" fill="#D9E4FC"/>
<ellipse cx="52.8573" cy="34.0625" rx="1.57143" ry="1.5625" transform="rotate(180 52.8573 34.0625)" fill="#D9E4FC"/>
<ellipse cx="47.7142" cy="34.0625" rx="1.57143" ry="1.5625" transform="rotate(180 47.7142 34.0625)" fill="#D9E4FC"/>
<ellipse cx="42.5716" cy="34.0625" rx="1.57143" ry="1.5625" transform="rotate(180 42.5716 34.0625)" fill="#D9E4FC"/>
<ellipse cx="73.4286" cy="28.9375" rx="1.57143" ry="1.5625" transform="rotate(180 73.4286 28.9375)" fill="#D9E4FC"/>
<ellipse cx="68.2855" cy="28.9375" rx="1.57143" ry="1.5625" transform="rotate(180 68.2855 28.9375)" fill="#D9E4FC"/>
<ellipse cx="63.1429" cy="28.9375" rx="1.57143" ry="1.5625" transform="rotate(180 63.1429 28.9375)" fill="#D9E4FC"/>
<ellipse cx="57.9999" cy="28.9375" rx="1.57143" ry="1.5625" transform="rotate(180 57.9999 28.9375)" fill="#D9E4FC"/>
<ellipse cx="52.8573" cy="28.9375" rx="1.57143" ry="1.5625" transform="rotate(180 52.8573 28.9375)" fill="#D9E4FC"/>
<ellipse cx="47.7142" cy="28.9375" rx="1.57143" ry="1.5625" transform="rotate(180 47.7142 28.9375)" fill="#D9E4FC"/>
<ellipse cx="42.5716" cy="28.9375" rx="1.57143" ry="1.5625" transform="rotate(180 42.5716 28.9375)" fill="#D9E4FC"/>
<ellipse cx="73.4286" cy="23.8125" rx="1.57143" ry="1.5625" transform="rotate(180 73.4286 23.8125)" fill="#D9E4FC"/>
<ellipse cx="68.2855" cy="23.8125" rx="1.57143" ry="1.5625" transform="rotate(180 68.2855 23.8125)" fill="#D9E4FC"/>
<ellipse cx="63.1429" cy="23.8125" rx="1.57143" ry="1.5625" transform="rotate(180 63.1429 23.8125)" fill="#D9E4FC"/>
<ellipse cx="57.9999" cy="23.8125" rx="1.57143" ry="1.5625" transform="rotate(180 57.9999 23.8125)" fill="#D9E4FC"/>
<ellipse cx="52.8573" cy="23.8125" rx="1.57143" ry="1.5625" transform="rotate(180 52.8573 23.8125)" fill="#D9E4FC"/>
<ellipse cx="47.7142" cy="23.8125" rx="1.57143" ry="1.5625" transform="rotate(180 47.7142 23.8125)" fill="#D9E4FC"/>
<ellipse cx="42.5716" cy="23.8125" rx="1.57143" ry="1.5625" transform="rotate(180 42.5716 23.8125)" fill="#D9E4FC"/>
<ellipse cx="73.4286" cy="18.6875" rx="1.57143" ry="1.5625" transform="rotate(180 73.4286 18.6875)" fill="#D9E4FC"/>
<ellipse cx="68.2855" cy="18.6875" rx="1.57143" ry="1.5625" transform="rotate(180 68.2855 18.6875)" fill="#D9E4FC"/>
<ellipse cx="63.1429" cy="18.6875" rx="1.57143" ry="1.5625" transform="rotate(180 63.1429 18.6875)" fill="#D9E4FC"/>
<ellipse cx="57.9999" cy="18.6875" rx="1.57143" ry="1.5625" transform="rotate(180 57.9999 18.6875)" fill="#D9E4FC"/>
<ellipse cx="52.8573" cy="18.6875" rx="1.57143" ry="1.5625" transform="rotate(180 52.8573 18.6875)" fill="#D9E4FC"/>
<ellipse cx="47.7142" cy="18.6875" rx="1.57143" ry="1.5625" transform="rotate(180 47.7142 18.6875)" fill="#D9E4FC"/>
<ellipse cx="42.5716" cy="18.6875" rx="1.57143" ry="1.5625" transform="rotate(180 42.5716 18.6875)" fill="#D9E4FC"/>
<ellipse cx="73.4286" cy="13.5625" rx="1.57143" ry="1.5625" transform="rotate(180 73.4286 13.5625)" fill="#D9E4FC"/>
<ellipse cx="68.2855" cy="13.5625" rx="1.57143" ry="1.5625" transform="rotate(180 68.2855 13.5625)" fill="#D9E4FC"/>
<ellipse cx="63.1429" cy="13.5625" rx="1.57143" ry="1.5625" transform="rotate(180 63.1429 13.5625)" fill="#D9E4FC"/>
<ellipse cx="57.9999" cy="13.5625" rx="1.57143" ry="1.5625" transform="rotate(180 57.9999 13.5625)" fill="#D9E4FC"/>
<ellipse cx="52.8573" cy="13.5625" rx="1.57143" ry="1.5625" transform="rotate(180 52.8573 13.5625)" fill="#D9E4FC"/>
<ellipse cx="47.7142" cy="13.5625" rx="1.57143" ry="1.5625" transform="rotate(180 47.7142 13.5625)" fill="#D9E4FC"/>
<ellipse cx="42.5716" cy="13.5625" rx="1.57143" ry="1.5625" transform="rotate(180 42.5716 13.5625)" fill="#D9E4FC"/>
<rect x="31.25" y="40.25" width="31.5" height="33.5" stroke="#16215D" stroke-width="0.5"/>
<path d="M40 60C51.0457 60 60 51.0457 60 40C60 28.9543 51.0457 20 40 20C28.9543 20 20 28.9543 20 40C20 51.0457 28.9543 60 40 60Z" stroke="#3362CC" stroke-width="3" stroke-linecap="round" stroke-linejoin="round"/>
<path d="M40 28V40L48 44" stroke="#3362CC" stroke-width="3" stroke-linecap="round" stroke-linejoin="round"/>
</svg>
