<svg width="369" height="449" viewBox="0 0 369 449" fill="none" xmlns="http://www.w3.org/2000/svg">
<path d="M260.839 149.431C260.839 149.431 252.745 188.505 247.27 198.488C241.794 208.471 210.401 208.01 210.401 208.01L174.057 206.201C174.057 206.201 167.137 183.553 196.768 195.298C196.768 195.298 221.765 190.536 231.303 182.601L241.302 141.606L260.839 149.431Z" fill="#F5B9AC"/>
<path d="M369 440.726H359.303L332.989 297.586L332.084 292.65L341.448 290.92L342.67 297.586L369 440.726Z" fill="#F1F5FE"/>
<path opacity="0.5" d="M369 440.726H359.303L332.989 297.586L332.084 292.65L341.448 290.92L342.67 297.586L369 440.726Z" fill="white"/>
<path d="M327.18 440.726H317.61L304.469 297.586L303.072 282.35L302.755 278.969L312.23 278.096L312.627 282.35L314.023 297.586L327.18 440.726Z" fill="#F1F5FE"/>
<path opacity="0.5" d="M327.18 440.726H317.61L304.469 297.586L303.072 282.35L302.755 278.969L312.23 278.096L312.627 282.35L314.023 297.586L327.18 440.726Z" fill="white"/>
<path d="M229.319 284.159L228.304 297.586L217.416 440.726H207.862L218.733 297.586L219.813 283.445L229.319 284.159Z" fill="#F1F5FE"/>
<path opacity="0.5" d="M229.319 284.159L228.304 297.586L217.416 440.726H207.862L218.733 297.586L219.813 283.445L229.319 284.159Z" fill="white"/>
<path d="M201.72 284.588L199.577 297.586L175.977 440.726H166.328L189.944 297.586L192.34 283.032L201.72 284.588Z" fill="#F1F5FE"/>
<path opacity="0.5" d="M201.72 284.588L199.577 297.586L175.977 440.726H166.328L189.944 297.586L192.34 283.032L201.72 284.588Z" fill="white"/>
<path d="M357.367 280.112L356.494 282.35L352.32 292.904C351.783 294.288 350.839 295.477 349.611 296.313C348.384 297.149 346.932 297.593 345.447 297.586H188.23C186.704 297.589 185.215 297.121 183.965 296.246C182.715 295.371 181.766 294.132 181.246 292.698L177.548 282.35L176.676 279.89C176.275 278.774 176.15 277.579 176.309 276.404C176.469 275.23 176.909 274.111 177.593 273.142C178.276 272.174 179.183 271.385 180.236 270.841C181.289 270.297 182.458 270.015 183.643 270.018H350.494C351.699 270.017 352.885 270.31 353.95 270.872C355.015 271.435 355.926 272.249 356.604 273.245C357.282 274.24 357.706 275.387 357.839 276.584C357.972 277.781 357.809 278.992 357.367 280.112Z" fill="#F1F5FE"/>
<path opacity="0.3" d="M356.493 282.35L352.319 292.904C351.783 294.288 350.838 295.477 349.611 296.313C348.384 297.149 346.932 297.593 345.447 297.586H188.23C186.704 297.589 185.215 297.121 183.965 296.246C182.715 295.371 181.766 294.132 181.246 292.698L177.548 282.35H356.493Z" fill="black"/>
<path d="M197.276 373.608L204.704 356.737C205.135 355.754 205.909 354.961 206.881 354.505C207.853 354.05 208.957 353.963 209.989 354.261L221.733 357.594C222.348 357.77 222.917 358.076 223.403 358.491C223.888 358.907 224.279 359.421 224.548 360.001C224.818 360.58 224.959 361.211 224.964 361.85C224.968 362.489 224.836 363.121 224.574 363.704C221.4 370.878 215.369 384.241 213.465 389.019C210.878 395.669 208.703 403.683 205.243 405.921C205.032 406.061 204.809 406.183 204.577 406.286C203.848 406.586 203.052 406.684 202.272 406.571C201.493 406.457 200.758 406.136 200.144 405.642C199.531 405.147 199.062 404.496 198.787 403.758C198.511 403.02 198.439 402.221 198.578 401.446C199.498 395.859 200.498 385.416 197.133 376.988C196.928 376.444 196.835 375.864 196.86 375.284C196.884 374.703 197.026 374.133 197.276 373.608Z" fill="#263238"/>
<path d="M261.41 213.247C261.41 213.247 181.183 202.297 156.948 225.087C156.948 225.087 141.934 245.577 149.155 285.683C153.878 310.434 164.138 333.797 179.167 354.023L200.228 336.121C200.228 336.121 181.484 289.952 187.833 261.384L216.972 259.654L258.76 231.086L263.14 219.247L261.41 213.247Z" fill="#263238"/>
<path d="M181.104 362.085L173.248 352.547L202.037 328.868L207.481 334.534L181.104 362.085Z" fill="#F1F5FE"/>
<path d="M340.273 212.375C340.273 212.375 342.495 235.229 335.242 251.957C327.989 268.685 302.358 274.811 285.074 273.7C267.791 272.589 245.492 271.161 236.017 273.827C236.017 273.827 223.749 343.39 202.561 394.113L176.914 391.891C176.914 391.891 190.848 293.713 193.086 270.907C195.324 248.1 194.197 244.704 208.132 233.563C222.066 222.421 293.438 207.36 340.273 212.375Z" fill="#263238"/>
<path d="M196.038 403.302L193.61 413.92L173.248 421.046L179.167 398.43L196.038 403.302Z" fill="#F5B9AC"/>
<path d="M172.978 420.38L190.277 413.952C191.285 413.58 192.393 413.586 193.396 413.968C194.4 414.35 195.231 415.083 195.737 416.031L201.514 426.776C201.827 427.341 202.014 427.968 202.06 428.613C202.107 429.258 202.012 429.906 201.782 430.51C201.552 431.115 201.193 431.662 200.73 432.113C200.267 432.565 199.711 432.91 199.101 433.124C191.721 435.806 177.961 440.821 173.247 442.821C166.677 445.614 159.408 449.63 155.393 448.693C155.145 448.641 154.901 448.573 154.663 448.487C153.939 448.17 153.315 447.665 152.853 447.024C152.392 446.384 152.111 445.631 152.04 444.845C151.968 444.058 152.109 443.267 152.448 442.554C152.786 441.841 153.31 441.232 153.964 440.79C158.614 437.615 166.804 431.013 170.502 422.729C170.734 422.19 171.073 421.704 171.499 421.3C171.924 420.896 172.427 420.583 172.978 420.38Z" fill="#263238"/>
<path d="M260.839 218.501C260.839 218.501 250.396 149.43 248.143 132.623C245.889 115.816 248.143 107.229 254.491 101.722C260.839 96.215 289.947 84.4546 309.484 87.6288C329.021 90.803 338.56 107.166 341.226 125.719L336.687 127.989C336.687 127.989 342.496 192.361 340.385 214.628L260.839 218.501Z" fill="#B6CCFB"/>
<path d="M254.475 101.675C254.475 101.675 239.033 115.308 239.033 141.654L263.109 150.875L254.475 101.675Z" fill="#B6CCFB"/>
<path d="M337.052 127.735C337.052 127.735 345.797 158.651 343.4 171.428C341.004 184.204 319.245 201.344 288.995 207.058C288.995 207.058 275.552 209.407 267.807 203.027L256.046 199.662L259.411 189.235C268.374 189.394 277.2 191.466 285.297 195.313C285.297 195.313 314.198 182.204 323.276 172.126C323.276 172.126 322.26 151.621 317.229 137.21L337.052 127.735Z" fill="#F5B9AC"/>
<path d="M206.132 394.113L172.374 389.034L171.152 399.652L201.783 405.905L206.132 394.113Z" fill="#F1F5FE"/>
<path d="M237.556 59.1087C235.466 65.2092 235.726 71.8701 238.287 77.7888C237.097 73.0679 237.318 68.1018 238.921 63.505C240.509 59.1563 243.127 55.3314 245.159 51.205C247.19 47.0785 248.571 42.2696 247.222 37.8734C246.936 37.0005 246.301 35.9847 245.397 36.1275C244.492 36.2704 244.302 37.0322 244.048 37.7146C243.172 39.5229 242.502 41.4234 242.048 43.3806C241.826 44.8883 242.048 46.3802 241.826 47.9197C241.08 51.7922 238.874 55.3155 237.556 59.1087Z" fill="#263238"/>
<path d="M246.904 45.7296C245.685 46.1896 244.62 46.9823 243.829 48.0175C243.038 49.0527 242.553 50.289 242.429 51.586C240.063 50.0618 238.303 47.7593 237.454 45.076C236.605 42.3927 236.72 39.4971 237.779 36.8894C241.445 27.3668 246.412 13.8607 261.204 15.8287C275.996 17.7967 307.008 22.177 295.898 55.2204C284.788 88.2638 273.774 47.9039 273.774 47.9039L246.904 45.7296Z" fill="#263238"/>
<path d="M279.266 107.483C265.791 106.642 271.505 95.0248 272.124 90.7237C272.287 88.8476 271.878 86.9659 270.949 85.3276C270.321 84.1109 269.554 82.9711 268.664 81.9312C262.76 81.9312 256.221 81.1376 251.539 77.1699C246.302 72.8054 244.222 64.6636 243.365 58.2041C242.693 52.2286 242.576 46.2036 243.016 40.2064C243.016 39.3177 243.143 38.4447 243.175 37.5718C243.381 34.1278 243.603 30.6997 243.73 27.3351C243.73 27.3351 256.792 24.4624 268.457 27.1287C277.091 29.0967 283.154 36.2704 285.773 47.5547C286.737 51.8523 287.221 56.2437 287.217 60.6482C287.455 79.4077 294.803 82.693 297.676 88.2002C300.549 93.7075 292.772 108.277 279.266 107.483Z" fill="#F5B9AC"/>
<path d="M255.189 62.2671L252.015 50.1893L249.841 62.886C249.841 62.886 251.602 64.3303 255.189 62.2671Z" fill="#FF5652"/>
<path d="M264.522 64.3303C264.522 64.3303 262.538 68.5837 256.221 69.3297" stroke="#263238" stroke-width="0.5" stroke-linecap="round" stroke-linejoin="round"/>
<path d="M263.855 43.8725C262.993 42.9247 261.862 42.2642 260.613 41.9803C259.364 41.6965 258.058 41.803 256.872 42.2854" stroke="#263238" stroke-width="0.75" stroke-linecap="round" stroke-linejoin="round"/>
<path d="M258.84 49.7924C258.951 51.0145 259.665 51.9509 260.427 51.8874C261.188 51.8239 261.728 50.7765 261.633 49.5544C261.538 48.3323 260.808 47.3959 260.046 47.4594C259.284 47.5229 258.744 48.5704 258.84 49.7924Z" fill="#263238"/>
<path d="M244.81 53.2523C244.921 54.4744 245.635 55.4108 246.397 55.3473C247.158 55.2838 247.698 54.2363 247.603 53.0143C247.508 51.7922 246.778 50.8399 246.016 50.9193C245.254 50.9987 244.81 52.0303 244.81 53.2523Z" fill="#263238"/>
<path d="M242.778 37.7623C247.869 36.599 252.648 34.3525 256.792 31.1759C261.458 46.6024 281.329 47.1579 286.297 47.1579C283.694 35.8736 277.441 28.0334 268.838 26.0654C257.189 23.3991 243.445 26.478 243.445 26.478C243.318 29.8586 242.969 34.3342 242.778 37.7623Z" fill="#263238"/>
<path d="M260.046 47.4595L256.792 46.8406C256.792 46.8406 257.634 49.2053 260.046 47.4595Z" fill="#263238"/>
<path d="M246.667 50.9829L243.413 50.3798C243.413 50.3798 244.254 52.7287 246.667 50.9829Z" fill="#263238"/>
<path d="M289.615 18.2936C291.234 11.5878 286.841 4.77467 279.803 3.0759C272.765 1.37712 265.747 5.43604 264.128 12.1417C262.51 18.8475 266.903 25.6606 273.941 27.3594C280.979 29.0582 287.997 24.9993 289.615 18.2936Z" fill="#263238"/>
<path d="M252.539 33.4296L249.904 36.8895C249.904 36.8895 256.872 35.6833 258.411 30.922C259.951 26.1607 254.142 29.8904 254.142 29.8904L252.539 33.4296Z" fill="#263238"/>
<path opacity="0.1" d="M277.567 78.1539C275.861 80.9621 273.611 83.4011 270.949 85.3276C270.321 84.1108 269.554 82.9711 268.664 81.9312C271.804 81.124 274.805 79.8508 277.567 78.1539Z" fill="black"/>
<path d="M241.826 47.8245C242.189 46.6953 242.939 45.7304 243.943 45.1003C244.948 44.4701 246.143 44.2152 247.318 44.3805" stroke="#263238" stroke-width="0.75" stroke-linecap="round" stroke-linejoin="round"/>
<path d="M282.233 49.0943C282.668 48.4463 283.162 47.8405 283.709 47.285C285.566 45.3963 288.598 42.9205 291.407 44.3012C294.803 45.8883 294.089 50.729 293.137 53.6492C292.369 56.2631 290.617 58.4767 288.248 59.8231C284.9 61.553 279.916 60.6325 279.948 56.1251C280.001 53.6076 280.796 51.1619 282.233 49.0943Z" fill="#F5B9AC"/>
<path d="M285.772 43.9043C285.772 43.9043 280.218 53.2682 282.487 61.5528C284.757 69.8375 283.503 73.7417 281.932 78.138C281.932 78.138 282.551 65.5523 279.948 61.0132C275.98 54.0776 281.535 43.8726 281.535 43.8726L285.772 43.9043Z" fill="#263238"/>
<path d="M264.315 15.9715C264.315 15.9715 278.694 17.6855 287.344 23.5895C287.344 23.5102 279.837 13.5273 264.315 15.9715Z" fill="#F1F5FE"/>
<path d="M86.7982 202.487H177.263C178.181 202.488 179.088 202.279 179.914 201.877C180.74 201.475 181.464 200.889 182.03 200.166C182.596 199.442 182.99 198.599 183.181 197.7C183.373 196.802 183.357 195.872 183.135 194.98L167.042 130.845C166.716 129.535 165.96 128.371 164.896 127.54C163.832 126.709 162.52 126.258 161.17 126.259H70.705C69.7863 126.258 68.8794 126.467 68.0534 126.869C67.2274 127.271 66.5039 127.856 65.9379 128.58C65.3718 129.304 64.9781 130.147 64.7866 131.045C64.5951 131.944 64.6109 132.874 64.8327 133.766L80.8307 197.9C81.1605 199.227 81.9301 200.402 83.0138 201.235C84.0975 202.068 85.4315 202.509 86.7982 202.487Z" fill="#263238"/>
<path d="M235.621 202.265H174.136V197.504H232.478C233.32 197.504 234.127 197.838 234.723 198.433C235.318 199.029 235.652 199.836 235.652 200.678V202.36L235.621 202.265Z" fill="#263238"/>
<path opacity="0.3" d="M86.7982 202.487H177.263C178.181 202.488 179.088 202.279 179.914 201.877C180.74 201.475 181.464 200.889 182.03 200.166C182.596 199.442 182.99 198.599 183.181 197.7C183.373 196.802 183.357 195.872 183.135 194.98L167.042 130.845C166.716 129.535 165.96 128.371 164.896 127.54C163.832 126.709 162.52 126.258 161.17 126.259H70.705C69.7863 126.258 68.8794 126.467 68.0534 126.869C67.2274 127.271 66.5039 127.856 65.9379 128.58C65.3718 129.304 64.9781 130.147 64.7866 131.045C64.5951 131.944 64.6109 132.874 64.8327 133.766L80.8307 197.9C81.1605 199.227 81.9301 200.402 83.0138 201.235C84.0975 202.068 85.4315 202.509 86.7982 202.487Z" fill="black"/>
<path d="M82.0528 202.487H172.517C173.436 202.488 174.343 202.279 175.169 201.877C175.995 201.475 176.718 200.889 177.284 200.166C177.85 199.442 178.244 198.599 178.436 197.7C178.627 196.802 178.611 195.872 178.39 194.98L162.281 130.845C161.954 129.535 161.199 128.371 160.135 127.54C159.071 126.709 157.759 126.258 156.408 126.259H65.9438C65.025 126.258 64.1182 126.467 63.2922 126.869C62.4662 127.271 61.7427 127.856 61.1766 128.58C60.6106 129.304 60.2169 130.147 60.0254 131.045C59.8339 131.944 59.8497 132.874 60.0715 133.766L76.0694 197.9C76.4025 199.228 77.1751 200.404 78.2615 201.237C79.3479 202.07 80.6841 202.51 82.0528 202.487Z" fill="#263238"/>
<path opacity="0.2" d="M82.0528 202.487H172.517C173.436 202.488 174.343 202.279 175.169 201.877C175.995 201.475 176.718 200.889 177.284 200.166C177.85 199.442 178.244 198.599 178.436 197.7C178.627 196.802 178.611 195.872 178.39 194.98L162.281 130.845C161.954 129.535 161.199 128.371 160.135 127.54C159.071 126.709 157.759 126.258 156.408 126.259H65.9438C65.025 126.258 64.1182 126.467 63.2922 126.869C62.4662 127.271 61.7427 127.856 61.1766 128.58C60.6106 129.304 60.2169 130.147 60.0254 131.045C59.8339 131.944 59.8497 132.874 60.0715 133.766L76.0694 197.9C76.4025 199.228 77.1751 200.404 78.2615 201.237C79.3479 202.07 80.6841 202.51 82.0528 202.487Z" fill="white"/>
<path opacity="0.3" d="M123.254 162.492C124.508 167.841 121.984 173.031 117.604 174.062C113.223 175.094 108.621 171.602 107.351 166.254C106.081 160.905 108.621 155.715 113.001 154.684C117.382 153.652 121.984 157.223 123.254 162.492Z" fill="black"/>
<path d="M60.1031 208.058L26.7264 415.047H19.3306L52.8977 206.883L60.1031 208.058Z" fill="#F1F5FE"/>
<path opacity="0.5" d="M60.1031 208.058L26.7264 415.047H19.3306L52.8977 206.883L60.1031 208.058Z" fill="white"/>
<path d="M109.208 415.047H101.796L69.5464 208.042L76.7677 206.915L109.208 415.047Z" fill="#F1F5FE"/>
<path opacity="0.5" d="M109.208 415.047H101.796L69.5464 208.042L76.7677 206.915L109.208 415.047Z" fill="white"/>
<path d="M186.214 208.058L152.838 415.047H145.426L178.993 206.883L186.214 208.058Z" fill="#F1F5FE"/>
<path opacity="0.5" d="M186.214 208.058L152.838 415.047H145.426L178.993 206.883L186.214 208.058Z" fill="white"/>
<path d="M297.612 415.047H290.216L257.951 208.042L265.172 206.915L297.612 415.047Z" fill="#F1F5FE"/>
<path opacity="0.5" d="M297.612 415.047H290.216L257.951 208.042L265.172 206.915L297.612 415.047Z" fill="white"/>
<path d="M306.706 200.995H0V210.629H306.706V200.995Z" fill="#F1F5FE"/>
<path opacity="0.3" d="M306.849 200.995H183.23V210.629H306.849V200.995Z" fill="black"/>
<path d="M295.708 200.995H245.048C245.048 200.246 245.346 199.527 245.875 198.998C246.405 198.468 247.124 198.17 247.873 198.17H292.867C293.618 198.17 294.338 198.467 294.87 198.997C295.403 199.526 295.704 200.245 295.708 200.995Z" fill="#263238"/>
<path d="M277.313 173.999L270.489 190.378C269.235 190.124 268.108 189.949 267.314 189.838L274.425 172.777C274.587 172.387 274.897 172.078 275.287 171.918C275.677 171.757 276.114 171.758 276.504 171.92C276.893 172.082 277.202 172.392 277.363 172.782C277.524 173.172 277.523 173.609 277.361 173.999H277.313Z" fill="#263238"/>
<path d="M317.229 137.146L316.15 133.321L340.448 121.212L341.274 125.799L317.229 137.146Z" fill="#263238"/>
<path opacity="0.1" d="M316.15 133.321L308.786 122.291L320.483 149.621L316.15 133.321Z" fill="black"/>
<path d="M250 145.844L249.333 141.701L239.033 137.781V141.701L250 145.844Z" fill="#263238"/>
<path opacity="0.1" d="M249.999 145.844C249.793 145.05 247.27 127.735 247.27 127.735V144.812L249.999 145.844Z" fill="black"/>
<path d="M270.52 93.6441C270.52 93.6441 263.569 109.166 279.948 108.674C296.327 108.182 300.453 96.0882 301.278 87.0894L296.168 85.3277C296.168 85.3277 293.216 98.0245 282.138 100.548C271.06 103.071 271.981 91.5174 271.981 91.5174L270.52 93.6441Z" fill="#263238"/>
<path opacity="0.1" d="M177.453 404.953L194.737 409.016L195.721 404.683L178.453 401.144L177.453 404.953Z" fill="black"/>
</svg>
