<svg width="80" height="40" viewBox="0 0 80 40" fill="none" xmlns="http://www.w3.org/2000/svg">
<path d="M0 17.5323H3.98454V0H0V17.5323Z" fill="#30396E"/>
<path d="M6.42515 17.5323H10.1349V10.7142C10.1349 9.04445 11.0692 8.07043 12.4707 8.07043C13.8721 8.07043 14.8064 9.04445 14.8064 10.7142V17.5323H18.5162V10.0185C18.5162 6.67898 16.4277 4.5918 13.4324 4.5918C12.3333 4.5918 11.399 4.95358 10.7394 5.28752C10.3547 5.48233 10.025 5.73279 9.7227 5.98325L9.17311 4.73094H6.42515V17.5323Z" fill="#30396E"/>
<path d="M28.5276 17.5323H31.2756V9.74018C31.2756 6.67898 29.0772 4.45265 26.0545 4.45265C22.7294 4.45265 20.9982 6.23371 20.5585 8.76616L24.2683 9.04445C24.3232 8.82182 24.4332 8.62701 24.5706 8.43221C24.8179 8.12609 25.2301 7.79214 25.9171 7.79214C26.8788 7.79214 27.5658 8.48787 27.5658 9.74018C21.7951 9.74018 20.0089 11.5212 20.0089 14.0537C20.0089 16.1687 21.5203 17.6715 24.2683 17.6715C25.3675 17.6715 26.2743 17.3375 26.9338 16.9757C27.3185 16.7809 27.6758 16.5305 27.978 16.28L28.5276 17.5323ZM27.5658 12.5231C27.5658 13.9424 26.6315 14.8886 25.2301 14.8886C24.2683 14.8886 23.7187 14.332 23.7187 13.6362C23.7187 12.6622 24.3782 11.9665 27.5658 11.9665V12.5231Z" fill="#30396E"/>
<path d="M33.1859 17.9498C33.4607 18.7568 33.8729 19.4804 34.395 20.1204C35.2744 21.2058 36.7583 22.2633 39.094 22.2633C42.9137 22.2633 45.4143 19.7586 45.4143 16.4192V4.73094H42.6664L42.1168 5.98325C41.8145 5.73279 41.5122 5.48233 41.155 5.28752C40.523 4.95358 39.6436 4.5918 38.5444 4.5918C35.3568 4.5918 32.7737 7.26339 32.7737 10.7142C32.7737 14.165 35.3568 16.8366 38.5444 16.8366C39.6436 16.8366 40.4131 16.5861 40.9352 16.28C41.2374 16.113 41.5122 15.9182 41.7046 15.7234V16.4192C41.7046 17.8384 40.6329 18.9238 39.094 18.9238C38.2422 18.9238 37.6926 18.6177 37.3628 18.3115C37.1705 18.1167 37.0056 17.9219 36.8957 17.6715L33.1859 17.9498ZM36.4835 10.7142C36.4835 9.15577 37.5552 8.07043 39.094 8.07043C40.6329 8.07043 41.7046 9.15577 41.7046 10.7142C41.7046 12.2726 40.6329 13.358 39.094 13.358C37.5552 13.358 36.4835 12.2726 36.4835 10.7142Z" fill="#30396E"/>
<path d="M55.56 17.5323H58.3079V9.74018C58.3079 6.67898 56.1096 4.45265 53.0868 4.45265C49.7618 4.45265 48.0306 6.23371 47.5909 8.76616L51.3006 9.04445C51.3556 8.82182 51.4655 8.62701 51.6029 8.43221C51.8502 8.12609 52.2624 7.79214 52.9494 7.79214C53.9112 7.79214 54.5982 8.48787 54.5982 9.74018C48.8275 9.74018 47.0413 11.5212 47.0413 14.0537C47.0413 16.1687 48.5527 17.6715 51.3006 17.6715C52.3998 17.6715 53.3066 17.3375 53.9661 16.9757C54.3509 16.7809 54.7081 16.5305 55.0104 16.28L55.56 17.5323ZM54.5982 12.5231C54.5982 13.9424 53.6639 14.8886 52.2624 14.8886C51.3006 14.8886 50.751 14.332 50.751 13.6362C50.751 12.6622 51.4105 11.9665 54.5982 11.9665V12.5231Z" fill="#30396E"/>
<path d="M61.1865 12.9405C61.1865 16.0295 62.8353 17.6715 65.7206 17.6715C66.2153 17.6715 66.6549 17.6158 67.0122 17.5323C67.2045 17.5045 67.3694 17.4488 67.5068 17.3932V14.0537L67.232 14.1372C67.0396 14.165 66.8473 14.1928 66.545 14.1928C65.5832 14.1928 64.8962 13.4971 64.8962 12.3839V8.20958H67.5068V4.73094H64.8962V1.66974H61.7361V3.47864C61.7361 4.50831 61.2415 5.00923 60.2247 5.00923H59.2629V8.20958H61.1865V12.9405Z" fill="#30396E"/>
<path d="M77.252 17.5323H80V9.74018C80 6.67898 77.8016 4.45265 74.7789 4.45265C71.4538 4.45265 69.7226 6.23371 69.283 8.76616L72.9927 9.04445C73.0477 8.82182 73.1576 8.62701 73.295 8.43221C73.5423 8.12609 73.9545 7.79214 74.6415 7.79214C75.6033 7.79214 76.2903 8.48787 76.2903 9.74018C70.5195 9.74018 68.7334 11.5212 68.7334 14.0537C68.7334 16.1687 70.2447 17.6715 72.9927 17.6715C74.0919 17.6715 74.9987 17.3375 75.6582 16.9757C76.0429 16.7809 76.4002 16.5305 76.7024 16.28L77.252 17.5323ZM76.2903 12.5231C76.2903 13.9424 75.356 14.8886 73.9545 14.8886C72.9927 14.8886 72.4431 14.332 72.4431 13.6362C72.4431 12.6622 73.1026 11.9665 76.2903 11.9665V12.5231Z" fill="#30396E"/>
<path d="M13.3642 22.2822L13.2726 26.1968H12.5765C12.6009 25.467 12.5582 24.861 12.4483 24.3786C12.3383 23.8962 12.1185 23.5376 11.7887 23.3026C11.4712 23.0552 10.9949 22.9377 10.3598 22.9501L8.80263 22.9686L8.19808 33.0613C8.18587 33.3952 8.16755 33.6859 8.14312 33.9333C8.1187 34.1683 8.09427 34.3662 8.06984 34.527C8.32632 34.5146 8.57669 34.5022 8.82095 34.4898C9.07743 34.4775 9.33391 34.4651 9.59038 34.4527L9.55374 35.2691H5.32188L5.35852 34.6568C5.76156 34.6321 6.04857 34.5208 6.21955 34.3229C6.40275 34.125 6.52488 33.859 6.58595 33.5251C6.64701 33.1788 6.68976 32.7954 6.71418 32.3748L7.2821 22.9686L5.39516 22.9872C4.62573 22.9872 4.07003 23.2469 3.72807 23.7664C3.3861 24.2859 3.18458 25.096 3.12352 26.1968H2.44568L2.75712 22.2822H13.3642Z" fill="#30396E"/>
<path d="M17.6866 25.7886C18.1262 25.7886 18.5415 25.8566 18.9323 25.9927C19.3231 26.1288 19.6407 26.3514 19.8849 26.6606C20.1292 26.9698 20.2513 27.3903 20.2513 27.9222C20.2513 28.4293 20.0803 28.8684 19.7384 29.2394C19.3964 29.6105 18.9506 29.9197 18.401 30.1671C17.8514 30.4021 17.2652 30.5938 16.6423 30.7422C16.0195 30.8906 15.421 30.9957 14.847 31.0576C14.847 33.3829 15.5432 34.5455 16.9355 34.5455C17.4728 34.5455 18.0041 34.3662 18.5293 34.0075C19.0666 33.6488 19.5369 33.0798 19.9399 32.3006L20.5444 32.6531C20.0315 33.6302 19.4575 34.3476 18.8224 34.8052C18.1873 35.2505 17.4545 35.4731 16.624 35.4731C15.4638 35.4731 14.6088 35.1083 14.0593 34.3785C13.5097 33.6364 13.2349 32.6655 13.2349 31.4658C13.2349 30.7484 13.3265 30.0496 13.5097 29.3693C13.6929 28.689 13.9677 28.083 14.334 27.5511C14.7004 27.0069 15.1645 26.5802 15.7263 26.271C16.2882 25.9494 16.9416 25.7886 17.6866 25.7886ZM17.4301 26.4194C16.8683 26.4194 16.4042 26.6111 16.0378 26.9945C15.6836 27.378 15.4088 27.8727 15.2134 28.4788C15.0302 29.0848 14.9142 29.7218 14.8653 30.3897C15.5126 30.3031 16.1294 30.1485 16.7156 29.9259C17.3018 29.7032 17.7843 29.4188 18.1629 29.0725C18.5415 28.7138 18.7308 28.2994 18.7308 27.8294C18.7308 27.4336 18.6209 27.0997 18.401 26.8276C18.1934 26.5555 17.8698 26.4194 17.4301 26.4194Z" fill="#30396E"/>
<path d="M34.6793 35.4731C34.1052 35.4731 33.7144 35.3185 33.5068 35.0093C33.3114 34.7001 33.2137 34.261 33.2137 33.6921C33.2137 33.2344 33.2686 32.6717 33.3786 32.0038C33.4885 31.3235 33.5984 30.6185 33.7083 29.8888C33.8182 29.1467 33.8732 28.4478 33.8732 27.7923C33.8732 27.6439 33.8488 27.4831 33.7999 27.3099C33.7511 27.1368 33.6656 26.9884 33.5434 26.8647C33.4213 26.7286 33.2381 26.6606 32.9938 26.6606C32.6519 26.6606 32.316 26.8214 31.9863 27.143C31.6565 27.4645 31.3512 27.8974 31.0703 28.4417C30.7894 28.9859 30.539 29.5919 30.3192 30.2598C30.1115 30.9154 29.9467 31.5956 29.8245 32.3006C29.7024 32.9933 29.6413 33.655 29.6413 34.2858C29.6413 34.4713 29.6413 34.6445 29.6413 34.8052C29.6535 34.9537 29.6658 35.1083 29.678 35.2691H28.1391C28.1269 35.1825 28.1208 35.1083 28.1208 35.0464C28.1208 34.9722 28.1208 34.8856 28.1208 34.7867C28.1208 34.3167 28.1513 33.7601 28.2124 33.1169C28.2857 32.4738 28.3651 31.8121 28.4506 31.1318C28.5483 30.4515 28.6276 29.8084 28.6887 29.2023C28.762 28.5963 28.7925 28.1015 28.7803 27.7181C28.7681 27.5078 28.707 27.279 28.5971 27.0317C28.4872 26.7843 28.2551 26.6606 27.901 26.6606C27.559 26.6606 27.2231 26.8214 26.8934 27.143C26.5758 27.4645 26.2766 27.8974 25.9957 28.4417C25.7148 28.9859 25.4644 29.5919 25.2446 30.2598C25.0248 30.9154 24.8538 31.5956 24.7316 32.3006C24.6095 32.9933 24.5484 33.655 24.5484 34.2858C24.5484 34.4713 24.5484 34.6445 24.5484 34.8052C24.5607 34.9537 24.5729 35.1083 24.5851 35.2691H23.0462C23.034 35.1825 23.0279 35.1083 23.0279 35.0464C23.0279 34.9722 23.0279 34.8856 23.0279 34.7867C23.0279 34.5764 23.034 34.3352 23.0462 34.0631C23.0707 33.7787 23.1073 33.4076 23.1561 32.95C23.2172 32.48 23.2905 31.8554 23.376 31.0761C23.4615 30.3464 23.5286 29.7775 23.5775 29.3693C23.6264 28.9611 23.663 28.6519 23.6874 28.4417C23.7118 28.219 23.7241 28.0521 23.7241 27.9407C23.7363 27.817 23.7424 27.6872 23.7424 27.5511C23.7424 27.3285 23.7118 27.1368 23.6508 26.976C23.5897 26.8028 23.4554 26.7163 23.2477 26.7163C23.0523 26.7163 22.8264 26.8523 22.5699 27.1244C22.3134 27.3965 22.0936 27.8603 21.9104 28.5159L21.3975 28.4046C21.4341 28.1819 21.5074 27.9284 21.6173 27.6439C21.7394 27.347 21.8982 27.0564 22.0936 26.7719C22.289 26.4874 22.5272 26.2524 22.8081 26.0669C23.089 25.8814 23.4126 25.7886 23.779 25.7886C24.1821 25.7886 24.4813 25.8938 24.6767 26.104C24.8721 26.3019 25.0003 26.5678 25.0614 26.9018C25.1347 27.2234 25.1591 27.5759 25.1347 27.9593C25.1225 28.3056 25.0858 28.6581 25.0248 29.0168C24.9637 29.3631 24.9087 29.6661 24.8599 29.9259H24.9148C25.3057 28.8003 25.6904 27.9407 26.069 27.347C26.4598 26.7534 26.8384 26.3452 27.2048 26.1226C27.5834 25.8999 27.9376 25.7886 28.2674 25.7886C28.7559 25.7886 29.1406 25.9061 29.4215 26.1411C29.7146 26.3638 29.9222 26.6359 30.0444 26.9574C30.1665 27.279 30.2276 27.5944 30.2276 27.9036C30.2276 28.2499 30.2031 28.5468 30.1543 28.7942C30.1054 29.0415 30.026 29.4002 29.9161 29.8702H29.9711C30.3741 28.7447 30.771 27.8913 31.1619 27.3099C31.5649 26.7163 31.9557 26.3143 32.3343 26.104C32.7129 25.8938 33.0671 25.7886 33.3969 25.7886C33.8854 25.7886 34.2701 25.8999 34.551 26.1226C34.8319 26.3452 35.0273 26.642 35.1373 27.0131C35.2594 27.3718 35.3204 27.7676 35.3204 28.2005C35.3204 28.8807 35.2716 29.5796 35.1739 30.2969C35.0762 31.0019 34.9724 31.6575 34.8625 32.2635C34.7648 32.8572 34.7159 33.3334 34.7159 33.6921C34.7159 33.9147 34.7403 34.1126 34.7892 34.2858C34.8502 34.4589 34.9907 34.5455 35.2105 34.5455C35.4182 34.5455 35.6502 34.4156 35.9067 34.1559C36.1632 33.8838 36.383 33.4138 36.5662 32.7459L37.0791 32.8758C37.0425 33.086 36.9631 33.3396 36.841 33.6364C36.7189 33.9333 36.5601 34.2239 36.3647 34.5084C36.1693 34.7805 35.9311 35.0093 35.6502 35.1948C35.3693 35.3804 35.0457 35.4731 34.6793 35.4731Z" fill="#30396E"/>
<path d="M38.068 40V39.4434C38.41 39.4434 38.6481 39.3259 38.7825 39.0909C38.929 38.8559 39.0206 38.5405 39.0573 38.1447C39.1061 37.7613 39.1488 37.3284 39.1855 36.846C39.271 35.7823 39.3565 34.7558 39.442 33.7663C39.5397 32.7644 39.6252 31.8554 39.6984 31.039C39.7839 30.2104 39.8511 29.5053 39.9 28.924C39.9488 28.3427 39.9732 27.9345 39.9732 27.6995C39.9732 27.4522 39.9488 27.2295 39.9 27.0317C39.8633 26.8214 39.7229 26.7163 39.4786 26.7163C39.2832 26.7163 39.0572 26.8523 38.8008 27.1244C38.5565 27.3965 38.3428 27.8603 38.1596 28.5159L37.6283 28.4046C37.6649 28.1819 37.7382 27.9284 37.8481 27.6439C37.9703 27.347 38.129 27.0564 38.3245 26.7719C38.5199 26.4874 38.758 26.2524 39.0389 26.0669C39.3198 25.8814 39.6435 25.7886 40.0099 25.7886C40.5595 25.7886 40.9259 25.9865 41.1091 26.3823C41.3045 26.7657 41.4022 27.2172 41.4022 27.7367C41.4022 28.1077 41.3716 28.4849 41.3106 28.8684C41.2617 29.2394 41.2068 29.5672 41.1457 29.8517H41.2007C41.5426 28.7138 41.8907 27.8542 42.2449 27.2728C42.6113 26.6915 42.9838 26.3019 43.3624 26.104C43.741 25.8938 44.1074 25.7886 44.4616 25.7886C45.0234 25.7886 45.4875 25.9556 45.8539 26.2895C46.2203 26.6111 46.489 27.044 46.6599 27.5882C46.8431 28.1324 46.9347 28.7323 46.9347 29.3878C46.9347 30.5876 46.7271 31.6451 46.3119 32.5604C45.9088 33.4756 45.3043 34.193 44.4982 34.7125C43.7044 35.2196 42.7151 35.4731 41.5304 35.4731C41.2373 35.4731 40.9503 35.4546 40.6694 35.4175C40.6083 36.3575 40.5595 37.081 40.5228 37.5881C40.4984 38.1076 40.474 38.4849 40.4496 38.7199C40.4373 38.9672 40.4129 39.1589 40.3763 39.295C40.5717 39.2826 40.761 39.2703 40.9442 39.2579C41.1396 39.2579 41.335 39.2517 41.5304 39.2393V40H38.068ZM41.8419 34.8423C42.4891 34.8423 43.0326 34.6877 43.4723 34.3785C43.9242 34.0569 44.2845 33.6426 44.5532 33.1355C44.8341 32.616 45.0356 32.0594 45.1577 31.4658C45.2921 30.8597 45.3592 30.2784 45.3592 29.7218C45.3592 29.1528 45.3226 28.6396 45.2493 28.1819C45.176 27.7119 45.0478 27.3409 44.8646 27.0688C44.6814 26.7966 44.4188 26.6606 44.0769 26.6606C43.7471 26.6606 43.4173 26.8399 43.0876 27.1986C42.7578 27.5573 42.4525 28.0397 42.1716 28.6457C41.8907 29.2394 41.6403 29.9011 41.4205 30.6309C41.2007 31.3606 41.0358 32.1027 40.9259 32.8572C40.877 33.1293 40.8343 33.4138 40.7976 33.7106C40.7732 33.9951 40.7488 34.2981 40.7243 34.6197C40.9198 34.6816 41.103 34.7372 41.2739 34.7867C41.4571 34.8238 41.6464 34.8423 41.8419 34.8423Z" fill="#30396E"/>
<path d="M51.6848 21.2618C51.6482 21.571 51.5932 21.9173 51.52 22.3007C51.4589 22.6841 51.3978 23.0614 51.3368 23.4324C51.2879 23.8035 51.2452 24.1312 51.2085 24.4157C51.1353 24.9352 51.062 25.5289 50.9887 26.1968C50.9154 26.8523 50.8421 27.5388 50.7689 28.2561C50.6956 28.9611 50.6284 29.6538 50.5673 30.334C50.5185 31.0143 50.4757 31.6389 50.4391 32.2079C50.4025 32.7644 50.3841 33.2221 50.3841 33.5808C50.3841 33.8158 50.4086 34.0384 50.4574 34.2487C50.5063 34.4466 50.6467 34.5455 50.8788 34.5455C51.0864 34.5455 51.3123 34.4156 51.5566 34.1559C51.8131 33.8838 52.0329 33.4138 52.2161 32.7459L52.7291 32.8758C52.6924 33.086 52.613 33.3396 52.4909 33.6364C52.381 33.9333 52.2283 34.2239 52.0329 34.5084C51.8375 34.7805 51.5994 35.0093 51.3185 35.1948C51.0498 35.3804 50.7322 35.4731 50.3658 35.4731C49.8651 35.4731 49.4987 35.3495 49.2666 35.1021C49.0346 34.8423 48.9125 34.4651 48.9002 33.9704C48.888 33.6612 48.9002 33.2035 48.9369 32.5975C48.9857 31.9914 49.0407 31.305 49.1018 30.5381C49.175 29.7589 49.2544 28.9488 49.3399 28.1077C49.4254 27.2543 49.517 26.4256 49.6147 25.6216C49.7124 24.8177 49.804 24.088 49.8895 23.4324C49.9506 23.0985 49.9872 22.882 49.9994 22.7831C50.0239 22.6718 50.0422 22.5543 50.0544 22.4306C49.8345 22.4429 49.6147 22.4553 49.3949 22.4677C49.1873 22.4801 48.9735 22.4924 48.7537 22.5048L48.8453 21.7627C49.3827 21.7627 49.7979 21.7379 50.091 21.6885C50.3964 21.639 50.6284 21.5772 50.7872 21.5029C50.9459 21.4287 51.0742 21.3483 51.1719 21.2618H51.6848Z" fill="#30396E"/>
<path d="M58.9798 25.7886C59.3462 25.7886 59.7492 25.8195 60.1889 25.8814C60.6286 25.9309 61.0438 26.0051 61.4347 26.104C61.3125 27.0811 61.1843 28.0582 61.0499 29.0353C60.9278 30.0125 60.824 30.8906 60.7385 31.6698C60.6652 32.4367 60.6286 33.0242 60.6286 33.4323C60.6286 33.6797 60.6469 33.9271 60.6836 34.1744C60.7202 34.4218 60.8729 34.5455 61.1416 34.5455C61.3492 34.5455 61.5751 34.4094 61.8194 34.1373C62.0759 33.8652 62.2957 33.4014 62.4789 32.7459L62.9918 32.8572C62.9552 33.0798 62.8758 33.3396 62.7537 33.6364C62.6438 33.9209 62.4911 34.2054 62.2957 34.4898C62.1003 34.7743 61.8621 35.0093 61.5812 35.1948C61.3003 35.3804 60.9767 35.4731 60.6103 35.4731C60.1217 35.4731 59.7737 35.3185 59.566 35.0093C59.3584 34.7001 59.2546 34.2981 59.2546 33.8034C59.2546 33.4447 59.2851 33.0551 59.3462 32.6346C59.4195 32.214 59.4989 31.775 59.5844 31.3173H59.5294C59.2363 32.2326 58.931 32.9685 58.6134 33.5251C58.3081 34.0693 57.9967 34.4837 57.6791 34.7681C57.3738 35.0526 57.0746 35.2381 56.7814 35.3247C56.4883 35.4237 56.2135 35.4731 55.9571 35.4731C55.2976 35.4731 54.7419 35.2258 54.29 34.731C53.8503 34.2363 53.6305 33.4076 53.6305 32.245C53.6305 31.3792 53.7404 30.5567 53.9602 29.7775C54.18 28.9982 54.5098 28.3118 54.9495 27.7181C55.4014 27.112 55.9632 26.642 56.6349 26.3081C57.3066 25.9618 58.0883 25.7886 58.9798 25.7886ZM58.4119 26.4565C57.8623 26.4565 57.3799 26.6111 56.9646 26.9203C56.5616 27.2295 56.2258 27.6501 55.9571 28.1819C55.6884 28.7014 55.4869 29.2889 55.3525 29.9444C55.2304 30.5876 55.1693 31.2493 55.1693 31.9296C55.1693 32.7212 55.2548 33.3767 55.4258 33.8962C55.5968 34.4033 55.9082 34.6568 56.3601 34.6568C56.6899 34.6568 57.0196 34.4898 57.3494 34.1559C57.6913 33.8219 58.0089 33.3767 58.302 32.8201C58.5951 32.2511 58.8577 31.6204 59.0897 30.9277C59.3218 30.2227 59.505 29.5053 59.6393 28.7756C59.7737 28.0459 59.8408 27.347 59.8408 26.6791C59.4745 26.5307 58.9981 26.4565 58.4119 26.4565Z" fill="#30396E"/>
<path d="M66.9645 23.3768L66.6348 25.9927H69.5476L69.4926 26.6977L66.5615 26.7348C66.4882 27.4274 66.4088 28.1448 66.3233 28.8869C66.25 29.629 66.1829 30.3464 66.1218 31.039C66.0607 31.7317 66.0302 32.3563 66.0302 32.9129C66.0302 33.1479 66.0424 33.3952 66.0668 33.655C66.1035 33.9023 66.1829 34.1126 66.305 34.2858C66.4271 34.4466 66.6225 34.527 66.8912 34.527C67.0134 34.527 67.1599 34.5022 67.3309 34.4527C67.5141 34.4033 67.7156 34.2858 67.9355 34.1002C68.1553 33.9147 68.3812 33.6241 68.6133 33.2283L69.0896 33.5437C68.7354 34.1744 68.3507 34.6568 67.9355 34.9908C67.5324 35.3123 67.0378 35.4731 66.4516 35.4731C65.7432 35.4731 65.2486 35.2567 64.9677 34.8238C64.6867 34.3785 64.5463 33.8652 64.5463 33.2839C64.5463 32.5913 64.5829 31.6636 64.6562 30.501C64.7417 29.3384 64.8638 28.0892 65.0226 26.7534L63.3922 26.7719L63.4471 25.9927C64.2898 25.9927 64.9127 25.7639 65.3157 25.3062C65.7188 24.8486 66.0363 24.2055 66.2684 23.3768H66.9645Z" fill="#30396E"/>
<path d="M74.8284 25.7886C75.2681 25.7886 75.6833 25.8566 76.0741 25.9927C76.465 26.1288 76.7825 26.3514 77.0268 26.6606C77.271 26.9698 77.3932 27.3903 77.3932 27.9222C77.3932 28.4293 77.2222 28.8684 76.8802 29.2394C76.5382 29.6105 76.0925 29.9197 75.5429 30.1671C74.9933 30.4021 74.407 30.5938 73.7842 30.7422C73.1613 30.8906 72.5629 30.9957 71.9888 31.0576C71.9888 33.3829 72.685 34.5455 74.0773 34.5455C74.6147 34.5455 75.1459 34.3662 75.6711 34.0075C76.2085 33.6488 76.6787 33.0798 77.0817 32.3006L77.6863 32.6531C77.1733 33.6302 76.5993 34.3476 75.9642 34.8052C75.3291 35.2505 74.5963 35.4731 73.7658 35.4731C72.6056 35.4731 71.7507 35.1083 71.2011 34.3785C70.6515 33.6364 70.3767 32.6655 70.3767 31.4658C70.3767 30.7484 70.4683 30.0496 70.6515 29.3693C70.8347 28.689 71.1095 28.083 71.4759 27.5511C71.8423 27.0069 72.3064 26.5802 72.8682 26.271C73.43 25.9494 74.0834 25.7886 74.8284 25.7886ZM74.5719 26.4194C74.0101 26.4194 73.546 26.6111 73.1796 26.9945C72.8254 27.378 72.5506 27.8727 72.3552 28.4788C72.172 29.0848 72.056 29.7218 72.0072 30.3897C72.6545 30.3031 73.2712 30.1485 73.8574 29.9259C74.4437 29.7032 74.9261 29.4188 75.3047 29.0725C75.6833 28.7138 75.8726 28.2994 75.8726 27.8294C75.8726 27.4336 75.7627 27.0997 75.5429 26.8276C75.3352 26.5555 75.0116 26.4194 74.5719 26.4194Z" fill="#30396E"/>
</svg>
