<svg width="81" height="80" viewBox="0 0 81 80" fill="none" xmlns="http://www.w3.org/2000/svg">
<ellipse cx="38.5551" cy="17.5714" rx="1.55556" ry="1.57143" fill="#D9E4FC"/>
<ellipse cx="43.6664" cy="17.5714" rx="1.55556" ry="1.57143" fill="#D9E4FC"/>
<ellipse cx="48.7772" cy="17.5714" rx="1.55556" ry="1.57143" fill="#D9E4FC"/>
<ellipse cx="53.8886" cy="17.5714" rx="1.55556" ry="1.57143" fill="#D9E4FC"/>
<ellipse cx="58.9994" cy="17.5714" rx="1.55556" ry="1.57143" fill="#D9E4FC"/>
<ellipse cx="64.1107" cy="17.5714" rx="1.55556" ry="1.57143" fill="#D9E4FC"/>
<ellipse cx="69.2216" cy="17.5714" rx="1.55556" ry="1.57143" fill="#D9E4FC"/>
<ellipse cx="74.3329" cy="17.5714" rx="1.55556" ry="1.57143" fill="#D9E4FC"/>
<ellipse cx="79.4437" cy="17.5714" rx="1.55556" ry="1.57143" fill="#D9E4FC"/>
<ellipse cx="38.5551" cy="22.7143" rx="1.55556" ry="1.57143" fill="#D9E4FC"/>
<ellipse cx="43.6664" cy="22.7143" rx="1.55556" ry="1.57143" fill="#D9E4FC"/>
<ellipse cx="48.7772" cy="22.7143" rx="1.55556" ry="1.57143" fill="#D9E4FC"/>
<ellipse cx="53.8886" cy="22.7143" rx="1.55556" ry="1.57143" fill="#D9E4FC"/>
<ellipse cx="58.9994" cy="22.7143" rx="1.55556" ry="1.57143" fill="#D9E4FC"/>
<ellipse cx="64.1107" cy="22.7143" rx="1.55556" ry="1.57143" fill="#D9E4FC"/>
<ellipse cx="69.2216" cy="22.7143" rx="1.55556" ry="1.57143" fill="#D9E4FC"/>
<ellipse cx="74.3329" cy="22.7143" rx="1.55556" ry="1.57143" fill="#D9E4FC"/>
<ellipse cx="79.4437" cy="22.7143" rx="1.55556" ry="1.57143" fill="#D9E4FC"/>
<ellipse cx="38.5551" cy="27.8571" rx="1.55556" ry="1.57143" fill="#D9E4FC"/>
<ellipse cx="43.6664" cy="27.8571" rx="1.55556" ry="1.57143" fill="#D9E4FC"/>
<ellipse cx="48.7772" cy="27.8571" rx="1.55556" ry="1.57143" fill="#D9E4FC"/>
<ellipse cx="53.8886" cy="27.8571" rx="1.55556" ry="1.57143" fill="#D9E4FC"/>
<ellipse cx="58.9994" cy="27.8571" rx="1.55556" ry="1.57143" fill="#D9E4FC"/>
<ellipse cx="64.1107" cy="27.8571" rx="1.55556" ry="1.57143" fill="#D9E4FC"/>
<ellipse cx="69.2216" cy="27.8571" rx="1.55556" ry="1.57143" fill="#D9E4FC"/>
<ellipse cx="74.3329" cy="27.8571" rx="1.55556" ry="1.57143" fill="#D9E4FC"/>
<ellipse cx="79.4437" cy="27.8571" rx="1.55556" ry="1.57143" fill="#D9E4FC"/>
<ellipse cx="38.5551" cy="33" rx="1.55556" ry="1.57143" fill="#D9E4FC"/>
<ellipse cx="43.6664" cy="33" rx="1.55556" ry="1.57143" fill="#D9E4FC"/>
<ellipse cx="48.7772" cy="33" rx="1.55556" ry="1.57143" fill="#D9E4FC"/>
<ellipse cx="53.8886" cy="33" rx="1.55556" ry="1.57143" fill="#D9E4FC"/>
<ellipse cx="58.9994" cy="33" rx="1.55556" ry="1.57143" fill="#D9E4FC"/>
<ellipse cx="64.1107" cy="33" rx="1.55556" ry="1.57143" fill="#D9E4FC"/>
<ellipse cx="69.2216" cy="33" rx="1.55556" ry="1.57143" fill="#D9E4FC"/>
<ellipse cx="74.3329" cy="33" rx="1.55556" ry="1.57143" fill="#D9E4FC"/>
<ellipse cx="79.4437" cy="33" rx="1.55556" ry="1.57143" fill="#D9E4FC"/>
<ellipse cx="38.5551" cy="38.1429" rx="1.55556" ry="1.57143" fill="#D9E4FC"/>
<ellipse cx="43.6664" cy="38.1429" rx="1.55556" ry="1.57143" fill="#D9E4FC"/>
<ellipse cx="48.7772" cy="38.1429" rx="1.55556" ry="1.57143" fill="#D9E4FC"/>
<ellipse cx="53.8886" cy="38.1429" rx="1.55556" ry="1.57143" fill="#D9E4FC"/>
<ellipse cx="58.9994" cy="38.1429" rx="1.55556" ry="1.57143" fill="#D9E4FC"/>
<ellipse cx="64.1107" cy="38.1429" rx="1.55556" ry="1.57143" fill="#D9E4FC"/>
<ellipse cx="69.2216" cy="38.1429" rx="1.55556" ry="1.57143" fill="#D9E4FC"/>
<ellipse cx="74.3329" cy="38.1429" rx="1.55556" ry="1.57143" fill="#D9E4FC"/>
<ellipse cx="79.4437" cy="38.1429" rx="1.55556" ry="1.57143" fill="#D9E4FC"/>
<ellipse cx="38.5551" cy="43.2857" rx="1.55556" ry="1.57143" fill="#D9E4FC"/>
<ellipse cx="43.6664" cy="43.2857" rx="1.55556" ry="1.57143" fill="#D9E4FC"/>
<ellipse cx="48.7772" cy="43.2857" rx="1.55556" ry="1.57143" fill="#D9E4FC"/>
<ellipse cx="53.8886" cy="43.2857" rx="1.55556" ry="1.57143" fill="#D9E4FC"/>
<ellipse cx="58.9994" cy="43.2857" rx="1.55556" ry="1.57143" fill="#D9E4FC"/>
<ellipse cx="64.1107" cy="43.2857" rx="1.55556" ry="1.57143" fill="#D9E4FC"/>
<ellipse cx="69.2216" cy="43.2857" rx="1.55556" ry="1.57143" fill="#D9E4FC"/>
<ellipse cx="74.3329" cy="43.2857" rx="1.55556" ry="1.57143" fill="#D9E4FC"/>
<ellipse cx="79.4437" cy="43.2857" rx="1.55556" ry="1.57143" fill="#D9E4FC"/>
<ellipse cx="38.5551" cy="48.4286" rx="1.55556" ry="1.57143" fill="#D9E4FC"/>
<ellipse cx="43.6664" cy="48.4286" rx="1.55556" ry="1.57143" fill="#D9E4FC"/>
<ellipse cx="48.7772" cy="48.4286" rx="1.55556" ry="1.57143" fill="#D9E4FC"/>
<ellipse cx="53.8886" cy="48.4286" rx="1.55556" ry="1.57143" fill="#D9E4FC"/>
<ellipse cx="58.9994" cy="48.4286" rx="1.55556" ry="1.57143" fill="#D9E4FC"/>
<ellipse cx="64.1107" cy="48.4286" rx="1.55556" ry="1.57143" fill="#D9E4FC"/>
<ellipse cx="69.2216" cy="48.4286" rx="1.55556" ry="1.57143" fill="#D9E4FC"/>
<ellipse cx="74.3329" cy="48.4286" rx="1.55556" ry="1.57143" fill="#D9E4FC"/>
<ellipse cx="79.4437" cy="48.4286" rx="1.55556" ry="1.57143" fill="#D9E4FC"/>
<rect x="32.2495" y="34.25" width="27.5" height="33.5" stroke="#16215D" stroke-width="0.5"/>
<path d="M39.9995 54L53.9995 40L59.9995 46L45.9995 60L39.9995 54Z" stroke="#3362CC" stroke-width="3" stroke-linecap="round" stroke-linejoin="round"/>
<path d="M51.9995 42L48.9995 27L19.9995 20L26.9995 49L41.9995 52L51.9995 42Z" stroke="#3362CC" stroke-width="3" stroke-linecap="round" stroke-linejoin="round"/>
<path d="M19.9995 20L35.1715 35.172" stroke="#3362CC" stroke-width="3" stroke-linecap="round" stroke-linejoin="round"/>
<path d="M37.9995 42C40.2087 42 41.9995 40.2091 41.9995 38C41.9995 35.7909 40.2087 34 37.9995 34C35.7904 34 33.9995 35.7909 33.9995 38C33.9995 40.2091 35.7904 42 37.9995 42Z" stroke="#3362CC" stroke-width="3" stroke-linecap="round" stroke-linejoin="round"/>
</svg>
