<svg width="803" height="537" viewBox="0 0 803 537" fill="none" xmlns="http://www.w3.org/2000/svg">
<path d="M803 471.147H0V471.507H803V471.147Z" fill="#EBEBEB"/>
<path d="M185.22 484.847H145.279V485.206H185.22V484.847Z" fill="#EBEBEB"/>
<path d="M288.807 480.947H244.642V481.307H288.807V480.947Z" fill="#EBEBEB"/>
<path d="M169.883 498.215H76.5581V498.575H169.883V498.215Z" fill="#EBEBEB"/>
<path d="M722.54 495.798H687.85V496.158H722.54V495.798Z" fill="#EBEBEB"/>
<path d="M389.808 483.724H344.953V484.084H389.808V483.724Z" fill="#EBEBEB"/>
<path d="M595.649 489.725H482.876V490.085H595.649V489.725Z" fill="#EBEBEB"/>
<path d="M380.622 406.965H70.5194C68.0901 406.961 65.7617 406.094 64.0455 404.553C62.3292 403.013 61.3652 400.925 61.3652 398.748V8.14505C61.3864 5.98075 62.3597 3.91132 64.0737 2.38627C65.7877 0.861215 68.104 0.00370757 70.5194 0H380.622C383.054 0 385.387 0.865718 387.106 2.40671C388.826 3.94769 389.792 6.03772 389.792 8.21701V398.748C389.792 400.927 388.826 403.017 387.106 404.558C385.387 406.099 383.054 406.965 380.622 406.965ZM70.5194 0.287812C68.1966 0.291624 65.9704 1.12112 64.3294 2.59422C62.6884 4.06733 61.7667 6.06368 61.7667 8.14505V398.748C61.7667 400.829 62.6884 402.826 64.3294 404.299C65.9704 405.772 68.1966 406.601 70.5194 406.605H380.622C382.946 406.601 385.174 405.772 386.818 404.3C388.461 402.827 389.387 400.831 389.391 398.748V8.14505C389.387 6.06235 388.461 4.06604 386.818 2.59335C385.174 1.12065 382.946 0.291616 380.622 0.287812H70.5194Z" fill="#EBEBEB"/>
<path d="M728.016 406.965H417.897C415.466 406.961 413.137 406.094 411.418 404.554C409.699 403.014 408.731 400.926 408.727 398.748V8.14505C408.752 5.97944 409.729 3.91002 411.446 2.38537C413.162 0.860712 415.48 0.00366713 417.897 0H728.016C730.429 0.00748956 732.741 0.86667 734.451 2.39132C736.162 3.91597 737.133 5.98324 737.154 8.14505V398.748C737.154 400.922 736.192 403.008 734.48 404.548C732.767 406.088 730.442 406.957 728.016 406.965ZM417.897 0.287812C415.573 0.291616 413.345 1.12065 411.702 2.59335C410.058 4.06604 409.133 6.06235 409.129 8.14505V398.748C409.133 400.831 410.058 402.827 411.702 404.3C413.345 405.772 415.573 406.601 417.897 406.605H728.016C730.34 406.601 732.568 405.772 734.212 404.3C735.855 402.827 736.78 400.831 736.785 398.748V8.14505C736.78 6.06235 735.855 4.06604 734.212 2.59335C732.568 1.12065 730.34 0.291616 728.016 0.287812H417.897Z" fill="#EBEBEB"/>
<path d="M515.558 13.8438H51.151C43.523 13.8438 37.3394 19.3846 37.3394 26.2196V282.501C37.3394 289.336 43.523 294.877 51.151 294.877H515.558C523.186 294.877 529.37 289.336 529.37 282.501V26.2196C529.37 19.3846 523.186 13.8438 515.558 13.8438Z" fill="#EBEBEB"/>
<path d="M529.37 28.0615H37.3394V254.598H529.37V28.0615Z" fill="#FAFAFA"/>
<path d="M371.419 113.887C371.428 111.084 372.674 108.398 374.886 106.416C377.098 104.434 380.095 103.317 383.224 103.31H750.998C754.126 103.317 757.123 104.434 759.335 106.416C761.547 108.398 762.793 111.084 762.802 113.887V147.935H371.419V113.887Z" fill="#E6E6E6"/>
<path d="M466.88 133.631C471.812 133.631 475.809 130.048 475.809 125.63C475.809 121.211 471.812 117.628 466.88 117.628C461.948 117.628 457.951 121.211 457.951 125.63C457.951 130.048 461.948 133.631 466.88 133.631Z" fill="white"/>
<path d="M435.242 133.631C440.173 133.631 444.171 130.048 444.171 125.63C444.171 121.211 440.173 117.628 435.242 117.628C430.31 117.628 426.312 121.211 426.312 125.63C426.312 130.048 430.31 133.631 435.242 133.631Z" fill="white"/>
<path d="M403.62 133.631C408.551 133.631 412.549 130.048 412.549 125.63C412.549 121.211 408.551 117.628 403.62 117.628C398.688 117.628 394.69 121.211 394.69 125.63C394.69 130.048 398.688 133.631 403.62 133.631Z" fill="white"/>
<path d="M750.95 331.271H383.176C380.048 331.263 377.05 330.146 374.838 328.164C372.626 326.182 371.38 323.496 371.372 320.694V148.007H762.754V320.694C762.745 323.496 761.499 326.182 759.287 328.164C757.075 330.146 754.078 331.263 750.95 331.271Z" fill="#F5F5F5"/>
<path d="M318.871 172.788C318.88 169.985 320.126 167.299 322.338 165.317C324.55 163.335 327.547 162.218 330.675 162.21H698.449C701.577 162.218 704.575 163.335 706.787 165.317C708.998 167.299 710.245 169.985 710.253 172.788V206.836H318.871V172.788Z" fill="#F0F0F0"/>
<path d="M414.316 192.531C419.248 192.531 423.245 188.949 423.245 184.53C423.245 180.111 419.248 176.529 414.316 176.529C409.385 176.529 405.387 180.111 405.387 184.53C405.387 188.949 409.385 192.531 414.316 192.531Z" fill="#E6E6E6"/>
<path d="M382.677 192.531C387.609 192.531 391.607 188.949 391.607 184.53C391.607 180.111 387.609 176.529 382.677 176.529C377.746 176.529 373.748 180.111 373.748 184.53C373.748 188.949 377.746 192.531 382.677 192.531Z" fill="#E6E6E6"/>
<path d="M351.055 192.531C355.987 192.531 359.985 188.949 359.985 184.53C359.985 180.111 355.987 176.529 351.055 176.529C346.124 176.529 342.126 180.111 342.126 184.53C342.126 188.949 346.124 192.531 351.055 192.531Z" fill="#E6E6E6"/>
<path d="M698.385 390.171H330.611C327.483 390.164 324.486 389.047 322.274 387.065C320.062 385.083 318.816 382.397 318.807 379.594V206.907H710.189V379.594C710.181 382.397 708.934 385.083 706.723 387.065C704.511 389.047 701.513 390.164 698.385 390.171Z" fill="#FAFAFA"/>
<path d="M266.307 231.688C266.316 228.885 267.562 226.199 269.774 224.217C271.986 222.235 274.983 221.118 278.111 221.111H645.885C649.013 221.118 652.011 222.235 654.223 224.217C656.434 226.199 657.681 228.885 657.689 231.688V265.736H266.307V231.688Z" fill="#FAFAFA"/>
<path d="M361.752 251.432C366.683 251.432 370.681 247.85 370.681 243.431C370.681 239.012 366.683 235.429 361.752 235.429C356.82 235.429 352.822 239.012 352.822 243.431C352.822 247.85 356.82 251.432 361.752 251.432Z" fill="#F0F0F0"/>
<path d="M330.113 251.432C335.045 251.432 339.043 247.85 339.043 243.431C339.043 239.012 335.045 235.429 330.113 235.429C325.182 235.429 321.184 239.012 321.184 243.431C321.184 247.85 325.182 251.432 330.113 251.432Z" fill="#F0F0F0"/>
<path d="M298.491 251.432C303.422 251.432 307.42 247.85 307.42 243.431C307.42 239.012 303.422 235.429 298.491 235.429C293.559 235.429 289.562 239.012 289.562 243.431C289.562 247.85 293.559 251.432 298.491 251.432Z" fill="#F0F0F0"/>
<path d="M645.821 449.072H278.047C274.919 449.064 271.921 447.947 269.709 445.965C267.498 443.984 266.251 441.298 266.243 438.495V265.808H657.625V438.495C657.616 441.298 656.37 443.984 654.158 445.965C651.946 447.947 648.949 449.064 645.821 449.072Z" fill="#E6E6E6"/>
<path d="M401.784 536.135C573.759 536.135 713.172 528.841 713.172 519.845C713.172 510.848 573.759 503.554 401.784 503.554C229.81 503.554 90.397 510.848 90.397 519.845C90.397 528.841 229.81 536.135 401.784 536.135Z" fill="#F1F5FE"/>
<path d="M307.314 39.574H293.133V41.013H307.314V39.574Z" fill="#407BFF"/>
<path d="M276.286 39.574H241.484V41.013H276.286V39.574Z" fill="#407BFF"/>
<path d="M145.381 44.6107H658.241C663.352 44.6107 668.254 46.43 671.868 49.6685C675.482 52.907 677.513 57.2994 677.513 61.8793V458.656H126.109V61.8793C126.109 57.2994 128.139 52.907 131.754 49.6685C135.368 46.43 140.27 44.6107 145.381 44.6107Z" fill="#3362CC"/>
<path opacity="0.8" d="M677.497 70.5137H126.109V451.95H677.497V70.5137Z" fill="white"/>
<path opacity="0.4" d="M677.497 70.5137H126.109V154.367H677.497V70.5137Z" fill="#407BFF"/>
<path opacity="0.4" d="M666.126 78.5293H643.112V99.151H666.126V78.5293Z" fill="#407BFF"/>
<path opacity="0.4" d="M631.983 78.5293H608.969V99.151H631.983V78.5293Z" fill="#407BFF"/>
<path opacity="0.4" d="M230.434 438.192H207.42V440.265H230.434V438.192Z" fill="#407BFF"/>
<path opacity="0.4" d="M196.291 438.192H173.277V440.265H196.291V438.192Z" fill="#407BFF"/>
<path opacity="0.4" d="M162.148 438.192H139.134V440.265H162.148V438.192Z" fill="#407BFF"/>
<path d="M239.894 316.765C284.242 316.765 320.194 284.551 320.194 244.812C320.194 205.074 284.242 172.859 239.894 172.859C195.545 172.859 159.594 205.074 159.594 244.812C159.594 284.551 195.545 316.765 239.894 316.765Z" fill="#407BFF"/>
<path d="M293.688 293.011C323.398 266.39 323.398 223.228 293.688 196.607C263.979 169.985 215.81 169.985 186.1 196.607C156.391 223.228 156.391 266.39 186.1 293.011C215.81 319.632 263.979 319.632 293.688 293.011Z" fill="white"/>
<path d="M243.78 259.03L250.204 247.057C250.204 247.057 283.738 256.555 288.748 258.756C288.62 251.244 292.892 237.171 293.357 229.457C294.626 228.378 297.694 225.658 299.284 225.759C304.102 235.832 303.058 270.37 293.582 270.988C278.438 271.852 243.78 259.03 243.78 259.03Z" fill="#B55B52"/>
<path d="M239.605 257.159C243.475 265.29 275.258 272.528 275.258 272.528L281.682 255.029C281.682 255.029 269.573 246.798 256.998 244.136C244.134 241.387 235.333 248.237 239.605 257.159Z" fill="#407BFF"/>
<path opacity="0.2" d="M240.167 258.109C243.941 263.218 257.978 267.851 267.116 270.427C261.029 259.836 252.822 253.993 240.167 258.109Z" fill="black"/>
<path d="M293.325 230.983L288.202 225.097L297.678 220.363C299.543 222.889 300.501 225.867 300.424 228.896L293.325 230.983Z" fill="#B55B52"/>
<path d="M286.805 216.952L296.04 215.614L297.678 220.362L288.202 225.097L286.805 216.952Z" fill="#B55B52"/>
<path d="M257.769 244.726C257.769 244.726 270.713 272.643 260.563 324.665H209.974C209.38 317.067 213.7 280.055 204.546 244.251C210.628 243.189 216.782 242.487 222.967 242.15C230.781 241.747 238.616 241.747 246.43 242.15C254.621 242.826 257.769 244.726 257.769 244.726Z" fill="#407BFF"/>
<path opacity="0.2" d="M216.767 253.072C217.86 258.972 216.173 273.061 210.343 289.336C210.054 275.39 208.399 261.493 205.397 247.805C209.091 247.402 215.74 247.517 216.767 253.072Z" fill="black"/>
<path d="M225.488 222.492C227.094 229.256 228.122 237.645 222.967 242.15C222.967 242.15 226.179 249.014 240.215 249.014C253.063 249.014 246.43 242.15 246.43 242.15C237.967 240.351 238.143 231.026 239.476 225.759L225.488 222.492Z" fill="#B55B52"/>
<path d="M240.873 248.467L243.925 251.489C244.028 251.594 244.1 251.72 244.133 251.855C244.167 251.991 244.162 252.133 244.117 252.266L243.138 254.929C243.083 255.075 242.98 255.202 242.842 255.295C242.704 255.387 242.539 255.44 242.367 255.447L239.155 255.591C239 255.599 238.845 255.571 238.706 255.507C238.568 255.444 238.451 255.348 238.368 255.231L236.393 252.655C236.277 252.516 236.214 252.347 236.214 252.173C236.214 251.999 236.277 251.83 236.393 251.691L239.605 248.467C239.773 248.317 240.001 248.233 240.239 248.233C240.477 248.233 240.705 248.317 240.873 248.467Z" fill="white"/>
<path d="M240.215 247.805C238.658 250.142 237.795 252.798 237.71 255.519C237.71 255.519 220.044 249.964 220.574 241.819C220.574 241.819 223.031 240.495 224.589 239.416C224.589 239.416 225.327 244.553 240.215 247.805Z" fill="#263238"/>
<path d="M240.215 247.805C241.882 249.994 243.105 252.43 243.828 255C243.828 255 251.666 250.165 249.048 242.121C247.576 241.593 246.062 241.165 244.519 240.84C244.519 240.84 245.707 246.078 240.215 247.805Z" fill="#263238"/>
<path d="M241.644 255.029C241.644 255.029 246.671 288.128 246.783 293.884C246.715 299.333 245.757 304.743 243.941 309.944C243.941 309.944 240.488 304.087 239.894 293.639C239.299 283.192 240.022 260.886 239.765 255.015L241.644 255.029Z" fill="white"/>
<path opacity="0.2" d="M239.476 225.773C238.442 229.434 238.564 233.281 239.829 236.883C238.522 236.702 237.251 236.353 236.055 235.847C231.237 233.832 228.812 230.68 226.259 226.003C226.034 224.795 225.777 223.629 225.504 222.492L239.476 225.773Z" fill="black"/>
<path d="M252.79 221.024C252.219 222.034 251.427 222.93 250.461 223.659C249.495 224.388 248.376 224.936 247.169 225.27C243.957 226.119 242.206 223.485 243.009 220.679C243.748 218.146 246.221 214.664 249.594 215.024C250.318 215.122 251.004 215.377 251.592 215.768C252.181 216.158 252.653 216.672 252.968 217.264C253.284 217.856 253.432 218.509 253.401 219.164C253.37 219.82 253.16 220.458 252.79 221.024Z" fill="#B55B52"/>
<path opacity="0.2" d="M252.79 221.024C252.219 222.034 251.427 222.93 250.461 223.659C249.495 224.388 248.376 224.936 247.169 225.27C243.957 226.119 242.206 223.485 243.009 220.679C243.748 218.146 246.221 214.664 249.594 215.024C250.318 215.122 251.004 215.377 251.592 215.768C252.181 216.158 252.653 216.672 252.968 217.264C253.284 217.856 253.432 218.509 253.401 219.164C253.37 219.82 253.16 220.458 252.79 221.024Z" fill="black"/>
<path d="M243.475 215.168C246.687 217.801 252.549 203.353 245.981 199.338C239.412 195.323 237.116 200.777 237.228 204.101C237.34 207.425 238.625 211.268 243.475 215.168Z" fill="#263238"/>
<path d="M221.537 212.735C223.047 221.888 223.416 227.313 228.989 231.731C237.356 238.365 249.45 233.386 250.975 224.061C252.356 215.657 249.658 202.086 239.396 199.021C237.149 198.337 234.741 198.189 232.411 198.591C230.08 198.994 227.907 199.934 226.104 201.318C224.302 202.701 222.933 204.482 222.133 206.484C221.332 208.486 221.127 210.641 221.537 212.735Z" fill="#B55B52"/>
<path d="M220.895 220.506C222.662 221.528 225.087 224.291 228.732 219.398C228.732 218.132 225.151 216.002 224.878 213.009C224.557 209.526 223.705 205.814 220.558 204.59C213.379 201.712 212.062 207.238 212.769 210.548C213.475 213.858 215.419 217.297 220.895 220.506Z" fill="#263238"/>
<path d="M219.931 207.814C236.875 205.454 246.88 204.936 251.971 199.252C257.062 193.567 249.241 186.53 240.729 185.724C240.119 188.689 231.495 196.489 218.245 199.87C217.507 200.052 216.844 200.42 216.334 200.931C215.823 201.442 215.488 202.073 215.368 202.75C215.248 203.427 215.347 204.121 215.655 204.748C215.963 205.376 216.467 205.91 217.105 206.288C218.727 207.224 219.931 207.814 219.931 207.814Z" fill="#263238"/>
<path d="M217.956 223.154C219.499 225.033 221.808 226.29 224.38 226.651C227.737 227.112 228.941 224.306 227.592 221.629C226.387 219.211 223.192 216.074 220.012 216.837C216.832 217.6 216.077 220.837 217.956 223.154Z" fill="#B55B52"/>
<path d="M237.131 214.419C237.131 215.167 237.709 215.757 238.239 215.714C238.769 215.671 239.155 215.052 239.091 214.275C239.026 213.498 238.528 212.951 237.982 212.98C237.436 213.009 237.067 213.613 237.131 214.419Z" fill="#263238"/>
<path d="M246.446 213.8C246.527 214.549 247.025 215.124 247.555 215.095C248.085 215.067 248.47 214.433 248.406 213.656C248.342 212.879 247.828 212.318 247.298 212.361C246.768 212.404 246.382 213.052 246.446 213.8Z" fill="#263238"/>
<path d="M243.523 214.419C244.728 216.651 246.263 218.727 248.084 220.593C247.555 220.992 246.933 221.281 246.263 221.437C245.594 221.594 244.894 221.615 244.214 221.499L243.523 214.419Z" fill="#A02724"/>
<path d="M242.014 223.644C242.045 223.642 242.075 223.634 242.103 223.622C242.13 223.609 242.155 223.591 242.175 223.57C242.194 223.548 242.209 223.523 242.217 223.496C242.225 223.469 242.227 223.441 242.222 223.413C242.22 223.385 242.212 223.357 242.198 223.332C242.184 223.306 242.165 223.283 242.141 223.265C242.117 223.246 242.089 223.232 242.059 223.223C242.029 223.214 241.997 223.21 241.966 223.212C240.932 223.29 239.892 223.15 238.93 222.802C237.967 222.455 237.109 221.91 236.425 221.212C236.406 221.189 236.382 221.17 236.355 221.155C236.328 221.141 236.297 221.131 236.266 221.127C236.235 221.123 236.203 221.125 236.172 221.132C236.142 221.139 236.113 221.151 236.088 221.168C236.062 221.185 236.041 221.207 236.025 221.231C236.009 221.256 235.998 221.283 235.994 221.311C235.989 221.339 235.991 221.367 235.999 221.395C236.007 221.422 236.02 221.448 236.039 221.471C236.768 222.235 237.691 222.832 238.731 223.21C239.771 223.588 240.896 223.737 242.014 223.644Z" fill="#263238"/>
<path d="M234.064 211.8C234.138 211.799 234.21 211.781 234.275 211.748C234.339 211.715 234.394 211.669 234.433 211.613C234.739 211.142 235.168 210.744 235.682 210.454C236.197 210.163 236.782 209.988 237.388 209.944C237.452 209.946 237.516 209.936 237.575 209.915C237.635 209.894 237.689 209.862 237.734 209.822C237.779 209.781 237.814 209.733 237.838 209.68C237.861 209.626 237.872 209.569 237.87 209.512C237.87 209.394 237.818 209.28 237.724 209.197C237.631 209.113 237.504 209.066 237.372 209.066C236.605 209.106 235.861 209.314 235.206 209.673C234.55 210.032 234.004 210.53 233.614 211.124C233.579 211.173 233.556 211.227 233.545 211.284C233.534 211.342 233.536 211.4 233.551 211.457C233.566 211.513 233.594 211.566 233.632 211.613C233.671 211.659 233.719 211.699 233.775 211.728C233.815 211.757 233.861 211.778 233.911 211.79C233.961 211.803 234.013 211.806 234.064 211.8Z" fill="#263238"/>
<path d="M250.349 210.548L250.541 210.476C250.597 210.444 250.644 210.403 250.681 210.354C250.718 210.305 250.743 210.25 250.755 210.192C250.767 210.134 250.766 210.074 250.751 210.017C250.737 209.959 250.709 209.905 250.67 209.857C250.254 209.268 249.688 208.775 249.018 208.419C248.348 208.064 247.593 207.857 246.816 207.814C246.751 207.814 246.687 207.826 246.627 207.848C246.568 207.871 246.514 207.904 246.469 207.945C246.424 207.987 246.389 208.036 246.366 208.09C246.342 208.144 246.332 208.202 246.334 208.26C246.338 208.376 246.392 208.486 246.485 208.566C246.578 208.647 246.702 208.692 246.832 208.692C247.448 208.733 248.044 208.904 248.572 209.192C249.099 209.479 249.543 209.875 249.867 210.347C249.921 210.414 249.994 210.468 250.079 210.504C250.163 210.539 250.256 210.554 250.349 210.548Z" fill="#263238"/>
<path d="M198.732 256.526L211.741 263.376C211.741 263.376 195.327 292.157 197.11 296.647C199.535 302.691 203.213 315.973 207.517 322.55C207.099 323.989 204.69 327.486 203.277 328.133C192.934 321.917 181.612 301.554 181.644 295.74C181.789 282.544 198.732 256.526 198.732 256.526Z" fill="#B55B52"/>
<path d="M204.546 244.251C194.813 245.517 184.455 275.91 184.455 275.91L207.485 282.487C211.59 275.586 215.148 268.436 218.132 261.088C222.404 249.863 214.985 242.884 204.546 244.251Z" fill="#407BFF"/>
<path d="M205.156 321.399L214.969 320.765L210.022 330.465C210.022 330.465 201.414 330.767 199.84 324.881L205.156 321.399Z" fill="#B55B52"/>
<path d="M223.063 325.226L218.085 333.818L210.022 330.465L214.969 320.765L223.063 325.226Z" fill="#B55B52"/>
<path d="M563.728 438.106C608.076 438.106 644.028 405.892 644.028 366.153C644.028 326.415 608.076 294.2 563.728 294.2C519.379 294.2 483.428 326.415 483.428 366.153C483.428 405.892 519.379 438.106 563.728 438.106Z" fill="#407BFF"/>
<path d="M563.728 434.321C605.743 434.321 639.804 403.801 639.804 366.153C639.804 328.505 605.743 297.985 563.728 297.985C521.712 297.985 487.651 328.505 487.651 366.153C487.651 403.801 521.712 434.321 563.728 434.321Z" fill="white"/>
<path d="M560.227 314.347C548.808 313.426 541.694 329.169 544.07 353.202C558.524 360.555 575.082 353.202 588.332 359.116C600.586 342.322 597.325 304.446 560.227 314.347Z" fill="#263238"/>
<path d="M542.4 383.911C540.759 389.371 538.448 394.651 535.51 399.655C533.928 402.393 531.952 404.933 529.632 407.21C528.952 407.864 528.217 408.47 527.432 409.023C526.201 409.974 524.729 410.641 523.144 410.965C521.923 411.189 520.66 411.14 519.466 410.822C518.404 410.532 517.424 410.041 516.591 409.383C515.544 408.537 514.693 407.515 514.086 406.375C513.292 404.845 512.705 403.237 512.336 401.583C511.989 400.158 511.732 398.716 511.565 397.266C511.211 394.388 511.051 391.711 511.003 388.977C510.914 383.57 511.188 378.164 511.822 372.787L517.732 372.888C518.246 378.069 518.84 383.307 519.595 388.401C519.996 390.948 520.446 393.481 521.024 395.899C521.313 397.093 521.65 398.273 522.004 399.352C522.293 400.286 522.708 401.185 523.24 402.029C523.417 402.288 523.642 402.432 523.369 402.158C523.092 401.945 522.77 401.783 522.421 401.684C521.938 401.55 521.426 401.52 520.928 401.597C520.205 401.712 520.157 401.899 520.446 401.597C520.784 401.289 521.101 400.962 521.393 400.619C522.858 398.825 524.102 396.896 525.103 394.863C526.274 392.644 527.314 390.372 528.219 388.056C529.183 385.739 530.082 383.249 530.869 381.004L542.4 383.911Z" fill="#FFB573"/>
<path d="M534.466 370.053C529.648 371.161 526.276 388.919 526.276 388.919L544.697 400.144C544.697 400.144 552.277 379.09 548.567 374.342C544.857 369.593 541.533 368.398 534.466 370.053Z" fill="#263238"/>
<path opacity="0.2" d="M534.9 374.025L531.19 391.927L538.658 396.46L534.9 374.025Z" fill="black"/>
<path d="M517.989 374.37L520.43 363.333L510.633 365.88C510.633 365.88 509.67 373.521 513.621 376.04L517.989 374.37Z" fill="#FFB573"/>
<path d="M519.45 358.483L511.356 361.491L510.633 365.88L520.43 363.333L519.45 358.483Z" fill="#FFB573"/>
<path d="M534.466 370.053C534.466 370.053 528.894 371.823 540.055 433.271H587.513C586.726 416.002 586.694 405.281 595.928 369.751C589.282 368.527 582.546 367.733 575.773 367.377C568.598 366.916 561.395 366.916 554.22 367.377C544.97 368.139 534.466 370.053 534.466 370.053Z" fill="#263238"/>
<path opacity="0.2" d="M592.026 383.825C587.721 384.775 583.739 388.991 584.22 396.776C584.489 400.299 585.864 403.681 588.187 406.533C588.942 400.575 590.211 393.654 592.234 384.818L592.026 383.825Z" fill="black"/>
<path d="M556.726 381.004C556.726 381.004 564.499 386.76 564.499 392.848C570.923 388.602 579.675 377.018 580.559 369.664C580.589 369.366 580.552 369.066 580.45 368.781C580.348 368.496 580.182 368.233 579.963 368.007C579.744 367.781 579.476 367.597 579.175 367.466C578.875 367.336 578.548 367.261 578.214 367.247C577.632 367.212 577.052 367.145 576.479 367.045C576.238 366.999 575.987 367.004 575.747 367.059C575.508 367.114 575.286 367.217 575.098 367.362L556.726 381.004Z" fill="#FAFAFA"/>
<path d="M556.725 381.004C554.607 382.41 552.826 384.182 551.488 386.217C550.15 388.252 549.282 390.506 548.936 392.848C542.384 388.531 545.098 375.248 548.744 368.974C549.03 368.484 549.446 368.065 549.956 367.754C550.466 367.443 551.053 367.249 551.666 367.189C552.614 367.089 553.353 366.973 553.835 366.887C553.921 366.871 554.011 366.87 554.098 366.886C554.185 366.902 554.267 366.934 554.34 366.98C554.412 367.026 554.473 367.085 554.519 367.153C554.565 367.222 554.594 367.298 554.605 367.376L556.725 381.004Z" fill="#FAFAFA"/>
<path d="M573.653 345.632C572.304 351.849 570.939 363.232 575.789 367.376C570.53 373.023 564.051 377.659 556.742 381.004C547.106 374.111 554.236 367.376 554.236 367.376C561.977 365.722 561.768 360.584 560.419 355.749L573.653 345.632Z" fill="#FFB573"/>
<path opacity="0.2" d="M568.241 349.762L560.419 355.749C560.746 356.872 560.967 358.018 561.078 359.174C564.033 358.8 568.674 356.54 569.317 353.662C569.326 352.302 568.956 350.962 568.241 349.762Z" fill="black"/>
<path d="M585.264 335.645C582.052 345.632 580.944 349.921 573.942 353.993C563.422 360.095 550.43 354.382 550.237 343.733C550.061 334.149 555.344 319.427 567.405 317.6C570.063 317.186 572.794 317.387 575.34 318.186C577.885 318.984 580.161 320.352 581.95 322.16C583.74 323.968 584.984 326.157 585.564 328.517C586.144 330.877 586.04 333.331 585.264 335.645Z" fill="#FFB573"/>
<path d="M576.704 326.335C578.663 336.307 579.418 340.164 583.353 342.74C587.288 345.316 590.949 333.487 588.042 328.939C585.136 324.392 576.704 326.335 576.704 326.335Z" fill="#263238"/>
<path d="M558.203 316.981C555.842 319.485 560.693 324.723 565.398 326.435C565.109 325.886 564.898 325.305 564.772 324.708C568.169 326.79 571.988 328.256 576.014 329.026C575.56 328.51 575.257 327.902 575.131 327.255C575.131 326.766 586.726 333.645 588.412 328.695C590.098 323.744 584.349 317.268 575.564 315.196C568.08 313.512 561.11 313.887 558.203 316.981Z" fill="#263238"/>
<path d="M566.571 334.753C566.378 335.573 565.719 336.192 565.109 336.019C564.499 335.847 564.194 335.142 564.402 334.307C564.611 333.472 565.254 332.868 565.864 333.041C566.474 333.213 566.779 333.861 566.571 334.753Z" fill="#263238"/>
<path d="M556.179 332.681C555.971 333.501 555.312 334.12 554.718 333.947C554.124 333.774 553.786 333.069 553.995 332.235C554.204 331.4 554.846 330.796 555.457 330.968C556.067 331.141 556.372 331.846 556.179 332.681Z" fill="#263238"/>
<path d="M555.714 331.069L553.642 330.047C553.642 330.047 554.381 331.817 555.714 331.069Z" fill="#263238"/>
<path d="M559.006 334.796C557.723 336.511 556.183 338.061 554.429 339.401C554.83 339.805 555.326 340.123 555.882 340.333C556.438 340.542 557.039 340.637 557.641 340.61L559.006 334.796Z" fill="#ED893E"/>
<path d="M561.784 344.841C561.32 344.809 560.859 344.751 560.403 344.668C560.332 344.651 560.271 344.61 560.232 344.554C560.193 344.498 560.18 344.431 560.194 344.366C560.202 344.333 560.217 344.302 560.238 344.275C560.259 344.248 560.286 344.225 560.318 344.207C560.35 344.19 560.385 344.178 560.422 344.173C560.458 344.168 560.496 344.17 560.532 344.179C561.669 344.427 562.857 344.433 563.997 344.196C565.138 343.958 566.201 343.484 567.1 342.812C567.154 342.765 567.226 342.739 567.301 342.739C567.376 342.739 567.448 342.765 567.502 342.812C567.549 342.859 567.575 342.921 567.575 342.984C567.575 343.048 567.549 343.11 567.502 343.157C566.72 343.762 565.812 344.222 564.831 344.511C563.85 344.8 562.814 344.912 561.784 344.841Z" fill="#263238"/>
<path d="M586.003 345.618C584.744 347.275 582.804 348.419 580.607 348.798C577.684 349.287 576.479 346.884 577.523 344.481C578.455 342.366 581.089 339.574 583.947 340.164C584.569 340.301 585.143 340.576 585.615 340.964C586.087 341.352 586.442 341.841 586.647 342.385C586.852 342.929 586.9 343.51 586.788 344.075C586.675 344.641 586.405 345.171 586.003 345.618Z" fill="#FFB573"/>
<path d="M571.677 332.94C571.561 332.928 571.452 332.882 571.368 332.809C571.284 332.737 571.229 332.641 571.212 332.537C570.936 331.765 570.485 331.052 569.889 330.443C569.292 329.834 568.561 329.342 567.743 328.997C567.666 328.976 567.595 328.94 567.535 328.893C567.475 328.845 567.426 328.787 567.394 328.721C567.361 328.656 567.344 328.584 567.344 328.513C567.345 328.441 567.362 328.37 567.396 328.304C567.429 328.239 567.478 328.181 567.539 328.134C567.599 328.087 567.671 328.052 567.748 328.032C567.825 328.011 567.906 328.006 567.985 328.016C568.065 328.026 568.141 328.051 568.208 328.09C569.193 328.506 570.067 329.107 570.771 329.852C571.475 330.597 571.992 331.468 572.288 332.407C572.312 332.535 572.28 332.666 572.199 332.773C572.119 332.88 571.995 332.955 571.854 332.983L571.677 332.94Z" fill="#263238"/>
<path d="M554.124 326.075C554.026 326.078 553.929 326.058 553.842 326.018C553.755 325.978 553.681 325.918 553.626 325.845C553.547 325.734 553.519 325.6 553.549 325.47C553.579 325.341 553.664 325.228 553.787 325.154C554.51 324.707 555.342 324.422 556.214 324.322C557.086 324.221 557.972 324.31 558.797 324.579C558.866 324.604 558.929 324.641 558.981 324.688C559.033 324.736 559.074 324.792 559.101 324.854C559.128 324.916 559.141 324.982 559.138 325.049C559.136 325.115 559.118 325.181 559.087 325.241C559.057 325.299 559.015 325.352 558.963 325.396C558.91 325.44 558.849 325.475 558.782 325.497C558.715 325.52 558.643 325.531 558.571 325.529C558.5 325.527 558.429 325.512 558.364 325.485C557.705 325.287 557.003 325.229 556.314 325.316C555.625 325.404 554.969 325.634 554.397 325.989C554.316 326.039 554.222 326.068 554.124 326.075Z" fill="#263238"/>
<path d="M566.105 333.141L564.049 332.12C564.049 332.12 564.788 333.861 566.105 333.141Z" fill="#263238"/>
<path d="M588.235 430.781L589.44 434.58C589.616 434.883 589.215 435.185 588.669 435.185H539.814C539.381 435.185 539.027 434.983 539.011 434.753L538.578 430.94C538.578 430.681 538.915 430.45 539.381 430.45H587.464C587.614 430.44 587.764 430.465 587.899 430.523C588.035 430.581 588.151 430.67 588.235 430.781Z" fill="#407BFF"/>
<path opacity="0.2" d="M588.235 430.781L589.44 434.58C589.616 434.883 589.215 435.185 588.669 435.185H539.814C539.381 435.185 539.027 434.983 539.011 434.753L538.578 430.94C538.578 430.681 538.915 430.45 539.381 430.45H587.464C587.614 430.44 587.764 430.465 587.899 430.523C588.035 430.581 588.151 430.67 588.235 430.781Z" fill="black"/>
<path d="M581.683 435.588H582.968C583.225 435.588 583.417 435.473 583.401 435.329L582.791 430.378C582.791 430.234 582.55 430.119 582.293 430.119H581.008C580.751 430.119 580.559 430.234 580.575 430.378L581.185 435.329C581.137 435.473 581.362 435.588 581.683 435.588Z" fill="#407BFF"/>
<path opacity="0.4" d="M581.683 435.588H582.968C583.225 435.588 583.417 435.473 583.401 435.329L582.791 430.378C582.791 430.234 582.55 430.119 582.293 430.119H581.008C580.751 430.119 580.559 430.234 580.575 430.378L581.185 435.329C581.137 435.473 581.362 435.588 581.683 435.588Z" fill="black"/>
<path d="M543.428 435.588H544.713C544.97 435.588 545.179 435.473 545.162 435.329L544.552 430.378C544.552 430.234 544.311 430.119 544.054 430.119H542.769C542.513 430.119 542.32 430.234 542.336 430.378L542.93 435.329C542.946 435.473 543.139 435.588 543.428 435.588Z" fill="#407BFF"/>
<path opacity="0.4" d="M543.428 435.588H544.713C544.97 435.588 545.179 435.473 545.162 435.329L544.552 430.378C544.552 430.234 544.311 430.119 544.054 430.119H542.769C542.513 430.119 542.32 430.234 542.336 430.378L542.93 435.329C542.946 435.473 543.139 435.588 543.428 435.588Z" fill="black"/>
<path d="M562.411 435.588H563.696C563.953 435.588 564.145 435.473 564.129 435.329L563.535 430.378C563.535 430.234 563.294 430.119 563.037 430.119H561.752C561.495 430.119 561.287 430.234 561.303 430.378L561.913 435.329C561.961 435.473 562.186 435.588 562.411 435.588Z" fill="#407BFF"/>
<path opacity="0.4" d="M562.411 435.588H563.696C563.953 435.588 564.145 435.473 564.129 435.329L563.535 430.378C563.535 430.234 563.294 430.119 563.037 430.119H561.752C561.495 430.119 561.287 430.234 561.303 430.378L561.913 435.329C561.961 435.473 562.186 435.588 562.411 435.588Z" fill="black"/>
<path d="M558.99 441.79L547.475 437.171L550.687 447.402C550.687 447.402 558.01 448.841 561.19 445.603L558.99 441.79Z" fill="#FFB573"/>
<path d="M601.469 382.371C601.999 385.969 602.416 389.567 602.898 393.164L604.118 403.972C604.552 407.569 604.857 411.167 605.211 414.779L605.773 420.204L605.901 421.557C605.901 421.701 605.901 422.262 605.981 422.651C606.005 423.068 606.005 423.485 605.981 423.903C605.787 425.449 605.241 426.943 604.375 428.292C602.981 430.374 601.135 432.184 598.947 433.616C597.111 434.853 595.167 435.955 593.133 436.912C589.332 438.662 585.385 440.149 581.329 441.358C573.475 443.719 565.418 445.5 557.239 446.683L555.922 441.517C559.664 440.408 563.487 439.272 567.164 438.005C570.842 436.739 574.568 435.487 578.117 434.033C581.615 432.661 585.006 431.079 588.267 429.299C589.762 428.476 591.185 427.552 592.523 426.536C593.566 425.778 594.433 424.844 595.077 423.787C595.216 423.557 595.299 423.301 595.318 423.039L595.045 421.327L594.193 415.945C593.631 412.361 593.005 408.749 592.587 405.18L591.062 394.402C590.628 390.79 590.114 387.207 589.745 383.595L601.469 382.371Z" fill="#FFB573"/>
<path d="M595.928 369.751C600.746 371.046 606.399 385.725 606.399 385.725L589.713 401.079C589.713 401.079 581.169 385.25 583.177 379.796C585.296 374.054 590.5 368.283 595.928 369.751Z" fill="#263238"/>
<path d="M537.936 439.272L541.196 447.705L550.751 447.374L547.459 437.142L537.936 439.272Z" fill="#FFB573"/>
<path d="M556.774 237.933H345.906C344.057 237.933 342.285 237.275 340.977 236.104C339.67 234.933 338.936 233.344 338.936 231.688C338.936 230.868 339.116 230.057 339.467 229.3C339.817 228.543 340.331 227.856 340.978 227.277C341.626 226.698 342.394 226.239 343.24 225.927C344.086 225.615 344.992 225.455 345.906 225.457H556.774C558.618 225.457 560.387 226.113 561.691 227.282C562.995 228.45 563.728 230.035 563.728 231.688C563.73 232.507 563.552 233.319 563.203 234.077C562.855 234.835 562.343 235.523 561.697 236.103C561.051 236.683 560.283 237.144 559.439 237.458C558.594 237.772 557.688 237.933 556.774 237.933Z" fill="white"/>
<path d="M507.807 264.167H345.906C344.992 264.169 344.086 264.009 343.24 263.697C342.394 263.385 341.626 262.926 340.978 262.347C340.331 261.769 339.817 261.081 339.467 260.324C339.116 259.567 338.936 258.756 338.936 257.936C338.936 256.28 339.67 254.691 340.977 253.52C342.285 252.349 344.057 251.691 345.906 251.691H507.807C509.656 251.691 511.428 252.349 512.736 253.52C514.043 254.691 514.777 256.28 514.777 257.936C514.777 258.756 514.597 259.567 514.246 260.324C513.896 261.081 513.382 261.769 512.735 262.347C512.087 262.926 511.319 263.385 510.473 263.697C509.628 264.009 508.721 264.169 507.807 264.167Z" fill="white"/>
<path d="M377.271 359.274H457.716C459.564 359.274 461.337 358.617 462.644 357.445C463.952 356.274 464.686 354.685 464.686 353.029C464.686 352.21 464.506 351.398 464.155 350.641C463.805 349.884 463.291 349.197 462.644 348.618C461.996 348.039 461.228 347.58 460.382 347.268C459.536 346.956 458.63 346.796 457.716 346.798H377.271C375.427 346.798 373.658 347.454 372.354 348.623C371.05 349.792 370.317 351.376 370.317 353.029C370.315 353.848 370.494 354.66 370.842 355.418C371.191 356.176 371.703 356.864 372.349 357.444C372.994 358.025 373.762 358.485 374.606 358.799C375.451 359.113 376.357 359.275 377.271 359.274Z" fill="white"/>
<path d="M287.881 359.274H343.385C344.299 359.274 345.205 359.113 346.049 358.799C346.894 358.485 347.662 358.024 348.308 357.444C348.953 356.864 349.465 356.176 349.814 355.418C350.162 354.66 350.341 353.848 350.339 353.029C350.339 351.376 349.606 349.791 348.302 348.623C346.998 347.454 345.229 346.798 343.385 346.798H287.881C286.037 346.798 284.268 347.454 282.964 348.623C281.66 349.791 280.927 351.376 280.927 353.029C280.925 353.848 281.103 354.66 281.452 355.418C281.801 356.176 282.312 356.864 282.958 357.444C283.604 358.024 284.372 358.485 285.216 358.799C286.061 359.113 286.967 359.274 287.881 359.274Z" fill="white"/>
<path d="M246.848 385.509H457.716C458.63 385.511 459.536 385.351 460.382 385.038C461.228 384.726 461.996 384.267 462.643 383.689C463.291 383.11 463.805 382.422 464.155 381.665C464.506 380.908 464.686 380.097 464.686 379.277C464.686 377.621 463.952 376.032 462.644 374.861C461.337 373.69 459.564 373.032 457.716 373.032H246.848C245.933 373.032 245.028 373.194 244.183 373.508C243.338 373.822 242.571 374.282 241.925 374.862C241.279 375.442 240.767 376.131 240.419 376.889C240.07 377.646 239.892 378.458 239.894 379.277C239.894 380.93 240.627 382.515 241.931 383.684C243.235 384.852 245.004 385.509 246.848 385.509Z" fill="white"/>
<path d="M160.638 57.5622C160.638 58.7496 160.245 59.9104 159.508 60.8975C158.771 61.8847 157.724 62.6538 156.5 63.1076C155.275 63.5614 153.928 63.6794 152.628 63.4466C151.329 63.2139 150.135 62.641 149.199 61.8003C148.264 60.9596 147.627 59.889 147.37 58.724C147.114 57.559 147.249 56.352 147.758 55.2557C148.267 54.1595 149.128 53.2233 150.232 52.5656C151.335 51.908 152.632 51.5584 153.957 51.5613C155.73 51.5651 157.429 52.199 158.682 53.324C159.934 54.449 160.638 55.9731 160.638 57.5622Z" fill="white"/>
<path d="M176.714 63.563C180.413 63.563 183.411 60.8763 183.411 57.5621C183.411 54.248 180.413 51.5613 176.714 51.5613C173.015 51.5613 170.017 54.248 170.017 57.5621C170.017 60.8763 173.015 63.563 176.714 63.563Z" fill="white"/>
<path d="M199.471 63.563C203.17 63.563 206.168 60.8763 206.168 57.5621C206.168 54.248 203.17 51.5613 199.471 51.5613C195.772 51.5613 192.774 54.248 192.774 57.5621C192.774 60.8763 195.772 63.563 199.471 63.563Z" fill="white"/>
<path d="M231.536 99.92H240.464V128H247.184V99.92H256.112V94.496H231.536V99.92ZM272.439 106.496C275.895 106.496 278.679 108.704 278.775 112.208H266.151C266.679 108.56 269.223 106.496 272.439 106.496ZM285.063 119.648H277.815C276.951 121.424 275.367 122.864 272.487 122.864C269.127 122.864 266.439 120.656 266.103 116.72H285.543C285.687 115.856 285.735 114.992 285.735 114.128C285.735 106.208 280.311 100.976 272.631 100.976C264.759 100.976 259.287 106.304 259.287 114.704C259.287 123.056 264.903 128.432 272.631 128.432C279.207 128.432 283.623 124.544 285.063 119.648ZM309.264 128H315.984V112.4C315.984 105.056 311.568 101.024 305.376 101.024C301.968 101.024 299.088 102.464 297.36 104.72V101.408H290.64V128H297.36V113.312C297.36 109.04 299.712 106.736 303.36 106.736C306.912 106.736 309.264 109.04 309.264 113.312V128ZM323.431 119.744C323.431 125.84 326.839 128 331.927 128H336.151V122.336H333.031C330.919 122.336 330.199 121.568 330.199 119.792V106.928H336.151V101.408H330.199V94.832H323.431V101.408H320.263V106.928H323.431V119.744ZM339.256 114.608C339.256 122.912 344.632 128.432 351.352 128.432C355.576 128.432 358.6 126.416 360.184 124.112V128H366.952V101.408H360.184V105.2C358.6 102.992 355.672 100.976 351.4 100.976C344.632 100.976 339.256 106.304 339.256 114.608ZM360.184 114.704C360.184 119.744 356.824 122.528 353.128 122.528C349.528 122.528 346.12 119.648 346.12 114.608C346.12 109.568 349.528 106.88 353.128 106.88C356.824 106.88 360.184 109.664 360.184 114.704ZM392.139 128H398.859V112.4C398.859 105.056 394.443 101.024 388.251 101.024C384.843 101.024 381.963 102.464 380.235 104.72V101.408H373.515V128H380.235V113.312C380.235 109.04 382.587 106.736 386.235 106.736C389.787 106.736 392.139 109.04 392.139 113.312V128ZM403.521 114.608C403.521 122.912 408.898 128.432 415.666 128.432C419.842 128.432 422.866 126.368 424.45 124.064V128.192C424.45 133.136 421.57 135.248 417.874 135.248C414.514 135.248 412.018 133.664 411.346 131.264H404.674C405.346 137.36 410.578 141.104 418.066 141.104C426.802 141.104 431.218 135.392 431.218 128.192V101.408H424.45V105.2C422.866 102.896 419.842 100.976 415.666 100.976C408.898 100.976 403.521 106.304 403.521 114.608ZM424.45 114.704C424.45 119.744 421.09 122.528 417.394 122.528C413.794 122.528 410.386 119.648 410.386 114.608C410.386 109.568 413.794 106.88 417.394 106.88C421.09 106.88 424.45 109.664 424.45 114.704ZM468.13 128H476.626L462.418 111.104L476.242 94.496H468.13L455.938 109.52V94.496H449.218V128H455.938V113.072L468.13 128ZM479.318 114.608C479.318 122.912 484.694 128.432 491.414 128.432C495.638 128.432 498.662 126.416 500.246 124.112V128H507.014V101.408H500.246V105.2C498.662 102.992 495.734 100.976 491.462 100.976C484.694 100.976 479.318 106.304 479.318 114.608ZM500.246 114.704C500.246 119.744 496.886 122.528 493.19 122.528C489.59 122.528 486.182 119.648 486.182 114.608C486.182 109.568 489.59 106.88 493.19 106.88C496.886 106.88 500.246 109.664 500.246 114.704ZM550.778 128H557.498V112.4C557.498 105.056 552.986 101.024 546.602 101.024C542.714 101.024 539.21 103.088 537.482 106.112C535.658 102.8 532.25 101.024 528.122 101.024C524.81 101.024 521.978 102.416 520.298 104.624V101.408H513.578V128H520.298V113.312C520.298 109.088 522.65 106.88 526.298 106.88C529.85 106.88 532.202 109.088 532.202 113.312V128H538.922V113.312C538.922 109.088 541.274 106.88 544.874 106.88C548.426 106.88 550.778 109.088 550.778 113.312V128ZM563.875 128H570.595V101.408H563.875V128ZM567.283 98.24C569.635 98.24 571.411 96.512 571.411 94.304C571.411 92.096 569.635 90.368 567.283 90.368C564.883 90.368 563.155 92.096 563.155 94.304C563.155 96.512 564.883 98.24 567.283 98.24Z" fill="white"/>
</svg>
