<svg width="703" height="524" viewBox="0 0 703 524" fill="none" xmlns="http://www.w3.org/2000/svg">
<path d="M702.133 459.756H0V460.107H702.133V459.756Z" fill="#EBEBEB"/>
<path d="M214.15 468.238H199.434V468.589H214.15V468.238Z" fill="#EBEBEB"/>
<path d="M654.64 477.45H629.574V477.801H654.64V477.45Z" fill="#EBEBEB"/>
<path d="M536.275 468.407H453.212V468.758H536.275V468.407Z" fill="#EBEBEB"/>
<path d="M328.444 476.411H264.901V476.762H328.444V476.411Z" fill="#EBEBEB"/>
<path d="M196.148 474.192H174.129V474.543H196.148V474.192Z" fill="#EBEBEB"/>
<path d="M598.694 476.411H567.014V476.762H598.694V476.411Z" fill="#EBEBEB"/>
<path d="M165.942 474.024H91.179V474.375H165.942V474.024Z" fill="#EBEBEB"/>
<path d="M332.811 397.126H61.6615C59.5374 397.122 57.5015 396.276 56.0008 394.773C54.5001 393.269 53.6572 391.232 53.6572 389.108V7.94814C53.6757 5.83616 54.5267 3.81676 56.0254 2.32858C57.5241 0.840394 59.5495 0.00361793 61.6615 0H332.811C334.938 0 336.977 0.844789 338.481 2.34852C339.985 3.85225 340.829 5.89175 340.829 8.01835V389.108C340.829 391.234 339.985 393.274 338.481 394.778C336.977 396.281 334.938 397.126 332.811 397.126ZM61.6615 0.280854C59.6305 0.284574 57.6839 1.09401 56.249 2.53151C54.8142 3.969 54.0083 5.91708 54.0083 7.94814V389.108C54.0083 391.139 54.8142 393.087 56.249 394.524C57.6839 395.962 59.6305 396.771 61.6615 396.775H332.811C334.842 396.768 336.788 395.958 338.224 394.521C339.661 393.085 340.471 391.139 340.478 389.108V7.94814C340.471 5.91693 339.661 3.97102 338.224 2.53473C336.788 1.09843 334.842 0.288254 332.811 0.280854H61.6615Z" fill="#EBEBEB"/>
<path d="M636.568 397.126H365.404C363.28 397.119 361.245 396.272 359.742 394.77C358.24 393.267 357.393 391.232 357.386 389.108V7.94814C357.408 5.83488 358.262 3.8155 359.763 2.3277C361.264 0.839903 363.291 0.00357847 365.404 0H636.568C638.677 0.00730849 640.699 0.845717 642.195 2.33351C643.69 3.8213 644.539 5.83859 644.558 7.94814V389.108C644.56 390.159 644.355 391.2 643.954 392.172C643.553 393.144 642.965 394.027 642.223 394.772C641.481 395.516 640.6 396.108 639.63 396.512C638.659 396.915 637.619 397.124 636.568 397.126ZM365.404 0.280854C363.373 0.288254 361.427 1.09843 359.991 2.53473C358.554 3.97102 357.744 5.91693 357.737 7.94814V389.108C357.744 391.139 358.554 393.085 359.991 394.521C361.427 395.958 363.373 396.768 365.404 396.775H636.568C638.599 396.768 640.545 395.958 641.981 394.521C643.417 393.085 644.228 391.139 644.235 389.108V7.94814C644.228 5.91693 643.417 3.97102 641.981 2.53473C640.545 1.09843 638.599 0.288254 636.568 0.280854H365.404Z" fill="#EBEBEB"/>
<path d="M286.175 41.6083H108.901V306.93H286.175V41.6083Z" fill="#E6E6E6"/>
<path d="M282.243 41.6083H104.969V306.93H282.243V41.6083Z" fill="#F5F5F5"/>
<path d="M275.166 49.5567H112.032V298.996H275.166V49.5567Z" fill="white"/>
<path d="M115.023 49.5427H112.046V298.982H115.023V49.5427Z" fill="#E6E6E6"/>
<path d="M279.308 221.593H107.89V232.251H279.308V221.593Z" fill="#F5F5F5"/>
<path opacity="0.4" d="M279.322 29.5596H97.6101V84.1294H279.322V29.5596Z" fill="#F0F0F0"/>
<path d="M97.2593 28.4644H293.856C294.125 28.4777 294.38 28.5896 294.572 28.7787C294.763 28.9678 294.879 29.2208 294.896 29.4895C294.896 29.78 294.78 30.0586 294.575 30.2641C294.369 30.4695 294.091 30.5849 293.8 30.5849H97.2031C96.9151 30.5812 96.6401 30.4641 96.4377 30.2591C96.2353 30.0541 96.1218 29.7776 96.1218 29.4895C96.1434 29.2052 96.2735 28.9402 96.4853 28.7493C96.6971 28.5584 96.9743 28.4564 97.2593 28.4644Z" fill="#E6E6E6"/>
<path d="M90.7295 29.4896C90.7267 30.5672 91.0436 31.6214 91.64 32.519C92.2363 33.4165 93.0855 34.1171 94.08 34.532C95.0745 34.947 96.1698 35.0577 97.2272 34.8502C98.2847 34.6427 99.2568 34.1262 100.021 33.3662C100.785 32.6062 101.306 31.6367 101.519 30.5803C101.732 29.524 101.627 28.4282 101.217 27.4315C100.807 26.4349 100.111 25.5821 99.2168 24.9811C98.3223 24.3801 97.2697 24.0579 96.1921 24.0551C95.4766 24.0532 94.7677 24.1923 94.106 24.4644C93.4442 24.7366 92.8425 25.1363 92.3353 25.641C91.828 26.1456 91.4251 26.7452 91.1496 27.4056C90.8741 28.0659 90.7314 28.7741 90.7295 29.4896Z" fill="#E6E6E6"/>
<path d="M284.715 35.6402C285.094 35.6406 285.459 35.495 285.734 35.2334C286.008 34.9719 286.171 34.6147 286.189 34.2359V31.0202C286.171 30.6414 286.008 30.2842 285.734 30.0226C285.459 29.7611 285.094 29.6155 284.715 29.6159C284.525 29.6064 284.335 29.6357 284.156 29.7019C283.977 29.7682 283.814 29.8702 283.676 30.0015C283.538 30.1329 283.429 30.2909 283.354 30.466C283.279 30.6412 283.24 30.8297 283.24 31.0202V34.25C283.24 34.6224 283.388 34.9796 283.652 35.2429C283.915 35.5063 284.272 35.6542 284.645 35.6542L284.715 35.6402Z" fill="#E6E6E6"/>
<path d="M113.745 35.6403C114.118 35.6403 114.475 35.4923 114.738 35.229C115.002 34.9656 115.15 34.6084 115.15 34.236V31.0202C115.15 30.6478 115.002 30.2906 114.738 30.0273C114.475 29.7639 114.118 29.616 113.745 29.616C113.373 29.616 113.016 29.7639 112.752 30.0273C112.489 30.2906 112.341 30.6478 112.341 31.0202V34.1798C112.341 34.5523 112.489 34.9094 112.752 35.1728C113.016 35.4361 113.373 35.5841 113.745 35.5841V35.6403Z" fill="#E6E6E6"/>
<path d="M261.769 29.4896C261.766 30.5672 262.083 31.6214 262.679 32.519C263.276 33.4165 264.125 34.1171 265.119 34.532C266.114 34.947 267.209 35.0577 268.267 34.8502C269.324 34.6427 270.296 34.1262 271.06 33.3662C271.824 32.6062 272.345 31.6367 272.558 30.5803C272.771 29.524 272.666 28.4282 272.257 27.4315C271.847 26.4349 271.151 25.5821 270.256 24.9811C269.362 24.3801 268.309 24.0579 267.231 24.0551C266.516 24.0532 265.807 24.1923 265.145 24.4644C264.484 24.7366 263.882 25.1363 263.375 25.641C262.867 26.1456 262.464 26.7452 262.189 27.4056C261.913 28.0659 261.771 28.7741 261.769 29.4896Z" fill="#E6E6E6"/>
<path d="M602.753 338.849H551.469V452.538H602.753V338.849Z" fill="#E6E6E6"/>
<path d="M592.909 452.552H340.029V459.756H592.909V452.552Z" fill="#E6E6E6"/>
<path d="M551.469 338.863H330.171V452.552H551.469V338.863Z" fill="#F5F5F5"/>
<path d="M531.318 352.85H350.336V390.133H531.318V352.85Z" fill="#E6E6E6"/>
<path d="M531.318 401.269H350.336V438.552H531.318V401.269Z" fill="#E6E6E6"/>
<path d="M463.871 368.942H417.754C416.506 368.942 415.494 369.955 415.494 371.203V371.793C415.494 373.042 416.506 374.054 417.754 374.054H463.871C465.119 374.054 466.131 373.042 466.131 371.793V371.203C466.131 369.955 465.119 368.942 463.871 368.942Z" fill="#F5F5F5"/>
<path d="M463.871 417.348H417.754C416.506 417.348 415.494 418.36 415.494 419.608V420.198C415.494 421.447 416.506 422.459 417.754 422.459H463.871C465.119 422.459 466.131 421.447 466.131 420.198V419.608C466.131 418.36 465.119 417.348 463.871 417.348Z" fill="#F5F5F5"/>
<path d="M490.327 322.546C496.594 322.546 501.674 317.466 501.674 311.199C501.674 304.933 496.594 299.853 490.327 299.853C484.061 299.853 478.981 304.933 478.981 311.199C478.981 317.466 484.061 322.546 490.327 322.546Z" fill="#F5F5F5"/>
<path d="M469.853 319.976C476.096 319.976 481.157 314.915 481.157 308.672C481.157 302.429 476.096 297.367 469.853 297.367C463.61 297.367 458.549 302.429 458.549 308.672C458.549 314.915 463.61 319.976 469.853 319.976Z" fill="#F5F5F5"/>
<path d="M415.199 325.2C421.442 325.2 426.503 320.139 426.503 313.895C426.503 307.652 421.442 302.591 415.199 302.591C408.956 302.591 403.895 307.652 403.895 313.895C403.895 320.139 408.956 325.2 415.199 325.2Z" fill="#F5F5F5"/>
<path d="M444.337 330.423C450.58 330.423 455.641 325.362 455.641 319.119C455.641 312.876 450.58 307.815 444.337 307.815C438.094 307.815 433.033 312.876 433.033 319.119C433.033 325.362 438.094 330.423 444.337 330.423Z" fill="#F5F5F5"/>
<path d="M520.462 312.856C520.462 312.856 518.637 338.863 448.48 338.863C378.323 338.863 376.497 312.856 376.497 312.856H520.462Z" fill="#E6E6E6"/>
<path d="M281.555 341.7H255.956V452.721H281.555V341.7Z" fill="#E6E6E6"/>
<path d="M276.626 452.721H110.586V459.756H276.626V452.721Z" fill="#E6E6E6"/>
<path d="M255.942 341.7H105.671V452.721H255.942V341.7Z" fill="#F5F5F5"/>
<path d="M245.886 355.363H115.739V391.776H245.886V355.363Z" fill="#E6E6E6"/>
<path d="M245.886 402.645H115.739V439.058H245.886V402.645Z" fill="#E6E6E6"/>
<path d="M161.098 359.815H200.515C201.799 359.808 203.029 359.295 203.938 358.389C204.847 357.482 205.363 356.254 205.374 354.97C205.37 353.683 204.857 352.449 203.947 351.539C203.037 350.628 201.803 350.115 200.515 350.111H161.098C159.814 350.122 158.586 350.638 157.679 351.548C156.773 352.457 156.26 353.686 156.253 354.97C156.26 356.253 156.773 357.481 157.68 358.388C158.587 359.295 159.815 359.807 161.098 359.815Z" fill="#F5F5F5"/>
<path d="M161.098 407.096H200.515C201.803 407.093 203.037 406.58 203.947 405.669C204.857 404.759 205.37 403.525 205.374 402.238C205.363 400.954 204.847 399.726 203.938 398.819C203.029 397.913 201.799 397.4 200.515 397.393H161.098C159.815 397.4 158.587 397.913 157.68 398.82C156.773 399.727 156.26 400.955 156.253 402.238C156.26 403.522 156.773 404.751 157.679 405.66C158.586 406.569 159.814 407.085 161.098 407.096Z" fill="#F5F5F5"/>
<path d="M466.202 66.0565H392.703V215.667H466.202V66.0565Z" fill="#EBEBEB"/>
<path d="M464.615 66.0565H386.805V215.667H464.615V66.0565Z" fill="#F5F5F5"/>
<path d="M453.283 77.375H398.109V204.349H453.283V77.375Z" fill="white"/>
<path d="M603.946 145.664H563.7V192.033H603.946V145.664Z" fill="#EBEBEB"/>
<path d="M599.172 145.664H555.555V192.033H599.172V145.664Z" fill="#F5F5F5"/>
<path d="M595.52 149.33H559.22V188.382H595.52V149.33Z" fill="white"/>
<path d="M583.514 158.794H571.213C569.444 158.794 568.011 160.227 568.011 161.996V175.715C568.011 177.484 569.444 178.917 571.213 178.917H583.514C585.282 178.917 586.716 177.484 586.716 175.715V161.996C586.716 160.227 585.282 158.794 583.514 158.794Z" fill="#F0F0F0"/>
<path d="M571.508 81.1523H531.261V127.521H571.508V81.1523Z" fill="#EBEBEB"/>
<path d="M566.748 81.1523H523.131V127.521H566.748V81.1523Z" fill="#F5F5F5"/>
<path d="M563.096 84.8033H526.796V123.856H563.096V84.8033Z" fill="white"/>
<path d="M551.09 94.2683H538.788C537.02 94.2683 535.586 95.7018 535.586 97.47V111.19C535.586 112.958 537.02 114.391 538.788 114.391H551.09C552.858 114.391 554.291 112.958 554.291 111.19V97.47C554.291 95.7018 552.858 94.2683 551.09 94.2683Z" fill="#F0F0F0"/>
<path d="M351.066 523.173C501.438 523.173 623.339 516.056 623.339 507.277C623.339 498.497 501.438 491.38 351.066 491.38C200.693 491.38 78.7927 498.497 78.7927 507.277C78.7927 516.056 200.693 523.173 351.066 523.173Z" fill="#F5F5F5"/>
<path d="M457.201 100.222H154.007V397.098H457.201V100.222Z" fill="#407BFF"/>
<path opacity="0.7" d="M457.201 100.222H154.007V397.098H457.201V100.222Z" fill="black"/>
<path d="M449.422 109.715H161.815V397.098H449.422V109.715Z" fill="white"/>
<path d="M457.202 392.913V397.098H304.404L337.432 364.098L382.902 318.6L457.202 392.913Z" fill="#407BFF"/>
<path opacity="0.7" d="M457.202 392.913V397.098H304.404L337.432 364.098L382.902 318.6L457.202 392.913Z" fill="black"/>
<path d="M154.007 397.098V368.563L247.952 274.618L370.432 397.098H154.007Z" fill="#407BFF"/>
<path opacity="0.7" d="M154.007 397.098V368.563L247.952 274.618L370.432 397.098H154.007Z" fill="black"/>
<path d="M401.435 202.955C405.543 177.647 388.356 153.8 363.048 149.692C337.739 145.584 313.892 162.77 309.784 188.078C305.676 213.387 322.862 237.234 348.171 241.342C373.479 245.45 397.326 228.264 401.435 202.955Z" fill="#407BFF"/>
<path opacity="0.7" d="M401.435 202.955C405.543 177.647 388.356 153.8 363.048 149.692C337.739 145.584 313.892 162.77 309.784 188.078C305.676 213.387 322.862 237.234 348.171 241.342C373.479 245.45 397.326 228.264 401.435 202.955Z" fill="black"/>
<path d="M243.921 94.3826L215.054 389.851L516.813 419.333L545.679 123.864L243.921 94.3826Z" fill="#407BFF"/>
<path opacity="0.1" d="M243.922 94.2888L215.055 389.758L516.813 419.239L545.68 123.77L243.922 94.2888Z" fill="black"/>
<path d="M250.771 104.59L222.827 390.611L509.072 418.577L537.016 132.556L250.771 104.59Z" fill="white"/>
<path d="M512.02 115.634L511.883 117.032L521.918 118.012L522.054 116.614L512.02 115.634Z" fill="#407BFF"/>
<path d="M480.055 110.457L479.916 111.854L504.592 114.322L504.732 112.924L480.055 110.457Z" fill="#407BFF"/>
<path opacity="0.1" d="M512.02 115.634L511.883 117.032L521.918 118.012L522.054 116.614L512.02 115.634Z" fill="black"/>
<path opacity="0.1" d="M480.055 110.457L479.916 111.854L504.592 114.322L504.732 112.924L480.055 110.457Z" fill="black"/>
<path opacity="0.1" d="M517.205 415.143L516.798 419.314L364.73 404.456L400.805 374.826L450.488 333.962L517.205 415.143Z" fill="black"/>
<path d="M517.205 415.143L516.798 419.314L364.73 404.456L400.805 374.826L450.488 333.962L517.205 415.143Z" fill="#407BFF"/>
<path opacity="0.1" d="M517.205 415.143L516.798 419.314L364.73 404.456L400.805 374.826L450.488 333.962L517.205 415.143Z" fill="black"/>
<path opacity="0.1" d="M435.294 255.239C460.934 255.239 481.719 234.454 481.719 208.814C481.719 183.175 460.934 162.389 435.294 162.389C409.654 162.389 388.869 183.175 388.869 208.814C388.869 234.454 409.654 255.239 435.294 255.239Z" fill="black"/>
<path d="M435.294 255.239C460.934 255.239 481.719 234.454 481.719 208.814C481.719 183.175 460.934 162.389 435.294 162.389C409.654 162.389 388.869 183.175 388.869 208.814C388.869 234.454 409.654 255.239 435.294 255.239Z" fill="#407BFF"/>
<path opacity="0.1" d="M435.294 255.239C460.934 255.239 481.719 234.454 481.719 208.814C481.719 183.175 460.934 162.389 435.294 162.389C409.654 162.389 388.869 183.175 388.869 208.814C388.869 234.454 409.654 255.239 435.294 255.239Z" fill="black"/>
<path d="M411.112 133.595L108.563 153.372L127.928 449.615L430.477 429.838L411.112 133.595Z" fill="#407BFF"/>
<path d="M403.953 143.57L116.958 162.33L135.703 449.101L422.698 430.34L403.953 143.57Z" fill="white"/>
<path opacity="0.5" d="M411.112 133.595L108.563 153.372L127.928 449.615L430.477 429.838L411.112 133.595Z" fill="white"/>
<path d="M430.17 425.689L430.436 429.86L277.975 439.816L308.771 404.737L351.18 356.374L430.17 425.689Z" fill="#407BFF"/>
<path opacity="0.5" d="M430.17 425.689L430.436 429.86L277.975 439.816L308.771 404.737L351.18 356.374L430.17 425.689Z" fill="white"/>
<path d="M127.888 449.617L126.034 421.153L213.66 321.282L343.849 435.519L127.888 449.617Z" fill="#407BFF"/>
<path opacity="0.5" d="M127.888 449.617L126.034 421.153L213.66 321.282L343.849 435.519L127.888 449.617Z" fill="white"/>
<path d="M315.933 281.751C341.573 281.751 362.358 260.966 362.358 235.326C362.358 209.687 341.573 188.901 315.933 188.901C290.293 188.901 269.508 209.687 269.508 235.326C269.508 260.966 290.293 281.751 315.933 281.751Z" fill="#407BFF"/>
<path opacity="0.5" d="M315.933 281.751C341.573 281.751 362.358 260.966 362.358 235.326C362.358 209.687 341.573 188.901 315.933 188.901C290.293 188.901 269.508 209.687 269.508 235.326C269.508 260.966 290.293 281.751 315.933 281.751Z" fill="white"/>
<path d="M548.549 204.911C549.546 206.75 550.374 208.379 551.189 210.149C552.003 211.918 552.804 213.617 553.576 215.373C555.079 218.883 556.483 222.394 557.789 226.115C559.071 229.8 560.158 233.55 561.047 237.349L561.707 240.242L562.24 243.177C562.437 244.16 562.549 245.171 562.69 246.168L562.886 247.685V248.682C562.915 249.149 562.915 249.618 562.886 250.086C562.776 252.767 562.156 255.402 561.061 257.852C560.214 259.814 559.238 261.719 558.14 263.553C556.095 266.906 553.829 270.12 551.357 273.172C546.604 279.078 541.397 284.605 535.784 289.7L530.055 284.561C534.141 278.663 538.199 272.568 541.851 266.53C543.638 263.592 545.274 260.564 546.751 257.458C547.417 256.062 547.984 254.622 548.451 253.147C548.8 252.199 548.971 251.195 548.956 250.184V249.875L548.689 248.668C548.521 247.853 548.366 247.053 548.128 246.238L547.482 243.795L546.765 241.337C545.74 238.065 544.603 234.794 543.325 231.508C542.047 228.222 540.699 225.006 539.281 221.79C537.862 218.574 536.304 215.288 534.871 212.325L548.549 204.911Z" fill="#EEC1BB"/>
<path d="M564.656 229.472L545.544 239.568L540.938 242.012C540.938 242.012 539.857 238.852 538.326 234.26C537.09 230.595 535.517 226.031 534.029 221.411C533.551 220.007 533.074 218.504 532.625 217.072C532.484 216.665 532.344 216.271 532.217 215.864C528.089 203.226 539.548 197.539 547.341 199.167C560.682 201.962 564.656 229.472 564.656 229.472Z" fill="#407BFF"/>
<path opacity="0.7" d="M564.656 229.472L545.544 239.568L540.938 242.012C540.938 242.012 539.857 238.852 538.326 234.26C537.09 230.595 535.517 226.031 534.029 221.411C533.551 220.007 533.074 218.504 532.625 217.072C532.484 216.665 532.344 216.271 532.217 215.864C528.089 203.226 539.548 197.539 547.341 199.167C560.682 201.962 564.656 229.472 564.656 229.472Z" fill="white"/>
<path d="M545.543 239.568L540.937 242.011C540.937 242.011 539.856 238.852 538.326 234.26C537.09 230.595 535.517 226.031 534.029 221.411C533.551 220.007 533.074 218.504 532.624 217.072L543.156 215.007C543.156 215.007 544.589 231.704 545.543 239.568Z" fill="#407BFF"/>
<path opacity="0.6" d="M545.543 239.568L540.937 242.011C540.937 242.011 539.856 238.852 538.326 234.26C537.09 230.595 535.517 226.031 534.029 221.411C533.551 220.007 533.074 218.504 532.624 217.072L543.156 215.007C543.156 215.007 544.589 231.704 545.543 239.568Z" fill="white"/>
<path d="M532.386 282.96L522.556 286.232L531.473 295.795C531.473 295.795 539.238 291.147 537.244 286.751L532.386 282.96Z" fill="#EEC1BB"/>
<path d="M515.773 295.036L523.497 302.465L531.445 295.795L522.528 286.232L515.773 295.036Z" fill="#EEC1BB"/>
<path d="M461.934 485.497L451.739 484.739L450.784 460.908L460.979 461.666L461.934 485.497Z" fill="#EEC1BB"/>
<path d="M527.162 494.597H516.925L508.949 470.893H519.186L527.162 494.597Z" fill="#EEC1BB"/>
<path d="M450.784 460.922L451.276 473.21L461.485 473.968L460.993 461.68L450.784 460.922Z" fill="#DB9792"/>
<path d="M519.186 470.907H508.949L513.063 483.124H523.3L519.186 470.907Z" fill="#DB9792"/>
<path d="M526.993 480.751H508.246C508.246 480.751 489.991 417.952 485.399 385.443C484.416 378.422 484.992 369.154 486.466 359.099C488.98 341.897 494.063 322.364 498.29 307.787C502.053 294.826 505.157 285.768 505.157 285.768L540.39 288.394C538.48 313.966 513.175 355.954 514.931 390.653C516.545 422.684 526.993 480.751 526.993 480.751Z" fill="#407BFF"/>
<path opacity="0.7" d="M526.993 480.751H508.246C508.246 480.751 489.991 417.952 485.399 385.443C484.416 378.422 484.992 369.154 486.466 359.099C488.98 341.897 494.063 322.364 498.29 307.787C502.053 294.826 505.157 285.768 505.157 285.768L540.39 288.394C538.48 313.966 513.175 355.954 514.931 390.653C516.545 422.684 526.993 480.751 526.993 480.751Z" fill="black"/>
<path d="M532.119 170.225C529.928 177.528 527.105 191.037 531.824 196.513C531.824 196.513 529.015 203.872 515.197 202.495C499.975 200.979 508.682 194.224 508.682 194.224C517.177 193.059 517.585 186.88 516.7 180.94L532.119 170.225Z" fill="#EEC1BB"/>
<path d="M506.168 159.174C506.083 159.988 505.578 160.578 505.044 160.578C504.511 160.578 504.145 159.82 504.216 158.991C504.286 158.163 504.805 157.587 505.339 157.587C505.873 157.587 506.252 158.345 506.168 159.174Z" fill="#263238"/>
<path d="M506.14 159.581C504.917 161.996 503.362 164.227 501.52 166.209C502.039 166.668 502.653 167.008 503.317 167.204C503.982 167.401 504.682 167.45 505.367 167.347L506.14 159.581Z" fill="#D4827D"/>
<path d="M509.314 156.464C509.229 156.465 509.145 156.444 509.071 156.402C508.996 156.36 508.935 156.299 508.892 156.225C508.591 155.699 508.169 155.252 507.661 154.92C507.153 154.588 506.574 154.381 505.972 154.315C505.842 154.308 505.721 154.251 505.632 154.157C505.543 154.063 505.494 153.939 505.494 153.81C505.49 153.75 505.499 153.69 505.519 153.634C505.539 153.578 505.57 153.527 505.611 153.483C505.652 153.44 505.701 153.405 505.756 153.382C505.811 153.358 505.87 153.346 505.929 153.346H506C506.765 153.413 507.503 153.664 508.151 154.077C508.799 154.49 509.337 155.054 509.721 155.719C509.789 155.829 509.811 155.962 509.782 156.088C509.753 156.214 509.676 156.324 509.566 156.393C509.489 156.436 509.402 156.46 509.314 156.464Z" fill="#263238"/>
<path d="M515.563 493.403H528.004C528.208 493.402 528.406 493.471 528.565 493.599C528.723 493.727 528.833 493.906 528.875 494.105L530.897 503.205C530.938 503.398 530.941 503.598 530.904 503.793C530.868 503.987 530.793 504.173 530.685 504.339C530.577 504.504 530.437 504.647 530.273 504.759C530.11 504.87 529.926 504.948 529.732 504.988H529.395C525.392 504.918 522.458 504.693 517.402 504.693C514.299 504.693 507.881 505.016 503.584 505.016C499.287 505.016 498.74 500.803 500.495 500.382C508.373 498.655 511.35 496.282 513.863 494.007C514.338 493.607 514.942 493.392 515.563 493.403Z" fill="#263238"/>
<path d="M451.247 482.45L462.397 483.278C462.6 483.298 462.79 483.384 462.937 483.524C463.085 483.664 463.181 483.849 463.212 484.05L464.546 493.262C464.578 493.455 464.571 493.653 464.526 493.843C464.481 494.033 464.399 494.213 464.284 494.371C464.169 494.529 464.023 494.662 463.856 494.764C463.689 494.865 463.503 494.933 463.31 494.962C463.189 494.976 463.066 494.976 462.945 494.962C458.929 494.582 453.115 493.922 448.088 493.557C442.176 493.122 438.258 492.911 431.321 492.392C427.108 492.083 426.294 487.758 428.063 487.505C436.18 486.353 441.516 486.803 448.734 483.067C449.498 482.633 450.368 482.419 451.247 482.45Z" fill="#263238"/>
<path d="M486.41 203.254C485.483 204.84 484.374 206.652 483.348 208.365C482.323 210.078 481.2 211.82 480.091 213.519C477.886 216.931 475.597 220.273 473.224 223.503C470.85 226.733 468.379 229.85 465.781 232.757C463.546 235.287 461.114 237.635 458.507 239.779C456.342 240.279 454.139 240.598 451.921 240.733C449.102 240.875 446.277 240.705 443.495 240.228C439.151 239.467 434.94 238.076 430.997 236.099C430.337 235.762 429.691 235.397 429.06 235.032L427.29 233.979L421.94 239.484C422.698 240.354 423.274 240.888 423.962 241.618C424.617 242.263 425.307 242.872 426.026 243.444C427.431 244.626 428.908 245.719 430.45 246.716C433.591 248.724 436.968 250.337 440.504 251.518C444.115 252.714 447.86 253.454 451.654 253.723C455.477 253.96 459.315 253.739 463.085 253.063L464.25 252.852L465.584 251.982C469.513 249.36 473.156 246.333 476.454 242.952C479.633 239.761 482.615 236.38 485.385 232.827C488.193 229.345 490.693 225.736 493.122 222.071C494.33 220.203 495.495 218.321 496.633 216.454C497.77 214.586 498.852 212.718 499.975 210.612L486.41 203.254Z" fill="#EEC1BB"/>
<path d="M431.938 237.321L424.299 230.637L418.471 240.72C418.471 240.72 423.906 246.814 430.295 242.98L431.938 237.321Z" fill="#EEC1BB"/>
<path d="M413.669 226.255L409.611 235.481L418.416 240.719L424.299 230.693L413.669 226.255Z" fill="#EEC1BB"/>
<path d="M534.126 159.104C532.498 169.13 532.062 175.07 526.459 179.746C518.034 186.768 506.027 180.912 504.623 170.605C503.359 161.336 506.224 146.493 516.489 143.46C518.751 142.782 521.149 142.693 523.456 143.201C525.762 143.71 527.9 144.8 529.667 146.367C531.434 147.934 532.771 149.927 533.552 152.156C534.332 154.385 534.53 156.777 534.126 159.104Z" fill="#EEC1BB"/>
<path d="M545.473 153.824C552.972 159.076 535.124 178.342 528.777 178.131C522.429 177.921 510.521 160.325 514.425 150.959C511.153 149.639 510.1 149.204 508.808 145.861C506.393 139.809 509.3 129.712 524.129 132.549C520.449 135.049 523.005 137.029 529.984 136.06C527.176 139.332 531.782 141.747 538.564 140.343C537.371 146.353 552.495 147.21 545.473 153.824Z" fill="#263238"/>
<path d="M520.014 162.207C519.538 164.714 518.096 166.933 515.998 168.386C513.189 170.281 510.718 168.035 510.605 164.819C510.507 161.94 511.841 157.475 515.085 156.871C516.219 156.68 517.382 156.946 518.32 157.613C519.257 158.279 519.892 159.29 520.084 160.423C520.181 161.017 520.157 161.623 520.014 162.207Z" fill="#EEC1BB"/>
<path opacity="0.4" d="M507.614 315.174C507.418 332.193 495.453 350.996 486.466 359.099C488.98 341.897 494.063 322.363 498.29 307.787C500.916 307.253 505.424 312.239 507.614 315.174Z" fill="black"/>
<path d="M512.178 495.2C511.481 495.253 510.787 495.065 510.212 494.667C510.025 494.515 509.881 494.318 509.792 494.094C509.704 493.87 509.674 493.627 509.707 493.389C509.707 493.248 509.745 493.11 509.816 492.989C509.888 492.868 509.991 492.769 510.114 492.701C511.265 492.139 514.551 494.105 514.93 494.386C514.967 494.413 514.995 494.45 515.012 494.492C515.03 494.534 515.035 494.58 515.029 494.625C515.023 494.673 515.003 494.718 514.97 494.753C514.937 494.789 514.894 494.812 514.846 494.821C513.976 495.059 513.08 495.187 512.178 495.2ZM510.661 493.08C510.556 493.052 510.444 493.052 510.338 493.08C510.291 493.109 510.251 493.151 510.224 493.2C510.197 493.249 510.183 493.305 510.184 493.361C510.164 493.525 510.184 493.691 510.243 493.845C510.301 493.999 510.397 494.137 510.521 494.245C511.661 494.767 512.957 494.833 514.144 494.428C513.082 493.745 511.9 493.269 510.661 493.024V493.08Z" fill="#407BFF"/>
<path d="M514.79 494.835H514.677C513.624 494.26 511.574 492.027 511.785 490.875C511.82 490.697 511.917 490.536 512.058 490.421C512.199 490.306 512.375 490.243 512.557 490.243C512.742 490.214 512.932 490.227 513.111 490.281C513.291 490.334 513.457 490.427 513.596 490.552C514.776 491.521 515 494.47 515 494.597C514.999 494.64 514.989 494.683 514.969 494.721C514.95 494.76 514.922 494.794 514.888 494.821L514.79 494.835ZM512.725 490.622H512.627C512.304 490.622 512.276 490.805 512.262 490.861C512.136 491.535 513.442 493.234 514.495 494.035C514.418 492.872 513.997 491.758 513.287 490.833C513.126 490.713 512.925 490.658 512.725 490.679V490.622Z" fill="#407BFF"/>
<path d="M447.751 483.952C446.581 484.08 445.404 483.78 444.437 483.11C444.286 482.951 444.174 482.759 444.111 482.549C444.047 482.339 444.034 482.118 444.072 481.902C444.085 481.768 444.134 481.641 444.213 481.532C444.292 481.424 444.398 481.338 444.521 481.284C445.813 480.694 449.759 483.068 450.208 483.348C450.249 483.375 450.282 483.413 450.302 483.458C450.322 483.503 450.328 483.553 450.321 483.601C450.308 483.651 450.281 483.695 450.244 483.73C450.207 483.765 450.16 483.789 450.11 483.798C449.327 483.898 448.54 483.95 447.751 483.952ZM445.055 481.663C444.943 481.665 444.833 481.689 444.732 481.733C444.683 481.753 444.64 481.786 444.608 481.828C444.575 481.87 444.555 481.92 444.549 481.972C444.52 482.115 444.526 482.263 444.568 482.402C444.61 482.542 444.685 482.669 444.788 482.773C445.378 483.376 447.049 483.601 449.324 483.391C448.024 482.548 446.575 481.962 445.055 481.663Z" fill="#407BFF"/>
<path d="M450.082 483.798H449.955C448.776 483.152 446.501 480.765 446.767 479.585C446.838 479.318 447.048 478.995 447.722 478.967C448.209 478.964 448.677 479.15 449.028 479.487C449.866 480.669 450.317 482.082 450.32 483.531C450.32 483.573 450.31 483.614 450.29 483.65C450.271 483.687 450.243 483.718 450.208 483.742L450.082 483.798ZM447.778 479.473C447.329 479.473 447.301 479.655 447.287 479.711C447.118 480.385 448.691 482.253 449.843 483.096C449.82 481.925 449.432 480.791 448.733 479.852C448.609 479.727 448.46 479.628 448.295 479.563C448.131 479.498 447.955 479.467 447.778 479.473Z" fill="#407BFF"/>
<path d="M485.876 284.336C485.876 284.336 441.67 351.207 440.462 382.41C439.212 414.862 447.694 470.556 447.694 470.556L464.98 471.848C464.98 471.848 466.988 418.879 470.12 387.142C473.532 352.555 523.482 314.008 525.448 287.285L485.876 284.336Z" fill="#407BFF"/>
<path opacity="0.7" d="M485.876 284.336C485.876 284.336 441.67 351.207 440.462 382.41C439.212 414.862 447.694 470.556 447.694 470.556L464.98 471.848C464.98 471.848 466.988 418.879 470.12 387.142C473.532 352.555 523.482 314.008 525.448 287.285L485.876 284.336Z" fill="black"/>
<path d="M504.932 481.158H529.437V474.558L502.054 474.136L504.932 481.158Z" fill="#407BFF"/>
<path d="M444.156 470.654L468.154 472.493L468.66 465.837L441.796 463.436L444.156 470.654Z" fill="#407BFF"/>
<path d="M504.932 207.958C504.202 217.703 492.658 236.703 492.658 236.703L466.525 222.969C466.525 222.969 475.372 208.744 485.047 200.277C494.723 191.809 505.732 197.243 504.932 207.958Z" fill="#407BFF"/>
<path opacity="0.7" d="M504.932 207.958C504.202 217.703 492.658 236.703 492.658 236.703L466.525 222.969C466.525 222.969 475.372 208.744 485.047 200.277C494.723 191.809 505.732 197.243 504.932 207.958Z" fill="white"/>
<path d="M505.718 196.794C506.42 195.39 505.409 190.391 505.409 190.391C505.409 190.391 527.133 187.47 534.899 190.236C539.112 191.725 535.405 199.238 535.405 199.238L505.718 196.794Z" fill="#407BFF"/>
<path opacity="0.7" d="M505.718 196.794C506.42 195.39 505.409 190.391 505.409 190.391C505.409 190.391 527.133 187.47 534.899 190.236C539.112 191.725 535.405 199.238 535.405 199.238L505.718 196.794Z" fill="black"/>
<path d="M540.376 288.394L485.877 284.336C484.096 270.613 483.472 256.765 484.009 242.938C484.234 237.967 484.627 233.389 485.104 229.205C487.632 207.312 492.968 196.19 492.968 196.19C498.215 195.22 503.53 194.661 508.864 194.519C516.624 194.645 524.37 195.222 532.063 196.246C537.639 196.959 543.161 198.048 548.591 199.504C537.568 238.374 541.373 280.039 540.376 288.394Z" fill="#407BFF"/>
<path opacity="0.7" d="M540.376 288.394L485.877 284.336C484.096 270.613 483.472 256.765 484.009 242.938C484.234 237.967 484.627 233.389 485.104 229.205C487.632 207.312 492.968 196.19 492.968 196.19C498.215 195.22 503.53 194.661 508.864 194.519C516.624 194.645 524.37 195.222 532.063 196.246C537.639 196.959 543.161 198.048 548.591 199.504C537.568 238.374 541.373 280.039 540.376 288.394Z" fill="white"/>
</svg>
