<svg width="727" height="536" viewBox="0 0 727 536" fill="none" xmlns="http://www.w3.org/2000/svg">
<path d="M207.039 391.166C168.631 359.446 53.2935 269.81 92.602 171.539C133.553 69.037 216.575 83.4869 315.21 138.263C407.317 189.405 424.515 75.1426 549.098 144.325C654.594 202.91 664.959 403.188 483.768 460.857C373.765 495.79 250.432 427.015 207.039 391.166Z" fill="#F1F5FE"/>
<path d="M207.039 391.166C168.631 359.446 53.2935 269.81 92.602 171.539C133.553 69.037 216.575 83.4869 315.21 138.263C407.317 189.405 424.515 75.1426 549.098 144.325C654.594 202.91 664.959 403.188 483.768 460.857C373.765 495.79 250.432 427.015 207.039 391.166Z" fill="#F1F5FE"/>
<path d="M654.027 499.337H605.88V499.701H654.027V499.337Z" fill="#EBEBEB"/>
<path d="M481.5 503.291H468.867V503.655H481.5V503.291Z" fill="#EBEBEB"/>
<path d="M604.427 485.847H576.53V486.21H604.427V485.847Z" fill="#EBEBEB"/>
<path d="M139.048 488.289H76.2617V488.653H139.048V488.289Z" fill="#EBEBEB"/>
<path d="M161.203 488.289H152V488.653H161.203V488.289Z" fill="#EBEBEB"/>
<path d="M327.304 494.424H191.12V494.787H327.304V494.424Z" fill="#EBEBEB"/>
<path d="M344.531 411.111H63.8471C61.6456 411.111 59.5343 410.237 57.9776 408.68C56.4209 407.123 55.5464 405.012 55.5464 402.81V8.22804C55.5656 6.03917 56.4485 3.94647 58.0032 2.40547C59.5578 0.864471 61.6582 -8.39172e-05 63.8471 6.10931e-09H344.531C346.732 6.10934e-09 348.844 0.874538 350.4 2.43123C351.957 3.98791 352.832 6.09923 352.832 8.30072V402.81C352.832 405.012 351.957 407.123 350.4 408.68C348.844 410.237 346.732 411.111 344.531 411.111ZM63.8471 0.290745C61.7432 0.294587 59.7265 1.13207 58.2388 2.61977C56.7511 4.10747 55.9137 6.12412 55.9098 8.22804V402.81C55.9137 404.914 56.7511 406.931 58.2388 408.419C59.7265 409.906 61.7432 410.744 63.8471 410.748H344.531C346.635 410.744 348.651 409.906 350.139 408.419C351.627 406.931 352.464 404.914 352.468 402.81V8.22804C352.464 6.12412 351.627 4.10747 350.139 2.61977C348.651 1.13207 346.635 0.294587 344.531 0.290745H63.8471Z" fill="#EBEBEB"/>
<path d="M658.984 411.111H378.272C376.071 411.107 373.962 410.232 372.406 408.676C370.851 407.12 369.975 405.011 369.971 402.81V8.22804C369.994 6.04036 370.878 3.94986 372.432 2.40967C373.986 0.869481 376.084 0.00370449 378.272 0H658.984C661.168 0.00756586 663.261 0.8755 664.81 2.41568C666.358 3.95586 667.237 6.0442 667.256 8.22804V402.81C667.256 405.007 666.386 407.114 664.835 408.67C663.285 410.226 661.181 411.103 658.984 411.111ZM378.272 0.290745C376.168 0.294587 374.151 1.13207 372.663 2.61977C371.176 4.10747 370.338 6.12412 370.334 8.22804V402.81C370.338 404.914 371.176 406.931 372.663 408.419C374.151 409.906 376.168 410.744 378.272 410.748H658.984C661.088 410.744 663.105 409.906 664.593 408.419C666.08 406.931 666.918 404.914 666.922 402.81V8.22804C666.918 6.12412 666.08 4.10747 664.593 2.61977C663.105 1.13207 661.088 0.294587 658.984 0.290745H378.272Z" fill="#EBEBEB"/>
<path d="M726.859 475.947H0V476.31H726.859V475.947Z" fill="#EBEBEB"/>
<path d="M256.712 192.817H289.406L263.093 43.5786H230.399L256.712 192.817Z" fill="#FAFAFA"/>
<path d="M237.683 192.817H246.492L220.18 43.5786H211.371L237.683 192.817Z" fill="#FAFAFA"/>
<path d="M142.014 195.405H151.07L124.031 42.0378H114.975L142.014 195.405Z" fill="#FAFAFA"/>
<path d="M160.069 195.405H177.135L150.096 42.0378H133.015L160.069 195.405Z" fill="#FAFAFA"/>
<path d="M205.788 41.2673H312.622V195.361H205.788V41.2673ZM304.176 49.7134H214.234V186.973H304.176V49.7134Z" fill="#E6E6E6"/>
<path d="M94.7241 37.0371H316.91V199.65H94.7241V37.0371ZM308.421 45.4977H103.214V191.189H308.406L308.421 45.4977Z" fill="#F5F5F5"/>
<path d="M599.657 105.763V45.1289L520.88 45.1289V105.763H599.657Z" fill="#F5F5F5"/>
<path d="M593.595 101.097V49.7808L526.927 49.7808V101.097H593.595Z" fill="#EBEBEB"/>
<path d="M589.423 97.8842V52.9934L531.099 52.9934V97.8842H589.423Z" fill="#FAFAFA"/>
<path d="M570.859 82.5765C577.53 82.5765 582.939 77.168 582.939 70.4962C582.939 63.8243 577.53 58.4158 570.859 58.4158C564.187 58.4158 558.778 63.8243 558.778 70.4962C558.778 77.168 564.187 82.5765 570.859 82.5765Z" fill="#F0F0F0"/>
<path d="M552.804 90.0487C559.475 90.0487 564.884 84.6401 564.884 77.9683C564.884 71.2965 559.475 65.8879 552.804 65.8879C546.132 65.8879 540.723 71.2965 540.723 77.9683C540.723 84.6401 546.132 90.0487 552.804 90.0487Z" fill="#F5F5F5"/>
<path d="M644.446 64.2888H608.365V111.157H644.446V64.2888Z" fill="#E0E0E0"/>
<path d="M641.654 67.894H611.126V107.551H641.654V67.894Z" fill="#F0F0F0"/>
<path d="M636.247 74.9155H616.534V100.53H636.247V74.9155Z" fill="#FAFAFA"/>
<path d="M356.422 536C512.09 536 638.283 528.632 638.283 519.544C638.283 510.456 512.09 503.088 356.422 503.088C200.755 503.088 74.561 510.456 74.561 519.544C74.561 528.632 200.755 536 356.422 536Z" fill="#F1F5FE"/>
<path d="M578.74 518.613H352.294L349.503 510.981H578.74V518.613Z" fill="#263238"/>
<path opacity="0.2" d="M578.74 518.613H352.294L349.503 510.981H578.74V518.613Z" fill="white"/>
<path d="M626.072 518.613H578.739V510.981H628.849L626.072 518.613Z" fill="#263238"/>
<path d="M641.947 407.84H598.103V511.606H641.947V407.84Z" fill="#407BFF"/>
<path opacity="0.5" d="M641.947 407.84H598.103V511.606H641.947V407.84Z" fill="white"/>
<path d="M601.069 407.84H338.891V511.606H601.069V407.84Z" fill="#407BFF"/>
<path opacity="0.7" d="M601.069 407.84H338.891V511.606H601.069V407.84Z" fill="white"/>
<path opacity="0.8" d="M421.578 416.214L421.258 418.539C421.084 419.746 419.485 420.662 417.566 420.662H395.556C393.638 420.662 392.038 419.746 391.879 418.539L391.544 416.214H348.325V443.572H464.782V416.214H421.578Z" fill="white"/>
<path opacity="0.8" d="M421.578 446.553L421.258 448.893C421.084 450.085 419.485 451.015 417.566 451.015H395.556C393.638 451.015 392.038 450.085 391.879 448.893L391.544 446.553H348.325V473.912H464.782V446.553H421.578Z" fill="white"/>
<path opacity="0.8" d="M421.578 476.906L421.258 479.232C421.084 480.439 419.485 481.369 417.566 481.369H395.556C393.638 481.369 392.038 480.439 391.879 479.232L391.544 476.906H348.325V504.265H464.782V476.906H421.578Z" fill="white"/>
<path opacity="0.8" d="M546.743 416.214L546.423 418.539C546.249 419.746 544.65 420.662 542.731 420.662H520.751C518.832 420.662 517.233 419.746 517.073 418.539L516.738 416.214H473.519V443.572H589.977V416.214H546.743Z" fill="white"/>
<path opacity="0.8" d="M546.743 446.553L546.423 448.893C546.249 450.085 544.65 451.015 542.731 451.015H520.751C518.832 451.015 517.233 450.085 517.073 448.893L516.738 446.553H473.519V473.912H589.977V446.553H546.743Z" fill="white"/>
<path opacity="0.8" d="M546.743 476.906L546.423 479.232C546.249 480.439 544.65 481.369 542.731 481.369H520.751C518.832 481.369 517.233 480.439 517.073 479.232L516.738 476.906H473.519V504.265H589.977V476.906H546.743Z" fill="white"/>
<path d="M617.35 392.78H396.385C394.945 392.802 393.516 392.519 392.193 391.948C390.871 391.377 389.685 390.532 388.713 389.468C387.741 388.404 387.007 387.147 386.558 385.778C386.108 384.409 385.955 382.961 386.107 381.528L399.918 223.873C400.227 220.822 401.643 217.991 403.899 215.915C406.154 213.839 409.093 212.662 412.158 212.606H633.123C634.565 212.583 635.995 212.867 637.319 213.439C638.642 214.011 639.83 214.858 640.801 215.923C641.773 216.988 642.507 218.248 642.956 219.618C643.404 220.989 643.556 222.439 643.401 223.873L629.605 381.543C629.289 384.59 627.868 387.416 625.61 389.487C623.352 391.557 620.413 392.729 617.35 392.78Z" fill="#263238"/>
<path opacity="0.4" d="M617.35 392.78H396.385C394.945 392.802 393.516 392.519 392.193 391.948C390.871 391.377 389.685 390.532 388.713 389.468C387.741 388.404 387.007 387.147 386.558 385.778C386.108 384.409 385.955 382.961 386.107 381.528L399.918 223.873C400.227 220.822 401.643 217.991 403.899 215.915C406.154 213.839 409.093 212.662 412.158 212.606H633.123C634.565 212.583 635.995 212.867 637.319 213.439C638.642 214.011 639.83 214.858 640.801 215.923C641.773 216.988 642.507 218.248 642.956 219.618C643.404 220.989 643.556 222.439 643.401 223.873L629.605 381.543C629.289 384.59 627.868 387.416 625.61 389.487C623.352 391.557 620.413 392.729 617.35 392.78Z" fill="white"/>
<path d="M613.338 392.78H392.373C390.933 392.802 389.504 392.519 388.181 391.948C386.859 391.377 385.672 390.532 384.701 389.468C383.729 388.404 382.995 387.147 382.545 385.778C382.096 384.409 381.943 382.961 382.095 381.528L395.906 223.873C396.214 220.822 397.631 217.991 399.886 215.915C402.142 213.839 405.081 212.662 408.146 212.606H629.111C630.553 212.583 631.983 212.867 633.307 213.439C634.63 214.011 635.817 214.858 636.789 215.923C637.761 216.988 638.495 218.248 638.943 219.618C639.392 220.989 639.543 222.439 639.389 223.873L625.593 381.543C625.277 384.59 623.856 387.416 621.598 389.487C619.34 391.557 616.401 392.729 613.338 392.78Z" fill="#263238"/>
<path opacity="0.7" d="M613.338 392.78H392.373C390.933 392.802 389.504 392.519 388.181 391.948C386.859 391.377 385.672 390.532 384.701 389.468C383.729 388.404 382.995 387.147 382.545 385.778C382.096 384.409 381.943 382.961 382.095 381.528L395.906 223.873C396.214 220.822 397.631 217.991 399.886 215.915C402.142 213.839 405.081 212.662 408.146 212.606H629.111C630.553 212.583 631.983 212.867 633.307 213.439C634.63 214.011 635.817 214.858 636.789 215.923C637.761 216.988 638.495 218.248 638.943 219.618C639.392 220.989 639.543 222.439 639.389 223.873L625.593 381.543C625.277 384.59 623.856 387.416 621.598 389.487C619.34 391.557 616.401 392.729 613.338 392.78Z" fill="white"/>
<path d="M616.681 381.514H391.021L404.802 223.858H630.463L616.681 381.514Z" fill="#407BFF"/>
<path opacity="0.5" d="M616.681 381.514H391.021L404.802 223.858H630.463L616.681 381.514Z" fill="white"/>
<path d="M368.183 389.771H629.852V392.606C629.852 396.65 628.245 400.529 625.385 403.389C622.526 406.248 618.647 407.855 614.602 407.855H383.432C379.388 407.855 375.509 406.248 372.649 403.389C369.789 400.529 368.183 396.65 368.183 392.606V389.771Z" fill="#263238"/>
<path opacity="0.2" d="M368.183 389.771H629.852V392.606C629.852 396.65 628.245 400.529 625.385 403.389C622.526 406.248 618.647 407.855 614.602 407.855H383.432C379.388 407.855 375.509 406.248 372.649 403.389C369.789 400.529 368.183 396.65 368.183 392.606V389.771Z" fill="white"/>
<path d="M349.924 389.771H611.593V392.606C611.593 394.608 611.199 396.591 610.433 398.441C609.666 400.291 608.543 401.972 607.127 403.389C605.711 404.805 604.03 405.928 602.18 406.694C600.329 407.461 598.346 407.855 596.344 407.855H365.188C361.144 407.855 357.265 406.248 354.405 403.389C351.545 400.529 349.939 396.65 349.939 392.606V389.771H349.924Z" fill="#263238"/>
<path opacity="0.5" d="M349.924 389.771H611.593V392.606C611.593 394.608 611.199 396.591 610.433 398.441C609.666 400.291 608.543 401.972 607.127 403.389C605.711 404.805 604.03 405.928 602.18 406.694C600.329 407.461 598.346 407.855 596.344 407.855H365.188C361.144 407.855 357.265 406.248 354.405 403.389C351.545 400.529 349.939 396.65 349.939 392.606V389.771H349.924Z" fill="white"/>
<path opacity="0.3" d="M457.339 389.771C458.262 391.372 459.59 392.701 461.191 393.625C462.791 394.549 464.606 395.035 466.454 395.033H495.136C496.984 395.033 498.798 394.547 500.398 393.623C501.998 392.699 503.327 391.371 504.251 389.771H457.339Z" fill="black"/>
<path d="M604.209 351.799H364.883C363.983 351.815 363.089 351.639 362.262 351.282C361.435 350.926 360.693 350.397 360.087 349.731C359.48 349.065 359.022 348.278 358.744 347.421C358.466 346.565 358.373 345.659 358.472 344.764L372.704 181.715C372.896 179.813 373.779 178.048 375.186 176.753C376.592 175.459 378.425 174.726 380.336 174.693H619.691C620.591 174.675 621.484 174.85 622.311 175.205C623.138 175.56 623.88 176.087 624.487 176.752C625.093 177.416 625.551 178.203 625.83 179.059C626.108 179.915 626.201 180.82 626.102 181.715L611.841 344.705C611.662 346.619 610.786 348.4 609.378 349.708C607.97 351.017 606.13 351.761 604.209 351.799Z" fill="#407BFF"/>
<path opacity="0.8" d="M604.209 351.799H364.883C363.983 351.815 363.089 351.639 362.262 351.282C361.435 350.926 360.693 350.397 360.087 349.731C359.48 349.065 359.022 348.278 358.744 347.421C358.466 346.565 358.373 345.659 358.472 344.764L372.704 181.715C372.896 179.813 373.779 178.048 375.186 176.753C376.592 175.459 378.425 174.726 380.336 174.693H619.691C620.591 174.675 621.484 174.85 622.311 175.205C623.138 175.56 623.88 176.087 624.487 176.752C625.093 177.416 625.551 178.203 625.83 179.059C626.108 179.915 626.201 180.82 626.102 181.715L611.841 344.705C611.662 346.619 610.786 348.4 609.378 349.708C607.97 351.017 606.13 351.761 604.209 351.799Z" fill="white"/>
<path d="M619.691 174.751H380.336C378.425 174.784 376.592 175.517 375.186 176.811C373.779 178.106 372.896 179.871 372.704 181.773L371.977 189.957H625.389L626.102 181.773C626.201 180.878 626.108 179.973 625.83 179.117C625.551 178.261 625.093 177.474 624.487 176.81C623.88 176.145 623.138 175.618 622.311 175.263C621.484 174.908 620.591 174.733 619.691 174.751Z" fill="#407BFF"/>
<path opacity="0.3" d="M619.691 174.751H380.336C378.425 174.784 376.592 175.517 375.186 176.811C373.779 178.106 372.896 179.871 372.704 181.773L371.977 189.957H625.389L626.102 181.773C626.201 180.878 626.108 179.973 625.83 179.117C625.551 178.261 625.093 177.474 624.487 176.81C623.88 176.145 623.138 175.618 622.311 175.263C621.484 174.908 620.591 174.733 619.691 174.751Z" fill="#3362CC"/>
<path d="M387.052 182.354C386.954 183.146 386.574 183.876 385.981 184.41C385.388 184.944 384.623 185.247 383.825 185.262C383.452 185.265 383.083 185.19 382.74 185.043C382.398 184.895 382.09 184.677 381.837 184.403C381.583 184.129 381.39 183.806 381.27 183.453C381.149 183.1 381.103 182.726 381.136 182.354C381.227 181.562 381.604 180.831 382.195 180.296C382.786 179.761 383.551 179.459 384.348 179.447C384.723 179.441 385.094 179.514 385.438 179.661C385.782 179.808 386.091 180.026 386.346 180.3C386.601 180.574 386.796 180.898 386.917 181.252C387.039 181.606 387.085 181.981 387.052 182.354Z" fill="#6695FF"/>
<path d="M397.33 182.354C397.235 183.145 396.858 183.875 396.268 184.409C395.677 184.944 394.913 185.246 394.117 185.262C393.743 185.267 393.372 185.194 393.028 185.047C392.684 184.9 392.374 184.683 392.119 184.409C391.864 184.135 391.67 183.81 391.548 183.456C391.427 183.103 391.381 182.727 391.413 182.354C391.508 181.564 391.885 180.834 392.476 180.299C393.066 179.765 393.83 179.462 394.626 179.447C395.001 179.439 395.373 179.511 395.718 179.657C396.063 179.803 396.374 180.02 396.629 180.295C396.884 180.569 397.079 180.895 397.2 181.25C397.32 181.605 397.365 181.981 397.33 182.354Z" fill="#6695FF"/>
<path d="M407.622 182.354C407.524 183.146 407.144 183.876 406.551 184.41C405.959 184.944 405.193 185.247 404.395 185.262C404.022 185.265 403.653 185.19 403.31 185.043C402.968 184.895 402.66 184.677 402.407 184.403C402.154 184.129 401.96 183.806 401.84 183.453C401.719 183.1 401.673 182.726 401.706 182.354C401.794 181.561 402.17 180.828 402.762 180.292C403.353 179.757 404.12 179.456 404.918 179.447C405.293 179.441 405.664 179.514 406.008 179.661C406.352 179.808 406.662 180.026 406.916 180.3C407.171 180.574 407.366 180.898 407.487 181.252C407.609 181.606 407.655 181.981 407.622 182.354Z" fill="#6695FF"/>
<path d="M465.597 304.67H516.68C518.308 304.67 518.526 302.14 516.898 302.14H465.815C464.186 302.14 463.968 304.67 465.597 304.67Z" fill="#263238"/>
<path d="M464.681 315.122H508.292C509.921 315.122 510.153 312.593 508.51 312.593H464.899C463.256 312.593 463.038 315.122 464.666 315.122H464.681Z" fill="#263238"/>
<path d="M463.736 325.633H512.683C514.311 325.633 514.529 323.103 512.901 323.103H463.998C462.355 323.103 462.137 325.633 463.765 325.633H463.736Z" fill="#263238"/>
<path d="M462.849 336.027H508.583C510.211 336.027 510.444 333.483 508.801 333.483H463.082C461.439 333.483 461.221 336.027 462.849 336.027Z" fill="#263238"/>
<path d="M393.304 304.67H443.602C445.23 304.67 445.463 302.14 443.82 302.14H393.536C391.893 302.14 391.675 304.67 393.304 304.67Z" fill="#263238"/>
<path d="M392.388 315.122H442.686C444.329 315.122 444.547 312.593 442.919 312.593H392.62C390.977 312.593 390.759 315.122 392.388 315.122Z" fill="#263238"/>
<path d="M391.486 325.633H448.181C449.809 325.633 450.027 323.103 448.399 323.103H391.704C390.076 323.103 389.843 325.633 391.486 325.633Z" fill="#263238"/>
<path d="M390.57 336.027H436.653C438.296 336.027 438.514 333.483 436.886 333.483H390.788C389.16 333.483 388.928 336.027 390.57 336.027Z" fill="#263238"/>
<path d="M395.135 283.766H445.434C447.062 283.766 447.294 281.236 445.652 281.236H395.411C393.783 281.236 393.565 283.766 395.193 283.766H395.135Z" fill="#263238"/>
<path d="M394.219 294.218H448.792C450.42 294.218 450.652 291.688 449.024 291.688H394.452C392.809 291.688 392.591 294.218 394.219 294.218Z" fill="#263238"/>
<path d="M532.25 304.67H584.394C586.037 304.67 586.255 302.14 584.627 302.14H532.482C530.84 302.14 530.621 304.67 532.25 304.67Z" fill="#263238"/>
<path d="M531.334 315.122H578.144C579.772 315.122 579.99 312.593 578.362 312.593H531.566C529.924 312.593 529.706 315.122 531.334 315.122Z" fill="#263238"/>
<path d="M530.433 325.633H580.426C582.069 325.633 582.287 323.103 580.658 323.103H530.607C528.979 323.103 528.746 325.633 530.389 325.633H530.433Z" fill="#263238"/>
<path d="M529.516 336.027H577.373C579.016 336.027 579.234 333.483 577.605 333.483H529.734C528.106 333.483 527.874 336.027 529.516 336.027Z" fill="#263238"/>
<path d="M400.194 225.995H456.889C459.069 225.995 459.36 222.608 457.18 222.608H400.485C398.319 222.608 398.013 225.995 400.194 225.995Z" fill="#263238"/>
<path d="M456.214 206H540.347C543.583 206 544.014 203 540.778 203H456.646C453.432 203 452.979 206 456.214 206Z" fill="#263238"/>
<path d="M399.278 236.447H450.653C452.833 236.447 453.138 233.06 450.958 233.06H399.569C397.403 233.06 397.098 236.447 399.278 236.447Z" fill="#263238"/>
<path d="M398.319 246.899H450.798C452.978 246.899 453.269 243.512 451.088 243.512H398.653C396.487 243.512 396.182 246.899 398.362 246.899H398.319Z" fill="#263238"/>
<path d="M397.446 257.308H441.334C443.515 257.308 443.805 253.921 441.625 253.921H397.752C395.571 253.921 395.266 257.308 397.446 257.308Z" fill="#263238"/>
<g opacity="0.2">
<path opacity="0.2" d="M400.194 225.995H456.889C459.069 225.995 459.36 222.608 457.18 222.608H400.485C398.319 222.608 398.013 225.995 400.194 225.995Z" fill="white"/>
<path opacity="0.2" d="M399.278 236.447H450.652C452.833 236.447 453.138 233.06 450.957 233.06H399.568C397.402 233.06 397.097 236.447 399.278 236.447Z" fill="white"/>
<path opacity="0.2" d="M398.319 246.899H450.798C452.978 246.899 453.269 243.512 451.088 243.512H398.653C396.487 243.512 396.182 246.899 398.362 246.899H398.319Z" fill="white"/>
<path opacity="0.2" d="M397.446 257.308H441.334C443.514 257.308 443.805 253.921 441.625 253.921H397.751C395.571 253.921 395.266 257.308 397.446 257.308Z" fill="white"/>
</g>
<g opacity="0.2">
<path opacity="0.2" d="M465.597 304.67H516.68C518.309 304.67 518.527 302.141 516.898 302.141H465.815C464.187 302.141 463.969 304.67 465.597 304.67Z" fill="white"/>
</g>
<g opacity="0.2">
<path opacity="0.2" d="M464.681 315.122H508.292C509.921 315.122 510.153 312.593 508.51 312.593H464.899C463.256 312.593 463.038 315.122 464.666 315.122H464.681Z" fill="white"/>
</g>
<g opacity="0.2">
<path opacity="0.2" d="M463.736 325.632H512.683C514.311 325.632 514.529 323.103 512.901 323.103H463.998C462.355 323.103 462.137 325.632 463.765 325.632H463.736Z" fill="white"/>
</g>
<g opacity="0.2">
<path opacity="0.2" d="M462.849 336.027H508.583C510.211 336.027 510.444 333.483 508.801 333.483H463.082C461.439 333.483 461.221 336.027 462.849 336.027Z" fill="white"/>
</g>
<g opacity="0.2">
<path opacity="0.2" d="M393.304 304.67H443.602C445.23 304.67 445.463 302.14 443.82 302.14H393.536C391.893 302.14 391.675 304.67 393.304 304.67Z" fill="white"/>
</g>
<g opacity="0.2">
<path opacity="0.2" d="M392.387 315.122H442.686C444.329 315.122 444.547 312.593 442.919 312.593H392.62C390.977 312.593 390.759 315.122 392.387 315.122Z" fill="white"/>
</g>
<g opacity="0.2">
<path opacity="0.2" d="M391.486 325.632H448.181C449.809 325.632 450.027 323.103 448.399 323.103H391.704C390.076 323.103 389.843 325.632 391.486 325.632Z" fill="white"/>
</g>
<g opacity="0.2">
<path opacity="0.2" d="M390.57 336.027H436.653C438.296 336.027 438.514 333.483 436.886 333.483H390.788C389.16 333.483 388.928 336.027 390.57 336.027Z" fill="white"/>
</g>
<g opacity="0.2">
<path opacity="0.2" d="M395.135 283.766H445.434C447.062 283.766 447.294 281.236 445.652 281.236H395.411C393.783 281.236 393.565 283.766 395.193 283.766H395.135Z" fill="white"/>
</g>
<g opacity="0.2">
<path opacity="0.2" d="M394.219 294.218H448.792C450.42 294.218 450.652 291.688 449.024 291.688H394.452C392.809 291.688 392.591 294.218 394.219 294.218Z" fill="white"/>
</g>
<g opacity="0.2">
<path opacity="0.2" d="M532.25 304.67H584.394C586.037 304.67 586.255 302.14 584.627 302.14H532.482C530.84 302.14 530.621 304.67 532.25 304.67Z" fill="white"/>
</g>
<g opacity="0.2">
<path opacity="0.2" d="M531.334 315.122H578.144C579.772 315.122 579.99 312.593 578.362 312.593H531.566C529.924 312.593 529.706 315.122 531.334 315.122Z" fill="white"/>
</g>
<g opacity="0.2">
<path opacity="0.2" d="M530.433 325.632H580.426C582.069 325.632 582.287 323.103 580.658 323.103H530.607C528.979 323.103 528.746 325.632 530.389 325.632H530.433Z" fill="white"/>
</g>
<g opacity="0.2">
<path opacity="0.2" d="M529.517 336.027H577.373C579.016 336.027 579.234 333.483 577.606 333.483H529.735C528.107 333.483 527.874 336.027 529.517 336.027Z" fill="white"/>
</g>
<path opacity="0.5" d="M465.495 292.953H585.427L591.823 219.788H471.906L465.495 292.953Z" fill="white"/>
<path d="M506.853 243.512L472.138 292.953H532.918L506.853 243.512Z" fill="#407BFF"/>
<path opacity="0.2" d="M506.853 243.512L472.138 292.953H532.918L506.853 243.512Z" fill="white"/>
<path d="M548.328 231.315L505.051 292.953H580.819L548.328 231.315Z" fill="#407BFF"/>
<path opacity="0.6" d="M548.328 231.315L505.051 292.953H580.819L548.328 231.315Z" fill="white"/>
<path d="M533.645 234.746C533.446 236.747 532.518 238.605 531.039 239.966C529.559 241.328 527.631 242.098 525.621 242.131C524.676 242.147 523.738 241.962 522.87 241.587C522.002 241.212 521.224 240.657 520.587 239.959C519.951 239.26 519.47 238.434 519.177 237.535C518.885 236.636 518.787 235.686 518.89 234.746C519.096 232.749 520.026 230.897 521.504 229.539C522.983 228.181 524.907 227.411 526.914 227.376C527.859 227.358 528.796 227.541 529.664 227.914C530.532 228.287 531.31 228.841 531.947 229.538C532.584 230.236 533.065 231.061 533.358 231.959C533.651 232.857 533.749 233.807 533.645 234.746Z" fill="#407BFF"/>
<path opacity="0.2" d="M533.645 234.746C533.446 236.747 532.518 238.605 531.039 239.966C529.559 241.328 527.631 242.098 525.621 242.131C524.676 242.147 523.738 241.962 522.87 241.587C522.002 241.212 521.224 240.657 520.587 239.959C519.951 239.26 519.47 238.434 519.177 237.535C518.885 236.636 518.787 235.686 518.89 234.746C519.096 232.749 520.026 230.897 521.504 229.539C522.983 228.181 524.907 227.411 526.914 227.376C527.859 227.358 528.796 227.541 529.664 227.914C530.532 228.287 531.31 228.841 531.947 229.538C532.584 230.236 533.065 231.061 533.358 231.959C533.651 232.857 533.749 233.807 533.645 234.746Z" fill="white"/>
<path d="M532.584 367.427H433.731C432.803 367.444 431.882 367.262 431.03 366.893C430.178 366.524 429.415 365.976 428.792 365.288C428.17 364.599 427.702 363.785 427.42 362.9C427.139 362.015 427.05 361.08 427.16 360.158L427.858 352.09C428.044 350.128 428.945 348.302 430.39 346.962C431.835 345.621 433.723 344.859 435.694 344.822H534.547C535.475 344.805 536.396 344.987 537.248 345.356C538.1 345.725 538.863 346.272 539.486 346.961C540.108 347.65 540.576 348.464 540.858 349.349C541.139 350.233 541.228 351.168 541.117 352.09L540.405 360.158C540.22 362.118 539.321 363.942 537.879 365.282C536.437 366.622 534.552 367.386 532.584 367.427Z" fill="#407BFF"/>
<path d="M120.499 401.764H175.405L164.037 324.368C161.174 304.83 143.918 289.29 125.194 289.29H110.962C92.2238 289.29 78.806 304.873 80.7394 324.411L85.1006 368.023L120.499 401.764Z" fill="#407BFF"/>
<path opacity="0.1" d="M120.499 401.764H175.405L164.037 324.368C161.174 304.83 143.918 289.29 125.194 289.29H110.962C92.2238 289.29 78.806 304.873 80.7394 324.411L85.1006 368.023L120.499 401.764Z" fill="white"/>
<path d="M191.585 401.764H104.566L96.9191 324.368C95.0002 304.83 108.403 289.29 127.156 289.29H141.374C160.127 289.29 177.368 304.873 180.232 324.411L191.585 401.764Z" fill="#407BFF"/>
<path opacity="0.3" d="M191.585 401.764H104.566L96.9191 324.368C95.0002 304.83 108.403 289.29 127.156 289.29H141.374C160.127 289.29 177.368 304.873 180.232 324.411L191.585 401.764Z" fill="white"/>
<path d="M177.891 428.352C197.4 428.221 216.938 419.63 229.367 404.41C239.561 392.148 245.21 376.743 245.358 360.798C245.358 354.62 239.892 348.703 233.554 348.994H196.906C193.793 349.05 190.823 350.311 188.621 352.513C186.419 354.715 185.158 357.685 185.102 360.798C185.102 362.121 185.102 363.444 184.956 364.781C184.956 365.523 184.433 368.415 184.695 367.136C184.225 369.77 183.593 372.372 182.805 374.928C182.499 375.858 182.151 376.789 181.802 377.705C182.005 377.123 181.031 379.391 180.74 379.973C179.523 382.329 178.159 384.606 176.655 386.79C176.655 386.892 176.437 387.11 176.292 387.328C176.147 387.546 175.783 387.983 175.667 388.113C174.867 389.058 174.053 389.989 173.196 390.89C172.338 391.791 171.233 392.882 170.201 393.797L168.747 395.019L167.57 395.949C166.916 396.4 165.767 397.199 165.52 397.403C164.473 398.086 163.412 398.74 162.322 399.351C161.232 399.961 160.447 400.339 159.502 400.804C157.554 399.787 155.591 398.842 153.687 397.65C152.626 396.981 151.637 396.196 150.605 395.527C152.8 396.981 149.965 394.989 149.355 394.452C147.277 392.606 145.334 390.614 143.54 388.491L143.06 387.881C143.351 388.23 142.173 386.689 141.999 386.427C141.199 385.279 140.443 384.087 139.746 382.865C139.048 381.644 138.292 380.409 137.754 379.144C137.478 378.577 137.231 377.995 136.969 377.429C138.19 379.973 136.969 377.167 136.736 376.745C135.757 374.041 134.984 371.266 134.425 368.445C134.309 367.805 134.236 367.151 134.091 366.526C134.701 369.331 134.091 366.308 134.091 365.77C133.945 364.127 133.887 362.47 133.873 360.813C133.873 354.634 128.479 348.718 122.068 349.008H85.333C82.2175 349.057 79.2433 350.316 77.0401 352.52C74.8368 354.723 73.5775 357.697 73.5288 360.813C73.6684 374.733 78.0423 388.281 86.0689 399.655C94.0956 411.028 105.395 419.689 118.463 424.485C125.97 427.268 133.937 428.6 141.941 428.41L177.891 428.352Z" fill="#4F7BDC"/>
<path opacity="0.3" d="M177.891 428.352C197.4 428.221 216.938 419.63 229.367 404.41C239.561 392.148 245.21 376.743 245.358 360.798C245.358 354.62 239.892 348.703 233.554 348.994H196.906C193.793 349.05 190.823 350.311 188.621 352.513C186.419 354.715 185.158 357.685 185.102 360.798C185.102 362.121 185.102 363.444 184.956 364.781C184.956 365.523 184.433 368.415 184.695 367.136C184.225 369.77 183.593 372.372 182.805 374.928C182.499 375.858 182.151 376.789 181.802 377.705C182.005 377.123 181.031 379.391 180.74 379.973C179.523 382.329 178.159 384.606 176.655 386.79C176.655 386.892 176.437 387.11 176.292 387.328C176.147 387.546 175.783 387.983 175.667 388.113C174.867 389.058 174.053 389.989 173.196 390.89C172.338 391.791 171.233 392.882 170.201 393.797L168.747 395.019L167.57 395.949C166.916 396.4 165.767 397.199 165.52 397.403C164.473 398.086 163.412 398.74 162.322 399.351C161.232 399.961 160.447 400.339 159.502 400.804C157.554 399.787 155.591 398.842 153.687 397.65C152.626 396.981 151.637 396.196 150.605 395.527C152.8 396.981 149.965 394.989 149.355 394.452C147.277 392.606 145.334 390.614 143.54 388.491L143.06 387.881C143.351 388.23 142.173 386.689 141.999 386.427C141.199 385.279 140.443 384.087 139.746 382.865C139.048 381.644 138.292 380.409 137.754 379.144C137.478 378.577 137.231 377.995 136.969 377.429C138.19 379.973 136.969 377.167 136.736 376.745C135.757 374.041 134.984 371.266 134.425 368.445C134.309 367.805 134.236 367.151 134.091 366.526C134.701 369.331 134.091 366.308 134.091 365.77C133.945 364.127 133.887 362.47 133.873 360.813C133.873 354.634 128.479 348.718 122.068 349.008H85.333C82.2175 349.057 79.2433 350.316 77.0401 352.52C74.8368 354.723 73.5775 357.697 73.5288 360.813C73.6684 374.733 78.0423 388.281 86.0689 399.655C94.0956 411.028 105.395 419.689 118.463 424.485C125.97 427.268 133.937 428.6 141.941 428.41L177.891 428.352Z" fill="white"/>
<path d="M221.808 360.769C221.808 362.092 221.808 363.415 221.677 364.752C221.677 365.581 221.023 369.113 221.532 366.482C221.041 369.329 220.366 372.14 219.511 374.899C219.119 376.106 218.683 377.283 218.218 378.461C219.162 376.048 217.81 379.246 217.462 379.915C216.245 382.274 214.876 384.552 213.362 386.732C213.159 387.038 211.996 388.666 212.911 387.43C213.827 386.195 212.621 387.765 212.388 388.055C211.574 389 210.76 389.931 209.902 390.832C209.045 391.733 207.94 392.824 206.908 393.739L205.454 394.961C205.207 395.179 203.128 396.763 204.465 395.789C205.556 394.99 202.619 397.039 202.227 397.243C201.18 397.926 200.119 398.58 199.028 399.191C197.938 399.801 196.804 400.354 195.685 400.906C195.351 401.081 193.49 401.895 194.929 401.27C196.368 400.645 194.013 401.619 193.708 401.72C191.307 402.595 188.85 403.304 186.352 403.843C185.553 404.003 181.991 404.541 184.695 404.221C183.067 404.424 181.424 404.555 179.767 404.613C177.118 404.688 174.467 404.596 171.829 404.337C171.204 404.337 169.649 403.857 172.047 404.337C171.422 404.206 170.768 404.119 170.143 404.003C168.689 403.726 167.323 403.392 165.927 403C164.532 402.607 163.485 402.273 162.293 401.851C161.697 401.648 161.116 401.386 160.505 401.197C158.877 400.688 162.206 402.098 160.723 401.27C158.383 399.99 155.969 398.915 153.716 397.475C152.655 396.807 151.666 396.022 150.634 395.353C152.829 396.807 149.995 394.815 149.384 394.277C147.306 392.432 145.363 390.44 143.569 388.317L142.392 386.863C144.165 389.073 142.261 386.587 142.028 386.253C141.229 385.104 140.473 383.912 139.775 382.691C139.077 381.47 138.321 380.234 137.783 378.97C137.507 378.403 137.26 377.821 136.998 377.254C138.219 379.798 136.998 376.993 136.766 376.571C135.786 373.867 135.013 371.092 134.454 368.27C134.338 367.631 134.265 366.976 134.12 366.351C134.731 369.157 134.12 366.133 134.12 365.595C133.975 363.953 133.916 362.295 133.902 360.638C133.902 354.46 128.509 348.543 122.098 348.834C118.984 348.883 116.011 350.143 113.81 352.346C111.609 354.55 110.353 357.524 110.308 360.638C110.404 374.582 114.751 388.166 122.77 399.574C130.788 410.982 142.097 419.673 155.184 424.486C180.842 434.08 212.01 425.692 229.324 404.482C239.518 392.221 245.166 376.816 245.315 360.871C245.315 354.693 239.849 348.776 233.511 349.067C230.397 349.123 227.427 350.384 225.226 352.586C223.024 354.788 221.762 357.758 221.706 360.871L221.808 360.769Z" fill="#4F7BDC"/>
<g opacity="0.6">
<path opacity="0.4" d="M221.808 360.769C221.808 362.092 221.808 363.415 221.677 364.752C221.677 365.581 221.023 369.113 221.532 366.482C221.041 369.329 220.366 372.14 219.511 374.899C219.119 376.106 218.683 377.283 218.218 378.461C219.162 376.048 217.81 379.246 217.462 379.915C216.245 382.274 214.876 384.552 213.362 386.732C213.159 387.038 211.996 388.666 212.911 387.43C213.827 386.195 212.621 387.765 212.388 388.055C211.574 389 210.76 389.931 209.902 390.832C209.045 391.733 207.94 392.824 206.908 393.739L205.454 394.961C205.207 395.179 203.128 396.763 204.465 395.789C205.556 394.99 202.619 397.039 202.227 397.243C201.18 397.926 200.119 398.58 199.028 399.191C197.938 399.801 196.804 400.354 195.685 400.906C195.351 401.081 193.49 401.895 194.929 401.27C196.368 400.645 194.013 401.619 193.708 401.72C191.307 402.595 188.85 403.304 186.352 403.843C185.553 404.003 181.991 404.541 184.695 404.221C183.067 404.424 181.424 404.555 179.767 404.613C177.118 404.688 174.467 404.596 171.829 404.337C171.204 404.337 169.649 403.857 172.047 404.337C171.422 404.206 170.768 404.119 170.143 404.003C168.689 403.726 167.323 403.392 165.927 403C164.532 402.607 163.485 402.273 162.293 401.851C161.697 401.648 161.116 401.386 160.505 401.197C158.877 400.688 162.206 402.098 160.723 401.27C158.383 399.99 155.969 398.915 153.716 397.475C152.655 396.807 151.666 396.022 150.634 395.353C152.829 396.807 149.995 394.815 149.384 394.277C147.306 392.432 145.363 390.44 143.569 388.317L142.392 386.863C144.165 389.073 142.261 386.587 142.028 386.253C141.229 385.104 140.473 383.912 139.775 382.691C139.077 381.47 138.321 380.234 137.783 378.97C137.507 378.403 137.26 377.821 136.998 377.254C138.219 379.798 136.998 376.993 136.766 376.571C135.786 373.867 135.013 371.092 134.454 368.27C134.338 367.631 134.265 366.976 134.12 366.351C134.731 369.157 134.12 366.133 134.12 365.595C133.975 363.953 133.916 362.295 133.902 360.638C133.902 354.46 128.509 348.543 122.098 348.834C118.984 348.883 116.011 350.143 113.81 352.346C111.609 354.55 110.353 357.524 110.308 360.638C110.404 374.582 114.751 388.166 122.77 399.574C130.788 410.982 142.097 419.673 155.184 424.486C180.842 434.08 212.01 425.692 229.324 404.482C239.518 392.221 245.166 376.816 245.315 360.871C245.315 354.693 239.849 348.776 233.511 349.067C230.397 349.123 227.427 350.384 225.226 352.586C223.024 354.788 221.762 357.758 221.706 360.871L221.808 360.769Z" fill="white"/>
</g>
<path d="M162.976 502.506L161.624 501.707V428.352C161.62 427.51 161.283 426.704 160.687 426.11C160.09 425.516 159.282 425.183 158.441 425.183H149.486C148.645 425.183 147.839 425.517 147.245 426.111C146.65 426.706 146.317 427.512 146.317 428.352V501.707L144.95 502.506C136.174 507.593 126.208 510.266 116.065 510.255C113.978 510.255 111.976 511.083 110.498 512.557C109.021 514.032 108.189 516.032 108.186 518.119H199.77C199.77 517.085 199.566 516.061 199.17 515.106C198.774 514.151 198.193 513.283 197.461 512.553C196.729 511.822 195.861 511.243 194.905 510.849C193.949 510.455 192.925 510.253 191.891 510.255C181.737 510.271 171.761 507.597 162.976 502.506Z" fill="#407BFF"/>
<path opacity="0.2" d="M161.624 436.202V428.352C161.62 427.51 161.283 426.704 160.686 426.11C160.09 425.516 159.282 425.183 158.44 425.183H149.486C148.645 425.183 147.839 425.517 147.245 426.111C146.65 426.706 146.316 427.512 146.316 428.352V436.202H161.624Z" fill="black"/>
<path d="M170.085 222.419C170.085 222.419 153.033 240.59 163.165 254.299L162.918 249.647C162.918 249.647 164.372 257.991 186.178 259.547C207.983 261.102 202.357 246.928 202.357 246.928C202.357 246.928 203.811 251.086 207.067 251.551C207.067 251.551 202.968 246.987 204.494 238.366C206.021 229.745 212.301 225.283 202.357 218.014C202.357 218.014 203.171 210.164 185.64 212.199C168.108 214.234 170.085 222.419 170.085 222.419Z" fill="#2E353A"/>
<path d="M213.057 269.33C209.96 268.952 207.983 264.533 208.405 261.131C208.826 257.73 211.835 253.863 214.932 254.313C215.248 254.341 215.554 254.434 215.832 254.587C216.11 254.74 216.353 254.948 216.545 255.2C217.447 256.363 217.171 258.268 216.836 260.695C216.836 261.16 216.705 261.655 216.633 262.149C216.56 262.643 216.516 263.152 216.473 263.603C216.211 266.03 215.993 267.964 214.845 268.851C214.597 269.051 214.309 269.197 214.001 269.28C213.693 269.362 213.372 269.38 213.057 269.33ZM214.67 256.407C213.449 256.261 210.905 258.209 210.513 261.393C210.12 264.577 212.097 267.077 213.318 267.208C213.478 267.208 213.507 267.208 213.536 267.208C213.987 266.844 214.19 264.926 214.365 263.385C214.365 262.905 214.467 262.411 214.539 261.931C214.612 261.451 214.67 260.913 214.743 260.477C214.946 258.951 215.223 257.032 214.874 256.581C214.859 256.465 214.83 256.436 214.67 256.407Z" fill="#407BFF"/>
<g opacity="0.5">
<path opacity="0.5" d="M213.057 269.33C209.96 268.952 207.983 264.533 208.405 261.131C208.826 257.73 211.835 253.863 214.932 254.313C215.248 254.341 215.554 254.434 215.832 254.587C216.11 254.74 216.353 254.948 216.545 255.2C217.447 256.363 217.171 258.268 216.836 260.695C216.836 261.16 216.705 261.655 216.633 262.149C216.56 262.643 216.516 263.152 216.473 263.603C216.211 266.03 215.993 267.964 214.845 268.851C214.597 269.051 214.309 269.197 214.001 269.28C213.693 269.362 213.372 269.38 213.057 269.33ZM214.67 256.407C213.449 256.261 210.905 258.209 210.513 261.393C210.12 264.577 212.097 267.077 213.318 267.208C213.478 267.208 213.507 267.208 213.536 267.208C213.987 266.844 214.19 264.926 214.365 263.385C214.365 262.905 214.467 262.411 214.539 261.931C214.612 261.451 214.67 260.913 214.743 260.477C214.946 258.951 215.223 257.032 214.874 256.581C214.859 256.465 214.83 256.436 214.67 256.407Z" fill="black"/>
</g>
<path d="M237.653 290.816C237.653 290.816 198.316 259.241 194.987 270.857C190.553 286.382 235.502 299.626 235.502 299.626C235.502 299.626 239.631 300.338 237.653 290.816Z" fill="#407BFF"/>
<path opacity="0.2" d="M233.278 296.282C237.189 298.463 236.622 293.942 235.023 288.752C232.464 286.775 228.277 283.65 223.553 280.408C224.599 284.609 227.376 293.012 233.278 296.282Z" fill="black"/>
<path opacity="0.2" d="M202.837 271.569L200.555 275.203V282.893C204.535 286.128 208.894 288.867 213.536 291.049C205.425 286.542 203.36 272.47 203.36 272.47L202.837 271.569Z" fill="black"/>
<path d="M155.737 266.917C155.148 266.905 154.563 267.012 154.017 267.233C153.471 267.453 152.975 267.781 152.559 268.199C152.144 268.616 151.817 269.112 151.598 269.659C151.38 270.206 151.274 270.791 151.288 271.38C151.637 283.896 152.408 318.713 150.649 332.363C149.297 342.946 141.04 373.925 141.04 373.925L199.523 347.845C199.523 347.845 198.679 328.395 199.523 321.984C200.293 316.053 205.192 304.844 205.672 298.899C206.064 293.985 203.826 284.216 203.68 279.288C203.68 277.515 203.826 273.808 203.971 271.322C203.991 270.997 203.945 270.672 203.838 270.366C203.73 270.059 203.562 269.777 203.344 269.536C203.126 269.295 202.863 269.1 202.568 268.962C202.274 268.825 201.955 268.747 201.63 268.734L155.737 266.917Z" fill="#407BFF"/>
<path d="M286.469 459.593L290.453 476.776L282.108 478.695L277.107 462.704L286.469 459.593Z" fill="#FFB573"/>
<path d="M293.04 476.717C292.992 476.717 292.944 476.703 292.903 476.678C292.862 476.652 292.829 476.615 292.807 476.572C292.783 476.533 292.77 476.487 292.77 476.441C292.77 476.395 292.783 476.35 292.807 476.31C292.938 476.194 295.831 473.548 297.518 473.621C297.829 473.637 298.123 473.766 298.346 473.984C298.482 474.102 298.578 474.259 298.619 474.434C298.661 474.609 298.647 474.792 298.579 474.958C298.303 475.554 297.125 476.049 295.948 476.325C294.991 476.539 294.019 476.67 293.04 476.717ZM293.694 476.252C295.511 476.063 297.91 475.496 298.215 474.798C298.215 474.711 298.288 474.551 298.055 474.319C297.992 474.247 297.914 474.19 297.826 474.152C297.738 474.114 297.642 474.097 297.547 474.101C297.398 474.072 297.245 474.072 297.096 474.101C295.82 474.59 294.65 475.32 293.651 476.252H293.694Z" fill="#407BFF"/>
<path d="M292.909 476.732C292.871 476.715 292.838 476.689 292.812 476.656C292.787 476.623 292.77 476.584 292.764 476.543C292.549 475.172 292.773 473.767 293.404 472.531C293.545 472.346 293.723 472.192 293.925 472.078C294.127 471.963 294.35 471.889 294.581 471.862C295.206 471.775 295.468 472.051 295.555 472.298C296.006 473.33 294.189 475.903 293.157 476.659H293.069C293.05 476.683 293.025 476.701 292.998 476.714C292.97 476.726 292.94 476.733 292.909 476.732ZM294.523 472.371C294.238 472.427 293.983 472.588 293.811 472.822C293.286 473.806 293.073 474.926 293.2 476.034C294.232 475.06 295.366 473.127 295.148 472.473C295.148 472.473 295.061 472.269 294.654 472.327H294.523V472.371Z" fill="#407BFF"/>
<path d="M291.761 475.598L281.367 477.968C281.178 478.01 281.01 478.115 280.888 478.266C280.767 478.416 280.7 478.603 280.698 478.796V487.679C280.698 488.064 280.851 488.434 281.124 488.706C281.397 488.979 281.766 489.132 282.152 489.132H282.457C286.179 488.216 289.464 487.257 294.087 486.225C299.597 484.975 298.346 485.949 304.83 484.568C308.74 483.739 308.45 479.145 306.749 479.305C298.971 480.061 297.663 477.968 294.131 475.918C293.405 475.531 292.564 475.417 291.761 475.598Z" fill="#263238"/>
<path opacity="0.1" d="M289.333 471.949L286.469 459.593L277.107 462.704L280.902 474.857L289.333 471.949Z" fill="black"/>
<path d="M141.81 388.142C136.65 375.742 140.269 355.695 180.668 348.136C213.827 341.914 235.386 344.386 246.74 347.031C249.772 347.737 252.59 349.163 254.956 351.187C257.321 353.211 259.165 355.774 260.332 358.661C266.03 372.631 275.189 396.181 288.781 465.538L278.518 469.899C278.518 469.899 267.295 436.377 261.335 422.697C255.956 410.37 244.399 390.89 240.808 372.937C240.808 372.937 224.934 378.504 205.672 387.677C181.526 399.118 152.044 412.768 141.81 388.142Z" fill="#263238"/>
<path d="M276.468 467.225L278.968 473.287L290.453 469.013L289.26 462.704L276.468 467.225Z" fill="#263238"/>
<path opacity="0.2" d="M276.468 467.225L278.968 473.287L290.453 469.013L289.26 462.704L276.468 467.225Z" fill="white"/>
<path opacity="0.1" d="M240.488 373.009L240.808 372.893C242.798 381.673 245.768 390.202 249.661 398.319C251.827 388.928 254.415 375.641 252.496 373.067C249.443 368.997 240.488 373.067 240.488 373.067V373.009Z" fill="black"/>
<path d="M212.432 491.08L209.815 508.321H218.087L222.695 491.778L212.432 491.08Z" fill="#FFB573"/>
<path d="M220.224 508.67C220.177 508.664 220.132 508.644 220.096 508.613C220.06 508.582 220.034 508.541 220.02 508.496C220.013 508.448 220.02 508.399 220.041 508.355C220.062 508.311 220.095 508.274 220.136 508.249C220.282 508.161 223.625 506.126 225.268 506.519C225.575 506.589 225.841 506.777 226.01 507.042C226.115 507.188 226.171 507.364 226.171 507.544C226.171 507.724 226.115 507.899 226.01 508.045C225.182 508.683 224.142 508.979 223.102 508.874C222.139 508.887 221.176 508.819 220.224 508.67ZM220.965 508.35C222.782 508.525 225.239 508.438 225.675 507.798C225.675 507.711 225.791 507.565 225.675 507.289C225.628 507.204 225.561 507.132 225.48 507.079C225.399 507.026 225.306 506.993 225.21 506.984C225.065 506.962 224.918 506.962 224.774 506.984C223.428 507.188 222.134 507.652 220.965 508.35Z" fill="#407BFF"/>
<path d="M220.093 508.67C220.057 508.65 220.029 508.62 220.011 508.584C219.993 508.548 219.986 508.507 219.991 508.467C220.052 507.069 220.562 505.729 221.445 504.643C221.798 504.336 222.257 504.18 222.724 504.207C223.364 504.207 223.567 504.571 223.596 504.847C223.829 505.937 221.546 508.118 220.398 508.656C220.382 508.662 220.365 508.666 220.347 508.666C220.33 508.666 220.312 508.662 220.296 508.656L220.093 508.67ZM222.535 504.658C222.241 504.662 221.958 504.771 221.735 504.963C221.037 505.831 220.616 506.89 220.529 508.002C221.721 507.246 223.204 505.545 223.131 504.891C223.131 504.891 223.131 504.672 222.666 504.643L222.535 504.658Z" fill="#407BFF"/>
<path d="M219.191 507.347L208.535 507.638C208.341 507.645 208.154 507.717 208.006 507.844C207.858 507.971 207.758 508.144 207.721 508.336L206.021 517.058C205.956 517.427 206.036 517.807 206.244 518.119C206.453 518.43 206.774 518.649 207.14 518.73C207.241 518.744 207.344 518.744 207.445 518.73C211.283 518.555 214.714 518.25 219.467 518.134C225.108 517.989 223.698 518.701 230.327 518.614C234.324 518.614 234.935 513.991 233.234 513.816C225.457 513.046 224.585 510.734 221.517 508.001C220.846 507.511 220.02 507.279 219.191 507.347Z" fill="#263238"/>
<path opacity="0.1" d="M219.366 503.728L222.695 491.778L212.432 491.08L210.513 503.728H219.366Z" fill="black"/>
<path d="M249.022 378.533C248.165 376.981 246.938 375.664 245.449 374.7C243.96 373.736 242.256 373.155 240.488 373.009C238.192 373.838 223.364 379.202 205.599 387.634C193.562 393.361 180.188 399.627 168.544 401.415L226.126 398.028C220.471 414.455 219.104 440.098 217.403 454.199C215.746 467.879 210.731 497.04 210.731 497.04H221.765C221.765 497.04 253.892 387.517 249.022 378.533Z" fill="#263238"/>
<path opacity="0.4" d="M249.022 378.533C248.165 376.981 246.938 375.664 245.449 374.7C243.96 373.736 242.256 373.155 240.488 373.009C238.192 373.838 223.364 379.202 205.599 387.634C193.562 393.361 180.188 399.627 168.544 401.415L226.126 398.028C220.471 414.455 219.104 440.098 217.403 454.199C215.746 467.879 210.731 497.04 210.731 497.04H221.765C221.765 497.04 253.892 387.517 249.022 378.533Z" fill="black"/>
<path d="M209.829 495.281L208.986 501.838L221.997 501.634L223.364 495.354L209.829 495.281Z" fill="#263238"/>
<path opacity="0.2" d="M209.829 495.281L208.986 501.838L221.997 501.634L223.364 495.354L209.829 495.281Z" fill="white"/>
<path d="M230.574 267.033L228.234 262.6L219.162 254.968C218.711 254.593 218.143 254.388 217.556 254.388C216.969 254.388 216.401 254.593 215.95 254.968L211.371 258.762C211.02 259.05 210.754 259.428 210.603 259.856C210.452 260.284 210.421 260.745 210.513 261.189L211.487 265.987C211.602 266.502 211.878 266.967 212.276 267.314C212.673 267.662 213.171 267.874 213.697 267.92C216.604 268.138 222.041 268.313 223.335 266.714L224.687 270.682L230.574 267.033Z" fill="#FFB573"/>
<path d="M204.378 251.362H210.193C211.076 251.362 211.923 251.713 212.547 252.337C213.171 252.962 213.522 253.808 213.522 254.691V266.321C213.522 267.802 212.934 269.222 211.887 270.268C210.84 271.315 209.42 271.903 207.94 271.903H206.617C205.136 271.903 203.717 271.315 202.67 270.268C201.623 269.222 201.035 267.802 201.035 266.321V254.691C201.035 254.253 201.121 253.819 201.289 253.414C201.458 253.009 201.704 252.642 202.015 252.332C202.326 252.023 202.694 251.778 203.1 251.612C203.505 251.445 203.94 251.36 204.378 251.362Z" fill="#407BFF"/>
<path opacity="0.4" d="M204.378 251.362H210.193C211.076 251.362 211.923 251.713 212.547 252.337C213.171 252.962 213.522 253.808 213.522 254.691V266.321C213.522 267.802 212.934 269.222 211.887 270.268C210.84 271.315 209.42 271.903 207.94 271.903H206.617C205.136 271.903 203.717 271.315 202.67 270.268C201.623 269.222 201.035 267.802 201.035 266.321V254.691C201.035 254.253 201.121 253.819 201.289 253.414C201.458 253.009 201.704 252.642 202.015 252.332C202.326 252.023 202.694 251.778 203.1 251.612C203.505 251.445 203.94 251.36 204.378 251.362Z" fill="black"/>
<path d="M175.798 246.929C176.466 253.136 176.699 264.373 172.076 268.109C176.566 272.275 181.58 275.837 186.991 278.707C194.26 273.691 191.033 268.313 191.033 268.313C185.218 266.685 184.985 261.044 186.512 256.436L175.798 246.929Z" fill="#FFB573"/>
<path opacity="0.1" d="M186.511 256.436L179.243 249.952L177.615 250.752C177.615 250.752 179.461 258.951 185.785 261.669C185.703 259.895 185.949 258.121 186.511 256.436Z" fill="black"/>
<path d="M172.323 232.144C172.628 242.393 172.527 246.681 177.513 252.147C185.014 260.288 197.516 257.686 200.307 247.568C202.793 238.468 201.906 223.262 192.036 218.857C189.865 217.88 187.48 217.474 185.108 217.677C182.736 217.879 180.455 218.684 178.481 220.014C176.507 221.345 174.906 223.157 173.828 225.28C172.75 227.403 172.232 229.765 172.323 232.144Z" fill="#FFB573"/>
<path d="M181.366 213.813C178.953 216.371 181.991 222.87 191.164 224.425C198.069 225.617 204.945 234.921 206.079 226.838C207.155 219.511 190.815 212.083 181.366 213.813Z" fill="#2E353A"/>
<path d="M185.814 217.127C189.695 221.837 185.029 227.71 182.078 230.211C179.127 232.711 174.969 234.572 176.656 239.645C178.342 244.719 177.426 257.177 169.256 253.063C161.086 248.949 164.822 234.586 168.878 228.51C172.934 222.433 181.177 211.531 185.814 217.127Z" fill="#2E353A"/>
<path d="M194.58 237.159C195.257 239.086 196.197 240.911 197.371 242.582C196.938 242.871 196.447 243.062 195.932 243.143C195.418 243.223 194.892 243.19 194.391 243.047L194.58 237.159Z" fill="#ED893E"/>
<path d="M184.055 231.257C183.987 231.244 183.926 231.208 183.881 231.156C183.843 231.119 183.812 231.075 183.791 231.026C183.77 230.978 183.76 230.925 183.76 230.872C183.76 230.819 183.77 230.767 183.791 230.718C183.812 230.669 183.843 230.625 183.881 230.589C184.403 230.034 185.05 229.613 185.768 229.36C186.487 229.107 187.255 229.03 188.009 229.135C188.113 229.159 188.203 229.223 188.26 229.313C188.317 229.402 188.336 229.511 188.315 229.615C188.293 229.718 188.233 229.809 188.146 229.868C188.06 229.928 187.953 229.952 187.849 229.935C187.225 229.862 186.592 229.939 186.003 230.159C185.415 230.379 184.886 230.735 184.462 231.199C184.406 231.246 184.339 231.276 184.267 231.286C184.195 231.296 184.122 231.286 184.055 231.257Z" fill="#2E353A"/>
<path d="M201.689 231.984C201.626 231.959 201.567 231.925 201.514 231.882C201.061 231.447 200.511 231.126 199.91 230.944C199.308 230.762 198.673 230.725 198.054 230.836C198.004 230.851 197.951 230.856 197.898 230.851C197.845 230.845 197.794 230.829 197.748 230.803C197.702 230.777 197.662 230.742 197.629 230.7C197.597 230.659 197.573 230.611 197.56 230.56C197.533 230.455 197.549 230.345 197.604 230.253C197.658 230.16 197.747 230.093 197.851 230.065C198.601 229.919 199.375 229.955 200.109 230.17C200.842 230.385 201.514 230.773 202.067 231.301C202.105 231.338 202.135 231.382 202.156 231.43C202.177 231.479 202.188 231.531 202.188 231.584C202.188 231.637 202.177 231.69 202.156 231.739C202.135 231.787 202.105 231.831 202.067 231.868C202.016 231.928 201.95 231.972 201.875 231.995C201.8 232.019 201.72 232.02 201.645 231.999L201.689 231.984Z" fill="#2E353A"/>
<path d="M188.75 235.604C188.75 236.418 189.143 237.058 189.695 237.13C190.248 237.203 190.698 236.505 190.713 235.677C190.728 234.848 190.321 234.223 189.783 234.136C189.245 234.049 188.78 234.761 188.75 235.604Z" fill="#2E353A"/>
<path d="M198.156 235.909C198.156 236.738 198.548 237.363 199.086 237.45C199.624 237.537 200.089 236.811 200.118 235.997C200.147 235.182 199.726 234.543 199.188 234.543C198.65 234.543 198.185 235.066 198.156 235.909Z" fill="#2E353A"/>
<path d="M198.956 234.47L200.976 233.961C200.976 233.961 199.886 235.502 198.956 234.47Z" fill="#2E353A"/>
<path d="M189.55 234.165L191.556 233.656C191.556 233.656 190.437 235.182 189.55 234.165Z" fill="#2E353A"/>
<path d="M169.038 267.31C168.35 266.855 167.544 266.612 166.719 266.612C165.895 266.612 165.088 266.855 164.401 267.31C164.401 267.31 162.278 266.001 161.304 267.135C161.304 267.135 175.158 293.578 173.152 311.633C171.974 321.422 171.362 331.27 171.32 341.129C171.32 341.129 176.321 338.818 178.821 339.676C180.538 340.154 182.373 339.962 183.953 339.138C183.953 339.138 182.645 319.135 182.848 309.787C183.328 288.316 171.349 268.08 171.349 268.08L169.038 267.31Z" fill="#407BFF"/>
<path opacity="0.3" d="M169.038 267.31C168.35 266.855 167.544 266.612 166.719 266.612C165.895 266.612 165.088 266.855 164.401 267.31C164.401 267.31 162.278 266.001 161.304 267.135C161.304 267.135 175.158 293.578 173.152 311.633C171.974 321.422 171.362 331.27 171.32 341.129C171.32 341.129 176.321 338.818 178.821 339.676C180.538 340.154 182.373 339.962 183.953 339.138C183.953 339.138 182.645 319.135 182.848 309.787C183.328 288.316 171.349 268.08 171.349 268.08L169.038 267.31Z" fill="black"/>
<path d="M190.044 246.667C190.639 247.185 191.331 247.58 192.08 247.83C192.828 248.079 193.619 248.178 194.406 248.121C194.457 248.114 194.506 248.091 194.543 248.054C194.579 248.017 194.603 247.969 194.609 247.917C194.611 247.891 194.608 247.865 194.599 247.84C194.591 247.816 194.577 247.793 194.559 247.774C194.541 247.755 194.52 247.74 194.496 247.729C194.472 247.719 194.446 247.713 194.42 247.714C193.556 247.769 192.691 247.624 191.892 247.292C191.093 246.959 190.381 246.447 189.812 245.795C189.775 245.764 189.729 245.747 189.681 245.747C189.633 245.747 189.587 245.764 189.55 245.795C189.514 245.835 189.495 245.886 189.495 245.94C189.495 245.994 189.514 246.045 189.55 246.085C189.681 246.318 189.855 246.492 190.044 246.667Z" fill="#2E353A"/>
<path d="M223.523 268.095C223.523 268.095 229.338 304.568 237.639 299.161C244.835 294.494 233.685 271.787 230.37 265.144C230.292 264.99 230.174 264.859 230.03 264.763C229.885 264.668 229.718 264.612 229.546 264.6C229.373 264.589 229.2 264.622 229.044 264.697C228.888 264.771 228.754 264.885 228.655 265.027C228.045 265.853 227.278 266.549 226.397 267.076C225.516 267.602 224.539 267.949 223.523 268.095Z" fill="#407BFF"/>
<path d="M173.937 264.068C173.937 264.068 181.511 274.869 188.314 272.79C193.49 271.235 187.936 266.641 187.936 266.641C188.465 266.517 189.014 266.508 189.546 266.616C190.078 266.724 190.58 266.946 191.018 267.266C191.018 267.266 192.065 266.757 193.49 268.516C193.49 268.516 198.985 281.047 190.451 282.806C177.746 285.423 169.038 267.266 169.038 267.266C169.038 267.266 170.623 265.318 172.076 265.812C172.076 265.914 171.437 264.257 173.937 264.068Z" fill="#407BFF"/>
<path opacity="0.3" d="M173.937 264.068C173.937 264.068 181.511 274.869 188.314 272.79C193.49 271.235 187.936 266.641 187.936 266.641C188.465 266.517 189.014 266.508 189.546 266.616C190.078 266.724 190.58 266.946 191.018 267.266C191.018 267.266 192.065 266.757 193.49 268.516C193.49 268.516 198.985 281.047 190.451 282.806C177.746 285.423 169.038 267.266 169.038 267.266C169.038 267.266 170.623 265.318 172.076 265.812C172.076 265.914 171.437 264.257 173.937 264.068Z" fill="black"/>
<path opacity="0.2" d="M200.613 320.123L181.06 319.207L154.53 268.662C154.424 268.716 154.326 268.784 154.239 268.865C152.562 270.287 151.517 272.315 151.332 274.506C151.332 275.756 151.332 277.108 151.419 278.591C152.524 286.644 158.687 300.251 173.908 324.572C174.754 325.926 175.943 327.032 177.355 327.778C178.767 328.523 180.351 328.882 181.947 328.816L200.511 327.464C200.511 325.168 200.511 322.725 200.613 320.123Z" fill="black"/>
<path opacity="0.2" d="M174.708 269.476C174.708 269.476 185.218 278.329 189.913 276.41C192.952 275.16 191.745 271.22 191.745 271.22C191.745 271.22 195.815 278.707 190.088 279.724C183.648 280.858 174.708 269.476 174.708 269.476Z" fill="black"/>
<path opacity="0.2" d="M169.881 268.938L174.969 276.105C173.64 275.366 172.492 274.339 171.612 273.099C170.731 271.859 170.14 270.437 169.881 268.938Z" fill="black"/>
<path d="M192.327 268.371C193.116 268.004 193.981 267.83 194.85 267.863C195.719 267.896 196.569 268.135 197.328 268.56C197.328 268.56 199.203 278.111 200.453 284.362C201.703 290.613 202.212 298.492 200.991 311.095C200.421 319.759 200.392 328.45 200.904 337.117C200.135 336.656 199.256 336.412 198.36 336.412C197.464 336.412 196.584 336.656 195.816 337.117C195.102 337.588 194.23 337.758 193.391 337.589C192.553 337.42 191.815 336.926 191.338 336.216C191.338 336.216 192.08 323.321 194.246 311.008C196.005 299.413 195.912 287.612 193.97 276.046L192.327 268.371Z" fill="#407BFF"/>
<path opacity="0.3" d="M192.327 268.371C193.116 268.004 193.981 267.83 194.85 267.863C195.719 267.896 196.569 268.135 197.328 268.56C197.328 268.56 199.203 278.111 200.453 284.362C201.703 290.613 202.212 298.492 200.991 311.095C200.421 319.759 200.392 328.45 200.904 337.117C200.135 336.656 199.256 336.412 198.36 336.412C197.464 336.412 196.584 336.656 195.816 337.117C195.102 337.588 194.23 337.758 193.391 337.589C192.553 337.42 191.815 336.926 191.338 336.216C191.338 336.216 192.08 323.321 194.246 311.008C196.005 299.413 195.912 287.612 193.97 276.046L192.327 268.371Z" fill="black"/>
<path opacity="0.2" d="M193.94 270.682C193.94 270.682 195.932 273.124 194.943 278.707C194.943 278.707 198.563 275.552 193.94 270.682Z" fill="black"/>
<path d="M170.245 243.527C171.158 245.276 172.725 246.593 174.606 247.19C177.121 247.946 178.429 245.736 177.775 243.309C177.193 241.157 175.173 238.148 172.629 238.439C172.184 238.496 171.755 238.641 171.367 238.866C170.979 239.09 170.64 239.39 170.369 239.747C170.099 240.105 169.902 240.512 169.791 240.947C169.679 241.381 169.656 241.833 169.721 242.277C169.803 242.726 169.982 243.153 170.245 243.527Z" fill="#FFB573"/>
<path d="M226.46 315.268H230.225L241.593 313.131C242.213 313.02 242.85 313.072 243.444 313.281C244.037 313.49 244.566 313.849 244.98 314.323L253.557 323.859L248.586 324.019L243.963 322.42C243.963 322.42 237.247 325.865 227.245 321.344L226.46 315.268Z" fill="#FFB573"/>
<path d="M184.273 311.997C184.273 311.997 161.145 261.117 153.251 268.836C147.785 274.186 149.515 285.306 175.813 322.347C176.724 323.626 177.957 324.641 179.386 325.292C180.815 325.943 182.39 326.206 183.953 326.054L228.248 323.147C227.685 320.183 227.685 317.141 228.248 314.177L184.273 311.997Z" fill="#407BFF"/>
<path d="M304.757 502.507L303.405 501.707V346.494C303.402 345.654 303.067 344.851 302.473 344.257C301.88 343.664 301.076 343.328 300.236 343.325H291.267C290.426 343.325 289.62 343.658 289.026 344.253C288.432 344.847 288.098 345.653 288.098 346.494V501.707L286.731 502.507C277.956 507.595 267.99 510.268 257.846 510.255C255.759 510.255 253.757 511.083 252.28 512.558C250.802 514.032 249.971 516.032 249.967 518.12H341.551C341.551 517.087 341.348 516.064 340.952 515.11C340.557 514.156 339.978 513.289 339.247 512.558C338.517 511.828 337.65 511.249 336.696 510.854C335.742 510.458 334.719 510.255 333.686 510.255C323.528 510.272 313.547 507.598 304.757 502.507Z" fill="#407BFF"/>
<path opacity="0.2" d="M303.405 354.344V346.494C303.401 345.654 303.066 344.851 302.473 344.257C301.879 343.664 301.076 343.328 300.236 343.325H291.267C290.426 343.325 289.62 343.658 289.026 344.253C288.432 344.847 288.098 345.653 288.098 346.494V354.344H303.405Z" fill="black"/>
<path d="M222.753 338.149H368.735V342.409C368.735 343.747 368.204 345.03 367.258 345.976C366.312 346.922 365.029 347.453 363.691 347.453H227.797C226.459 347.453 225.176 346.922 224.23 345.976C223.284 345.03 222.753 343.747 222.753 342.409V338.149Z" fill="#407BFF"/>
<path opacity="0.3" d="M222.753 338.149H368.735V342.409C368.735 343.747 368.204 345.03 367.258 345.976C366.312 346.922 365.029 347.453 363.691 347.453H227.797C226.459 347.453 225.176 346.922 224.23 345.976C223.284 345.03 222.753 343.747 222.753 342.409V338.149Z" fill="white"/>
<path d="M373.954 328.86H217.534C214.965 328.86 212.882 330.943 212.882 333.512C212.882 336.081 214.965 338.164 217.534 338.164H373.954C376.523 338.164 378.606 336.081 378.606 333.512C378.606 330.943 376.523 328.86 373.954 328.86Z" fill="#407BFF"/>
<path opacity="0.4" d="M373.954 328.86H217.534C214.965 328.86 212.882 330.943 212.882 333.512C212.882 336.081 214.965 338.164 217.534 338.164H373.954C376.523 338.164 378.606 336.081 378.606 333.512C378.606 330.943 376.523 328.86 373.954 328.86Z" fill="white"/>
<path opacity="0.2" d="M297.242 344.967V338.149H222.753V344.967C222.704 345.571 222.895 346.17 223.284 346.635C223.673 347.1 224.229 347.394 224.832 347.453H295.105C295.408 347.431 295.705 347.349 295.977 347.212C296.249 347.075 296.491 346.885 296.69 346.654C296.889 346.423 297.04 346.155 297.134 345.866C297.229 345.576 297.265 345.271 297.242 344.967Z" fill="black"/>
<path opacity="0.2" d="M307.112 334.849V332.174C307.177 331.37 306.924 330.573 306.408 329.953C305.891 329.334 305.153 328.941 304.35 328.86H215.673C214.868 328.937 214.126 329.328 213.606 329.949C213.087 330.569 212.832 331.368 212.897 332.174V334.849C212.832 335.654 213.087 336.452 213.607 337.07C214.127 337.687 214.869 338.075 215.673 338.149H304.35C305.151 338.072 305.89 337.682 306.407 337.065C306.924 336.448 307.177 335.652 307.112 334.849Z" fill="black"/>
<path d="M316.271 328.758H267.644C266.387 328.758 265.182 328.259 264.293 327.37C263.404 326.481 262.905 325.276 262.905 324.019H321.053C321.054 324.645 320.929 325.265 320.689 325.843C320.448 326.42 320.095 326.945 319.65 327.385C319.205 327.826 318.678 328.174 318.098 328.41C317.518 328.645 316.897 328.764 316.271 328.758Z" fill="#263238"/>
<path opacity="0.2" d="M316.271 328.758H267.644C266.387 328.758 265.182 328.259 264.293 327.37C263.404 326.481 262.905 325.276 262.905 324.019H321.053C321.054 324.645 320.929 325.265 320.689 325.843C320.448 326.42 320.095 326.945 319.65 327.385C319.205 327.826 318.678 328.174 318.098 328.41C317.518 328.645 316.897 328.764 316.271 328.758Z" fill="white"/>
<path d="M282.298 328.758H233.671C232.414 328.758 231.208 328.259 230.32 327.37C229.431 326.481 228.932 325.276 228.932 324.019H287.08C287.08 324.645 286.956 325.265 286.715 325.843C286.475 326.42 286.122 326.945 285.677 327.385C285.232 327.826 284.705 328.174 284.125 328.41C283.545 328.645 282.924 328.764 282.298 328.758Z" fill="#263238"/>
<path opacity="0.5" d="M282.298 328.758H233.671C232.414 328.758 231.208 328.259 230.32 327.37C229.431 326.481 228.932 325.276 228.932 324.019H287.08C287.08 324.645 286.956 325.265 286.715 325.843C286.475 326.42 286.122 326.945 285.677 327.385C285.232 327.826 284.705 328.174 284.125 328.41C283.545 328.645 282.924 328.764 282.298 328.758Z" fill="white"/>
<path d="M316.663 327.319H287.008C286.834 327.315 286.663 327.272 286.509 327.191C286.355 327.11 286.222 326.995 286.121 326.854C286.019 326.713 285.952 326.55 285.924 326.378C285.896 326.207 285.909 326.031 285.961 325.865L302.213 279.419C302.433 278.795 302.84 278.255 303.379 277.872C303.917 277.49 304.562 277.283 305.223 277.282H334.864C335.039 277.283 335.211 277.325 335.367 277.405C335.523 277.485 335.658 277.6 335.761 277.741C335.864 277.883 335.933 278.046 335.961 278.219C335.99 278.392 335.977 278.568 335.925 278.736L319.673 325.182C319.453 325.805 319.046 326.345 318.507 326.728C317.968 327.111 317.324 327.317 316.663 327.319Z" fill="#263238"/>
<path opacity="0.5" d="M316.663 327.319H287.008C286.834 327.315 286.663 327.272 286.509 327.191C286.355 327.11 286.222 326.995 286.121 326.854C286.019 326.713 285.952 326.55 285.924 326.378C285.896 326.207 285.909 326.031 285.961 325.865L302.213 279.419C302.433 278.795 302.84 278.255 303.379 277.872C303.917 277.49 304.562 277.283 305.223 277.282H334.864C335.039 277.283 335.211 277.325 335.367 277.405C335.523 277.485 335.658 277.6 335.761 277.741C335.864 277.883 335.933 278.046 335.961 278.219C335.99 278.392 335.977 278.568 335.925 278.736L319.673 325.182C319.453 325.805 319.046 326.345 318.507 326.728C317.968 327.111 317.324 327.317 316.663 327.319Z" fill="white"/>
<path d="M318.088 327.319H288.447C288.272 327.318 288.099 327.275 287.944 327.196C287.788 327.116 287.653 327.001 287.55 326.859C287.447 326.718 287.378 326.554 287.349 326.382C287.321 326.209 287.333 326.032 287.386 325.865L303.638 279.419C303.857 278.795 304.265 278.255 304.803 277.872C305.342 277.49 305.986 277.283 306.647 277.282H336.303C336.477 277.286 336.648 277.33 336.802 277.411C336.956 277.491 337.09 277.606 337.192 277.747C337.295 277.887 337.364 278.05 337.394 278.221C337.424 278.393 337.414 278.569 337.364 278.736L321.097 325.182C320.878 325.805 320.471 326.345 319.932 326.728C319.393 327.111 318.749 327.317 318.088 327.319Z" fill="#263238"/>
<path opacity="0.7" d="M318.088 327.319H288.447C288.272 327.318 288.099 327.275 287.944 327.196C287.788 327.116 287.653 327.001 287.55 326.859C287.447 326.718 287.378 326.554 287.349 326.382C287.321 326.209 287.333 326.032 287.386 325.865L303.638 279.419C303.857 278.795 304.265 278.255 304.803 277.872C305.342 277.49 305.986 277.283 306.647 277.282H336.303C336.477 277.286 336.648 277.33 336.802 277.411C336.956 277.491 337.09 277.606 337.192 277.747C337.295 277.887 337.364 278.05 337.394 278.221C337.424 278.393 337.414 278.569 337.364 278.736L321.097 325.182C320.878 325.805 320.471 326.345 319.932 326.728C319.393 327.111 318.749 327.317 318.088 327.319Z" fill="white"/>
<path d="M314.774 302.286C314.396 304.059 313.16 305.498 312.026 305.498C310.892 305.498 310.267 304.045 310.645 302.286C311.023 300.527 312.259 299.059 313.393 299.059C314.526 299.059 315.152 300.498 314.774 302.286Z" fill="white"/>
</svg>
